<?xml version="1.0" encoding="UTF-8" standalone="no"?>
<!-- Created with Inkscape (http://www.inkscape.org/) -->

<svg
   width="27.414867mm"
   height="16.886589mm"
   viewBox="0 0 27.414867 16.886589"
   version="1.1"
   id="svg1"
   xml:space="preserve"
   xmlns="http://www.w3.org/2000/svg"
   xmlns:svg="http://www.w3.org/2000/svg"><defs
     id="defs1" /><g
     id="g69"
     transform="matrix(0.25897145,0,0,0.25897145,75.482426,-50.826302)"><path
       style="fill:#00ebff;fill-opacity:1"
       d="m -234.28476,261.42536 c -1.22516,-0.0866 -2.49536,-0.22734 -3.47577,-0.38505 -0.40965,-0.0659 -1.52686,-0.15294 -2.4827,-0.19343 -3.16772,-0.13419 -4.71816,-0.36006 -6.61542,-0.96376 -0.36132,-0.11497 -0.79741,-0.2807 -0.96909,-0.36828 -0.17848,-0.0911 -0.48188,-0.15953 -0.70853,-0.15991 -0.9119,-0.002 -3.15987,-0.34778 -4.58207,-0.7058 -1.72877,-0.43518 -3.74688,-1.29338 -4.98601,-2.12028 -0.45179,-0.30149 -0.71169,-0.39089 -2.24871,-0.7735 -4.62108,-1.15034 -7.1754,-2.34877 -8.94528,-4.19692 -0.59487,-0.62118 -0.84113,-0.81568 -1.27516,-1.00715 -2.07718,-0.91629 -4.14043,-2.3121 -5.83032,-3.94428 -0.65392,-0.63158 -1.1147,-0.99606 -1.61777,-1.27968 -2.81501,-1.58704 -5.25235,-3.79974 -7.57194,-6.87406 -0.40948,-0.54272 -0.99789,-1.26476 -1.30758,-1.60452 -1.24317,-1.36391 -2.33174,-2.97521 -3.16084,-4.67867 -0.59407,-1.22057 -0.88949,-2.05662 -1.02347,-2.89648 -0.52588,-3.29645 -0.51192,-6.47877 0.0381,-8.68943 0.36384,-1.46227 0.92931,-2.80848 1.59753,-3.80317 0.41105,-0.61187 0.42155,-0.64254 0.42155,-1.23138 0,-2.0624 1.03792,-4.25192 2.9163,-6.15197 0.41279,-0.41755 1.04381,-0.97616 1.40227,-1.24134 0.48325,-0.35752 0.71847,-0.59983 0.90986,-0.93732 0.14197,-0.25034 0.50395,-0.71093 0.80442,-1.02353 1.30976,-1.36268 3.34288,-2.31892 5.92547,-2.78695 0.56505,-0.1024 0.59229,-0.11901 1.10789,-0.67524 1.62409,-1.75208 3.52428,-2.61678 8.32635,-3.78901 3.23228,-0.78902 4.99791,-1.13349 7.65499,-1.49348 0.7055,-0.0956 1.80409,-0.26226 2.44132,-0.37039 1.57211,-0.26679 2.6376,-0.36716 4.83798,-0.45579 1.02591,-0.0413 3.01975,-0.13677 4.43075,-0.21212 4.65351,-0.2485 14.65225,-0.17897 19.53054,0.13581 6.23038,0.40202 12.09343,1.7425 18.0823,4.13418 2.32848,0.92989 5.99854,2.65978 7.35897,3.46866 0.4359,0.25918 1.46288,0.85176 2.28217,1.31684 1.41644,0.80406 4.54192,2.94468 6.57914,4.50601 2.26741,1.73775 4.83076,3.99308 6.76307,5.95041 1.03637,1.04979 1.21258,1.26924 1.4747,1.83656 0.77725,1.68225 0.78687,2.94575 0.029,3.80677 -0.43979,0.49963 -1.16539,0.92374 -2.68632,1.57015 -2.34618,0.99714 -3.30922,1.57213 -4.36488,2.60607 -1.78686,1.75009 -2.6607,3.83359 -3.69304,8.80539 -0.13941,0.67137 -0.36634,1.76996 -0.50429,2.44132 -0.74839,3.64206 -1.32898,5.88132 -1.82427,7.03589 -1.51363,3.52849 -4.25414,6.96801 -7.52466,9.44398 -1.71844,1.30095 -3.35848,2.27402 -4.96539,2.94606 -0.29586,0.12373 -0.83584,0.40318 -1.19997,0.621 -1.45853,0.87247 -3.22479,1.60977 -5.64715,2.35732 -3.30246,1.01915 -6.49968,1.66157 -9.70419,1.94988 -1.31729,0.11852 -4.80156,0.16532 -5.99985,0.0806 z"
       id="path24" /><path
       style="opacity:1;fill:#e0e0e0;fill-opacity:1;stroke:#957b7b;stroke-width:0.353552;stroke-opacity:0"
       d="m -271.43826,239.8347 c -1.36595,-0.46121 -2.58723,-1.19512 -4.04129,-2.42855 -3.26795,-2.7721 -5.89007,-6.96456 -6.05416,-9.67991 l -0.048,-0.79513 0.67807,-0.88867 c 2.34715,-3.07611 5.56545,-6.24434 8.83851,-8.701 2.09636,-1.57347 5.70091,-3.85039 7.62627,-4.81737 1.02304,-0.5138 0.84484,-0.60087 1.91696,0.93666 0.45549,0.65322 1.11199,1.82181 1.79776,3.20007 l 1.08025,2.17107 -0.56093,0.86911 c -0.30851,0.47802 -1.02511,1.58621 -1.59244,2.46267 -3.56802,5.51211 -6.10802,10.50206 -8.11689,15.94601 -0.35123,0.95181 -0.68422,1.78119 -0.73998,1.84306 -0.0782,0.0868 -0.25725,0.0599 -0.78408,-0.11802 z"
       id="path38" /><path
       style="opacity:1;fill:#e0e0e0;fill-opacity:1;stroke:#957b7b;stroke-width:0.353552;stroke-opacity:0"
       d="m -255.12529,248.48373 c -4.50109,-0.47447 -10.57608,-3.62479 -13.97632,-7.24773 l -0.84712,-0.90259 0.23703,-0.66754 c 0.42996,-1.21089 1.78338,-4.5719 2.41592,-5.99957 1.63529,-3.6909 4.31822,-8.43243 7.25324,-12.81861 0.93144,-1.39198 1.0034,-1.45066 2.72303,-2.22063 2.99794,-1.34234 5.62594,-2.20578 8.73839,-2.87106 l 1.30518,-0.27898 0.25968,0.30147 c 0.92025,1.06839 2.54256,3.4016 3.51811,5.05975 0.68332,1.16148 1.60101,3.01429 1.60101,3.23247 0,0.19109 -0.88925,2.7933 -1.62378,4.75167 -0.82735,2.20581 -1.97977,4.99032 -4.50188,10.87753 -1.39961,3.26704 -2.80811,6.57687 -3.12999,7.35519 l -0.58524,1.41512 -0.42464,0.0582 c -0.55432,0.076 -2.02893,0.0537 -2.96262,-0.0447 z"
       id="path39" /><path
       style="opacity:1;fill:#e0e0e0;fill-opacity:1;stroke:#957b7b;stroke-width:0.353552;stroke-opacity:0"
       d="m -281.68735,225.57472 c -0.0262,-0.0772 -0.0916,-0.43498 -0.1455,-0.79513 -0.6769,-4.52632 -0.19619,-7.9693 1.63424,-11.70479 1.14309,-2.33278 2.35821,-3.95542 4.75913,-6.35523 2.11971,-2.11873 4.02093,-3.67334 6.39323,-5.2277 1.75072,-1.14708 4.13935,-2.11864 6.00809,-2.44373 1.14175,-0.19863 3.46145,-0.14253 5.8933,0.1425 2.5272,0.29622 2.40356,0.2011 1.34349,1.03356 -0.49137,0.38587 -1.38405,1.20907 -1.98373,1.82933 -1.84057,1.90371 -2.94118,3.54658 -4.78034,7.13559 l -1.03848,2.02654 -1.046,0.56127 c -3.73728,2.00535 -7.261,4.34677 -10.12805,6.72984 -1.50826,1.25366 -4.1622,3.92907 -5.42557,5.46946 -1.53763,1.87479 -1.42958,1.75839 -1.48381,1.59849 z"
       id="path40" /><path
       style="opacity:1;fill:#e0e0e0;fill-opacity:1;stroke:#957b7b;stroke-width:0.353552;stroke-opacity:0"
       d="m -259.48016,217.45975 c -0.98763,-2.14814 -2.28299,-4.39196 -3.10489,-5.37829 l -0.36984,-0.44383 1.08103,-2.12864 c 1.58624,-3.12346 2.58683,-4.66588 4.22149,-6.50749 2.49915,-2.81555 6.07626,-4.8912 9.78615,-5.67849 1.45168,-0.30806 5.0459,-0.4247 9.08621,-0.29484 3.45964,0.1112 7.70601,0.34207 8.51022,0.4627 l 0.4488,0.0673 -0.96329,0.40966 c -2.3613,1.00417 -4.6719,2.3286 -6.70092,3.84092 -1.40403,1.04649 -4.21894,3.80579 -5.25443,5.15063 -1.54814,2.01065 -2.95224,4.44132 -3.92457,6.7939 l -0.39155,0.94739 -0.81168,0.15667 c -3.42553,0.66119 -7.11828,1.84721 -10.10898,3.24674 -0.53453,0.25014 -0.97783,0.45479 -0.98513,0.45479 -0.007,0 -0.24067,-0.49461 -0.51862,-1.09914 z"
       id="path41" /><path
       style="opacity:1;fill:#e0e0e0;fill-opacity:1;stroke:#957b7b;stroke-width:0.353552;stroke-opacity:0"
       d="m -256.30297,198.58396 c -0.95181,-0.11977 -2.27265,-0.27102 -2.9352,-0.3361 l -1.20463,-0.11833 0.48454,-0.1647 c 1.68841,-0.57391 6.58687,-1.14664 9.31473,-1.08908 1.22028,0.0257 1.28308,0.0357 0.92052,0.14589 -0.58901,0.17901 -1.8204,0.68834 -3.07986,1.27388 -0.73236,0.34049 -1.24286,0.52212 -1.44993,0.51587 -0.17578,-0.005 -1.09835,-0.10765 -2.05017,-0.22743 z"
       id="path42" /><path
       style="opacity:1;fill:#e0e0e0;fill-opacity:1;stroke:#957b7b;stroke-width:0.353552;stroke-opacity:0"
       d="m -241.74917,222.5052 c -1.0914,-2.19349 -2.24428,-4.03721 -3.84735,-6.15279 l -0.86281,-1.13866 0.48413,-1.15715 c 2.33436,-5.57944 6.00995,-9.92896 11.06763,-13.09689 1.42778,-0.8943 3.70703,-2.02308 5.62295,-2.78471 l 1.43396,-0.57004 0.99819,0.001 c 3.39552,0.005 5.53325,0.42992 6.61084,1.31428 0.95318,0.78225 3.79275,3.50365 3.7677,3.61091 -0.0143,0.0611 -0.6363,0.60486 -1.38232,1.20842 -4.82137,3.90068 -7.74974,7.24274 -10.70002,12.21166 l -0.5348,0.9007 -0.86053,0.35548 c -1.2866,0.53149 -4.98435,2.42262 -6.47319,3.31057 -0.7203,0.42958 -2.04629,1.27141 -2.94665,1.87074 -0.90037,0.59932 -1.6813,1.11658 -1.73541,1.14946 -0.0578,0.0351 -0.32291,-0.39147 -0.64232,-1.03343 z"
       id="path43" /><path
       style="opacity:1;fill:#e0e0e0;fill-opacity:1;stroke:#957b7b;stroke-width:0.353552;stroke-opacity:0"
       d="m -240.1198,255.07031 c -2.42385,-0.25523 -4.94506,-1.19822 -6.86729,-2.56855 -1.42946,-1.01903 -3.8903,-3.50342 -3.8903,-3.92753 0,-0.25967 0.52445,-1.53035 3.50833,-8.50014 3.4809,-8.13076 4.19694,-9.92792 5.99079,-15.03606 0.16086,-0.45807 0.23625,-0.53456 1.15959,-1.17642 3.0766,-2.1387 7.36222,-4.58726 10.06135,-5.74848 1.11422,-0.47935 1.04623,-0.48629 1.32054,0.13478 0.58249,1.31882 1.91848,4.18273 3.53206,7.57149 0.95825,2.01248 1.74228,3.70276 1.74228,3.75617 0,0.0534 -0.31277,0.62232 -0.69504,1.26424 -3.28072,5.50914 -5.0064,11.73698 -6.20052,22.37726 l -0.0735,0.65481 -0.79513,0.2127 c -0.43732,0.11699 -1.52859,0.36029 -2.42504,0.54068 -1.38757,0.27922 -1.93696,0.34124 -3.695,0.41713 -1.1358,0.049 -2.12823,0.0831 -2.20541,0.0758 -0.0772,-0.007 -0.28764,-0.0289 -0.46772,-0.0478 z"
       id="path44" /><path
       style="opacity:1;fill:#e0e0e0;fill-opacity:1;stroke:#957b7b;stroke-width:0.353552;stroke-opacity:0"
       d="m -223.35208,228.1238 c -0.41508,-0.78776 -3.63518,-7.58705 -4.41913,-9.33105 l -0.67279,-1.4967 0.25724,-0.46773 c 0.42153,-0.76644 1.98715,-3.20374 2.64135,-4.11196 2.09526,-2.90878 5.55831,-6.40671 8.74708,-8.83518 0.96763,-0.73692 1.22045,-0.82648 3.10481,-1.09985 2.20481,-0.31987 6.3595,-0.14309 7.90666,0.33642 0.75442,0.23381 2.01152,0.86123 2.93064,1.46268 l 0.69967,0.45786 0.0667,1.06743 c 0.075,1.20016 0.0198,2.70918 -0.10721,2.93339 -0.0462,0.0816 -0.65234,0.58744 -1.3469,1.1241 -3.10329,2.39779 -4.62068,4.01148 -7.49099,7.96642 l -1.36384,1.8792 -0.9971,0.60804 c -2.48286,1.51405 -4.84112,3.46238 -8.63158,7.13117 -0.51917,0.5025 -0.96582,0.91364 -0.99257,0.91364 -0.0267,0 -0.17616,-0.24205 -0.33204,-0.53788 z"
       id="path45" /><path
       style="opacity:1;fill:#e0e0e0;fill-opacity:1;stroke:#957b7b;stroke-width:0.353552;stroke-opacity:0"
       d="m -224.87207,254.4681 c -0.9899,-0.0603 -2.71087,-0.2976 -4.20949,-0.58037 l -0.60804,-0.11473 0.0216,-0.65214 c 0.0309,-0.93337 0.63692,-5.39083 1.01707,-7.48088 1.04963,-5.77077 2.73244,-10.58204 5.03791,-14.40379 0.40281,-0.66772 0.77907,-1.32019 0.83615,-1.44994 0.21244,-0.48291 0.48618,-0.77778 2.23825,-2.411 3.5725,-3.33017 5.3228,-4.76563 7.18707,-5.89426 0.84542,-0.51182 0.97576,-0.565 1.03177,-0.42095 0.0352,0.0907 0.17513,0.83839 0.31083,1.66158 0.77743,4.71614 2.18404,9.1943 4.07124,12.96153 l 0.64708,1.29169 -0.612,1.33915 c -2.03105,4.44426 -3.39709,8.0958 -3.87798,10.36618 -0.20753,0.97975 -0.20936,0.98346 -0.73113,1.47905 -0.62077,0.58962 -2.54366,1.89505 -3.6607,2.48522 -2.74035,1.4478 -5.47176,2.02037 -8.69962,1.82366 z"
       id="path46" /><path
       style="opacity:1;fill:#e0e0e0;fill-opacity:1;stroke:#957b7b;stroke-width:0.353552;stroke-opacity:0"
       d="m -207.22734,235.46703 c -0.31275,-0.54032 -1.02524,-2.14211 -1.50833,-3.39098 -1.08035,-2.79291 -2.04957,-6.40929 -2.61815,-9.76894 -0.35881,-2.12011 -0.42433,-1.86107 0.94942,-3.7536 2.95896,-4.07638 4.58053,-5.76283 7.9362,-8.25369 l 1.12253,-0.83324 1.91766,0.0443 c 1.74947,0.0404 2.01611,0.0694 3.04019,0.33056 1.38614,0.3535 1.67846,0.47512 2.54101,1.05716 1.02538,0.69192 2.19085,1.6918 4.16402,3.57237 l 1.77633,1.69297 -1.24726,0.25049 c -2.10214,0.42218 -3.27525,0.80505 -4.99352,1.62974 -2.39843,1.15114 -4.53455,3.12065 -5.89882,5.43874 -1.42953,2.42899 -2.14593,5.14909 -2.37408,9.0141 -0.13102,2.21947 -0.039,2.05385 -1.27594,2.29696 -1.16617,0.22919 -1.78256,0.41632 -2.64377,0.8026 -0.32867,0.14742 -0.61104,0.26803 -0.62748,0.26803 -0.0164,0 -0.13344,-0.1789 -0.26001,-0.39756 z"
       id="path47" /><path
       style="opacity:1;fill:#e0e0e0;fill-opacity:1;stroke:#957b7b;stroke-width:0.353552;stroke-opacity:0"
       d="m -210.98455,248.52726 c 0.32884,-1.75285 1.92932,-5.92342 3.95849,-10.31511 0.68545,-1.4835 0.88791,-1.841 1.10803,-1.95651 0.47789,-0.25079 1.81278,-0.6699 2.48978,-0.78171 0.89409,-0.14765 0.91328,-0.1176 0.91328,1.43076 0,1.48332 -0.12419,2.39876 -0.46821,3.45151 -0.96154,2.94243 -3.03524,5.32668 -6.68794,7.68952 -0.51449,0.33281 -1.03567,0.65824 -1.15817,0.72318 -0.22057,0.11691 -0.22208,0.11456 -0.15526,-0.24164 z"
       id="path48" /><path
       style="opacity:1;fill:#e0e0e0;fill-opacity:1;stroke:#957b7b;stroke-width:0.353552;stroke-opacity:0"
       d="m -196.90232,208.95279 c -0.33276,-0.0889 -1.19598,-0.15534 -2.44385,-0.18813 l -1.92937,-0.0507 -0.0576,-0.47973 c -0.074,-0.61602 -0.0738,-2.28664 2.6e-4,-2.56324 l 0.057,-0.21264 0.43286,0.25065 c 1.61388,0.93454 4.01422,2.6738 4.50315,3.26293 0.13479,0.1624 0.11471,0.16172 -0.56238,-0.0192 z"
       id="path49" /><path
       style="opacity:1;fill:#e0e0e0;fill-opacity:1;stroke:#957b7b;stroke-width:0.353552;stroke-opacity:0"
       d="m -217.23271,200.63866 c -0.95843,-0.91584 -1.73046,-1.67732 -1.7156,-1.69218 0.0149,-0.0149 0.88373,0.18298 1.93082,0.43962 1.90451,0.46681 4.93136,1.43389 6.69156,2.13798 l 0.93545,0.37417 -1.63703,0.007 c -1.43319,0.006 -2.16199,0.0667 -4.03202,0.33672 l -0.43057,0.0622 z"
       id="path50" /><path
       style="opacity:1;fill:#e0e0e0;fill-opacity:1;stroke:#957b7b;stroke-width:0.499999;stroke-opacity:0"
       d="m -286.16551,235.68317 c -2.10827,-2.45204 -3.68953,-5.46923 -3.94839,-7.53389 -0.0652,-0.5197 -0.0361,-0.62554 0.21601,-0.78639 1.87352,-1.19533 2.71096,-1.50476 4.85537,-1.79399 1.83246,-0.24717 2.46482,-0.24573 2.56136,0.006 0.0419,0.1091 0.11427,0.83836 0.16091,1.62058 0.0992,1.66435 0.56302,3.25272 1.39173,4.76633 0.28995,0.52958 0.4956,1.01396 0.45701,1.07641 -0.0386,0.0624 -0.29407,0.15488 -0.56772,0.20542 -1.35489,0.25023 -3.05323,1.44185 -3.87078,2.7159 -0.23357,0.36398 -0.43335,0.65807 -0.44395,0.65352 -0.0106,-0.005 -0.37581,-0.42293 -0.81155,-0.92973 z"
       id="path51" /><path
       style="opacity:1;fill:#e0e0e0;fill-opacity:1;stroke:#957b7b;stroke-width:0.499999;stroke-opacity:0"
       d="m -290.33418,224.37189 c 0,-3.20127 0.47945,-5.29571 1.68552,-7.36293 0.71908,-1.23252 0.90498,-1.37989 2.21708,-1.75756 0.87408,-0.25159 1.63906,-0.36338 2.87734,-0.42051 0.97071,-0.0448 1.686,-0.0272 1.68502,0.0414 -0.001,0.0656 -0.11795,0.48996 -0.26001,0.94311 -0.63318,2.01964 -0.89762,5.32122 -0.62394,7.78976 l 0.10431,0.94075 -1.69292,0.16552 c -2.20808,0.21589 -3.39891,0.5304 -4.77015,1.25986 -0.61591,0.32765 -1.14287,0.59572 -1.17104,0.59572 -0.0282,0 -0.0512,-0.9878 -0.0512,-2.19511 z"
       id="path52" /><path
       style="opacity:1;fill:#e0e0e0;fill-opacity:1;stroke:#957b7b;stroke-width:0.499999;stroke-opacity:0"
       d="m -287.95293,214.66869 c 0,-0.52368 0.44635,-1.84859 0.94693,-2.81076 0.60105,-1.15529 1.92428,-2.66699 3.18082,-3.63389 0.77817,-0.59878 0.77969,-0.59927 1.5998,-0.51477 1.77836,0.18324 3.86957,0.50181 3.98071,0.60641 0.0663,0.0624 -0.0555,0.32918 -0.28071,0.61489 -0.70931,0.89979 -1.84435,2.7258 -2.43117,3.91117 l -0.57306,1.15755 h -1.15157 c -1.45615,0 -2.90154,0.19983 -4.23135,0.58499 -0.92992,0.26935 -1.0404,0.27831 -1.0404,0.0844 z"
       id="path53" /><path
       style="opacity:1;fill:#e0e0e0;fill-opacity:1;stroke:#957b7b;stroke-width:0.499999;stroke-opacity:0"
       d="m -278.56023,207.44238 c -0.47294,-0.0965 -1.48497,-0.24688 -2.24895,-0.33429 -2.08464,-0.23851 -2.05378,-0.19886 -0.91659,-1.17761 1.1397,-0.98091 2.42925,-1.61811 4.142,-2.04665 2.13192,-0.53343 2.07399,-0.53373 2.71366,0.0138 l 0.56566,0.48418 -1.62981,1.63373 c -0.89639,0.89856 -1.66047,1.62664 -1.69794,1.61797 -0.0375,-0.009 -0.45508,-0.0947 -0.92803,-0.19114 z"
       id="path57" /><path
       style="opacity:1;fill:#e0e0e0;fill-opacity:1;stroke:#957b7b;stroke-width:0.499999;stroke-opacity:0"
       d="m -278.89096,243.20659 c -1.25826,-0.85734 -4.67258,-4.16289 -5.45099,-5.27735 l -0.42391,-0.60692 0.27105,-0.51594 c 0.66986,-1.27505 2.51267,-2.6162 4.04856,-2.94642 l 0.56137,-0.1207 0.68455,0.87871 c 0.87995,1.12953 2.88974,3.19184 3.78073,3.87954 l 0.69323,0.53507 -0.57669,0.64142 c -0.63018,0.70091 -1.47031,2.23148 -1.93689,3.52867 -0.16357,0.45476 -0.33407,0.8242 -0.37889,0.821 -0.0448,-0.003 -0.61727,-0.37089 -1.27212,-0.81708 z"
       id="path58" /><path
       style="opacity:1;fill:#e0e0e0;fill-opacity:1;stroke:#957b7b;stroke-width:0.125;stroke-opacity:0"
       d="m -273.97184,203.65912 c -0.168,-0.15731 -0.49576,-0.42778 -0.72837,-0.60106 l -0.42292,-0.31506 0.1418,-0.14783 c 0.65623,-0.6841 1.28259,-1.13623 2.26896,-1.6378 1.33312,-0.6779 2.82939,-1.17918 5.29772,-1.77482 1.19622,-0.28867 1.24281,-0.29539 1.36688,-0.19728 0.12634,0.0999 0.10025,0.12023 -0.42431,0.33074 -1.67142,0.67077 -4.07216,2.1839 -6.26689,3.94988 -0.66753,0.53712 -0.85559,0.67923 -0.89884,0.67923 -0.0157,0 -0.16604,-0.1287 -0.33403,-0.286 z"
       id="path59" /><path
       style="opacity:1;fill:#e0e0e0;fill-opacity:1;stroke:#957b7b;stroke-width:0.00781251;stroke-opacity:0"
       d="m -265.15536,198.80433 c -0.0224,-0.002 -0.04,-0.007 -0.0594,-0.0166 -0.0384,-0.0188 -0.0602,-0.0542 -0.0546,-0.0885 0.003,-0.0203 0.0112,-0.0343 0.0294,-0.0524 0.0286,-0.0283 0.0582,-0.0395 0.19944,-0.0747 0.60367,-0.1507 2.51448,-0.50608 2.71912,-0.5057 0.0192,3e-5 0.0214,0.002 0.0124,0.0114 -0.0458,0.0474 -0.24599,0.11901 -0.61183,0.21882 -0.45773,0.12487 -1.39448,0.34639 -1.9544,0.46216 -0.13701,0.0283 -0.25015,0.0487 -0.26215,0.0473 -10e-4,-1.5e-4 -0.009,-10e-4 -0.0179,-0.002 z"
       id="path60" /><path
       style="opacity:1;fill:#e0e0e0;fill-opacity:1;stroke:#957b7b;stroke-width:0.00781251;stroke-opacity:0"
       d="m -265.16471,198.80231 c -0.0335,-0.005 -0.0698,-0.0232 -0.0854,-0.043 -0.003,-0.004 -0.009,-0.0128 -0.012,-0.019 -0.005,-0.01 -0.006,-0.0135 -0.006,-0.03 -2e-5,-0.0166 7.9e-4,-0.02 0.006,-0.032 0.0126,-0.0261 0.039,-0.0489 0.0722,-0.0622 0.0335,-0.0134 0.0984,-0.0312 0.21792,-0.0595 0.62539,-0.14852 2.22988,-0.44832 2.60037,-0.48587 0.0256,-0.003 0.0637,-0.003 0.0657,-0.001 0.002,0.002 -0.0189,0.0206 -0.0361,0.0307 -0.0953,0.0559 -0.34542,0.1358 -0.76753,0.24526 -0.6218,0.16124 -1.70356,0.40863 -1.98851,0.45477 -0.0261,0.004 -0.0482,0.005 -0.0672,0.002 z"
       id="path61" /><path
       style="opacity:1;fill:#e0e0e0;fill-opacity:1;stroke:#957b7b;stroke-width:0.25;stroke-opacity:0"
       d="m -270.73552,249.03097 c -2.03049,-1.03816 -3.02571,-1.74098 -4.84835,-3.42387 -0.52762,-0.48717 -1.0302,-0.93541 -1.11682,-0.99609 -0.15014,-0.10516 -0.15382,-0.12521 -0.0786,-0.4286 0.10646,-0.42931 0.62241,-1.718 0.94839,-2.3688 0.3691,-0.73688 0.69199,-1.19319 1.2883,-1.82063 l 0.51334,-0.54013 0.76068,0.39753 c 0.75871,0.39649 1.74342,0.76559 2.26507,0.849 0.24402,0.039 0.39949,0.16472 1.37079,1.10829 1.16467,1.13141 2.29385,2.0738 3.5399,2.95433 l 0.76441,0.54016 -0.43796,0.28766 c -0.92746,0.60916 -2.05267,1.62755 -2.58795,2.34228 -0.14986,0.20009 -0.44136,0.68378 -0.64779,1.07487 -0.20643,0.39109 -0.38019,0.71023 -0.38613,0.7092 -0.006,-0.001 -0.61223,-0.30937 -1.3473,-0.6852 z"
       id="path62" /><path
       style="opacity:1;fill:#e0e0e0;fill-opacity:1;stroke:#957b7b;stroke-width:0.25;stroke-opacity:0"
       d="m -260.03939,254.57461 c -3.95622,-1.02085 -5.95364,-1.88155 -7.67577,-3.30754 -0.27443,-0.22723 -0.62332,-0.54806 -0.77532,-0.71297 l -0.27637,-0.29982 0.10398,-0.25159 c 0.61149,-1.47954 1.53884,-2.54487 3.32969,-3.82509 l 0.6692,-0.47839 0.54289,0.32852 c 0.29859,0.18068 0.97834,0.54752 1.51054,0.81519 2.25573,1.13452 4.06059,1.75771 6.52337,2.25243 0.0819,0.0164 0.14883,0.053 0.14883,0.0813 0,0.0283 -0.17641,0.28148 -0.39203,0.56269 -1.19302,1.55596 -1.84958,2.93601 -2.15334,4.52622 -0.10403,0.54459 -0.13234,0.61163 -0.2575,0.6098 -0.0773,-0.001 -0.66152,-0.13647 -1.29817,-0.30075 z"
       id="path63" /><path
       style="opacity:1;fill:#e0e0e0;fill-opacity:1;stroke:#957b7b;stroke-width:0.25;stroke-opacity:0"
       d="m -249.02611,258.1469 c -3.40168,-0.40031 -6.06184,-1.23665 -8.22541,-2.586 l -0.61864,-0.38583 0.0429,-0.48264 c 0.13051,-1.46828 1.19908,-3.60221 2.49835,-4.98921 l 0.41582,-0.44389 1.73613,-0.0178 1.73613,-0.0177 0.65056,0.75973 c 1.33232,1.55591 2.90681,2.91487 4.46391,3.85285 l 0.36381,0.21916 -0.26804,0.39438 c -0.2904,0.42728 -0.7018,1.26317 -0.87094,1.76961 -0.14082,0.42165 -0.30401,1.37464 -0.30401,1.77537 0,0.38186 0.18531,0.36449 -1.62057,0.15197 z"
       id="path64" /><path
       style="opacity:1;fill:#e0e0e0;fill-opacity:1;stroke:#957b7b;stroke-width:0.25;stroke-opacity:0"
       d="m -234.73861,260.22597 c -0.88677,-0.0767 -2.643,-0.31053 -2.99147,-0.39827 -0.24403,-0.0614 -0.28961,-0.10213 -0.34867,-0.31114 -0.14088,-0.49854 -0.15479,-1.15917 -0.0357,-1.69456 0.1437,-0.64591 0.51115,-1.53232 0.74799,-1.80442 0.17651,-0.20279 0.19878,-0.20886 1.02772,-0.28022 1.49675,-0.12884 3.66795,-0.53965 5.43656,-1.02865 0.97281,-0.26897 0.80096,-0.27277 2.74505,0.0607 3.23066,0.55425 5.58022,0.6137 7.72601,0.1955 0.32825,-0.064 0.5733,-0.0829 0.60913,-0.0471 0.033,0.033 0.11092,0.25315 0.17323,0.4893 0.0876,0.33197 0.11447,0.72695 0.11848,1.74136 0.006,1.51313 0.0263,1.46292 -0.6752,1.66764 -1.95026,0.56912 -5.58219,1.20311 -8.11702,1.41689 -0.94295,0.0795 -5.47268,0.0745 -6.41614,-0.007 z"
       id="path65" /><path
       style="opacity:1;fill:#e0e0e0;fill-opacity:1;stroke:#957b7b;stroke-width:0.25;stroke-opacity:0"
       d="m -240.98939,259.63616 c -1.72739,-0.0672 -3.20518,-0.28996 -4.8288,-0.7278 -0.69287,-0.18685 -0.92589,-0.38287 -0.92589,-0.7789 0,-0.97052 0.65758,-2.79184 1.24835,-3.45754 l 0.24369,-0.27461 0.32885,0.16641 c 1.27059,0.64296 3.72053,1.18162 5.82757,1.28129 l 0.93466,0.0442 -0.22282,0.46975 c -0.38479,0.8112 -0.50767,1.44494 -0.47787,2.46459 l 0.0258,0.8825 -0.46492,-0.0111 c -0.2557,-0.006 -1.01558,-0.0326 -1.68861,-0.0588 z"
       id="path66" /><path
       style="opacity:1;fill:#e0e0e0;fill-opacity:1;stroke:#957b7b;stroke-width:0.25;stroke-opacity:0"
       d="m -218.79754,257.60593 c 0.047,-0.81953 -0.0371,-1.93128 -0.19104,-2.52476 -0.10863,-0.41879 -0.10989,-0.41765 0.83176,-0.75749 1.67761,-0.60545 3.25028,-1.47248 5.47784,-3.01997 l 0.4961,-0.34464 0.0877,0.35514 c 0.12571,0.5089 0.17758,2.50586 0.0826,3.17864 -0.10943,0.77475 -0.17753,0.94745 -0.47348,1.20078 -0.31104,0.26623 -2.21927,1.25076 -3.10332,1.60113 -0.6593,0.26129 -3.08406,1.08838 -3.19077,1.08838 -0.0376,0 -0.0444,-0.30616 -0.0174,-0.77721 z"
       id="path67" /><path
       style="opacity:1;fill:#e0e0e0;fill-opacity:1;stroke:#957b7b;stroke-width:0.25;stroke-opacity:0"
       d="m -211.33062,253.30642 c -0.005,-1.29442 -0.0357,-1.98176 -0.10282,-2.33161 -0.0919,-0.47932 -0.0902,-0.50616 0.0526,-0.79375 0.12533,-0.25239 0.24659,-0.35746 0.79734,-0.69093 0.90615,-0.54865 2.72911,-1.76618 3.3615,-2.24511 1.77387,-1.34339 3.26396,-3.06392 4.15973,-4.80302 0.88919,-1.72633 1.20859,-3.05876 1.33528,-5.5703 l 0.0458,-0.90702 0.38254,0.47924 c 0.94488,1.18369 1.89355,2.85697 2.2833,4.02728 0.21746,0.65299 0.19643,0.93656 -0.14199,1.91403 -0.61333,1.7715 -2.0015,4.19186 -3.41644,5.95675 -0.69788,0.87049 -2.79598,2.9705 -3.65897,3.66232 -0.81037,0.64962 -1.71689,1.28557 -2.62296,1.84006 -0.73306,0.44862 -2.30794,1.29766 -2.40692,1.2976 -0.0348,-1e-5 -0.0636,-0.77865 -0.068,-1.83554 z"
       id="path68" /><path
       style="opacity:1;fill:#e0e0e0;fill-opacity:1;stroke:#957b7b;stroke-width:0.25;stroke-opacity:0"
       d="m -198.78567,239.1586 c -0.65335,-1.42431 -1.32963,-2.46229 -2.37387,-3.64349 l -0.53923,-0.60995 2.3e-4,-1.40749 c 2.4e-4,-1.54051 0.0683,-2.49122 0.26901,-3.75567 1.00287,-6.31923 4.58249,-10.46481 10.50289,-12.16347 1.04665,-0.3003 2.70868,-0.63982 3.46087,-0.70699 0.49572,-0.0443 0.51177,-0.041 0.67752,0.13785 0.50989,0.55018 0.98835,2.21311 0.83441,2.90004 -0.18123,0.80869 -0.77679,1.26365 -2.78035,2.12397 -2.89903,1.24484 -4.38475,2.26121 -5.50335,3.76483 -1.34764,1.81148 -2.05258,3.80202 -3.05986,8.64012 -0.51977,2.49657 -1.07691,5.0353 -1.14603,5.22215 -0.0406,0.10972 -0.10504,0.0152 -0.34224,-0.5019 z"
       id="path69" /></g></svg>
