<?xml version="1.0" encoding="UTF-8" standalone="no"?>
<!-- Created with Inkscape (http://www.inkscape.org/) -->

<svg
   width="22.609499mm"
   height="18.645546mm"
   viewBox="0 0 22.609499 18.645546"
   version="1.1"
   id="svg1"
   xml:space="preserve"
   xmlns="http://www.w3.org/2000/svg"
   xmlns:svg="http://www.w3.org/2000/svg"><defs
     id="defs1" /><g
     id="g238"
     transform="translate(-114.01712,-4.1138221)"><path
       style="fill:#b6b6b6;fill-opacity:1;stroke:#00eaff;stroke-width:0.499999;stroke-opacity:0"
       d="m 114.45615,18.228142 0.37418,-0.222168 0.32741,-0.11693 0.53788,0.01169 0.5028,0.210476 0.22217,0.339098 0.57296,0.654809 0.58465,0.362485 0.80682,0.362484 0.78343,0.198782 0.93544,0.02339 0.53788,-0.198782 0.53788,-0.257246 -0.64311,0.572958 -1.14592,0.432641 -1.09915,0.07016 -1.1693,-0.210476 -1.26285,-0.619731 -0.6782,-0.608037 -0.56126,-0.795128 z"
       id="path238-0" /><path
       style="fill:#b6b6b6;fill-opacity:1;stroke:#00eaff;stroke-width:0.499999;stroke-opacity:0"
       d="m 123.56504,15.37504 0.3274,-0.140317 0.61973,0.09354 0.37418,0.210476 0.0234,0.175395 0.11693,0.315711 0.3391,0.502801 0.42095,0.374179 0.71327,0.420949 0.47941,0.163701 0.72497,0.02339 0.60804,-0.128622 -0.29232,0.280633 -0.47942,0.152008 -0.90036,0.05846 -0.86529,-0.233859 -0.81851,-0.385871 -0.79513,-0.643118 -0.47941,-0.865285 z"
       id="path236-2" /><path
       style="fill:#0bae00;fill-opacity:1;stroke:#00eaff;stroke-width:0.499999;stroke-opacity:0"
       d="m 136.13556,4.3763399 -1.66191,2.356445 -4.48898,1.072356 0.87457,5.1380331 0.47669,0.498822 0.91386,0.318784 -0.0992,0.305924 0.12402,0.256315 0.14056,0.181901 0.13229,0.124024 0.0579,0.107487 -0.23151,0.322461 -0.66973,0.545703 -0.69453,0.529167 -0.28939,0.206705 -0.24804,0.330729 -0.61182,-0.02418 -0.56249,-0.251633 0.16531,-1.258936 -0.14478,-1.864306 -1.80592,-3.8356461 -0.77786,0.35465 -0.9476,-0.05059 -0.91212,-0.568643 -0.86817,1.2071611 -0.37207,0.206706 v 0.322461 l 0.27281,0.51263 0.0744,0.330729 -0.22324,0.297656 -0.28433,0.234814 0.25949,1.228663 0.58078,0.961912 0.55947,0.373088 0.66221,0.269036 0.10749,0.396875 -0.0744,0.19017 -0.35553,0.07441 -0.24805,-0.08268 -1.52962,-0.338997 -0.74482,-1.114298 -0.44783,-1.111696 -0.18808,-1.337611 -0.33073,0.09922 -0.26449,1.000452 0.0724,0.509057 -0.25253,0.468133 -0.46645,0.151913 -0.75109,-0.244402 -0.85989,-1.124479 -0.58705,-0.264583 -0.37065,0.074 -0.0924,-0.09054 0.19844,-0.421679 0.091,-0.231511 0.1819,-0.157096 -0.11576,-0.214974 -0.39687,0.314193 -0.5575,0.299317 -0.65569,0.493742 -0.39086,1.001146 -0.5888,2.008702 0.14462,0.502352 0.32028,0.374558 0.43663,0.558114 0.30341,0.646869 0.004,0.547882 -0.1819,0.173633 -0.23152,0.04961 -0.51848,-0.194511 -0.43236,-0.144486 -0.57878,-0.04961 -0.50436,0.173633 -0.21497,0.132292 -0.10749,0.03307 0.23942,-1.045728 -0.0716,-0.219677 -0.15144,-0.164999 0.0909,-1.645378 0.90943,-3.059247 3.03349,-2.8207071 1.24982,-1.543616 1.25257,-0.232642 2.23759,-1.645257 3.19853,-1.265411 z"
       id="path234-1" /><path
       style="fill:#b6b6b6;fill-opacity:1;stroke:#00eaff;stroke-width:0.499999;stroke-opacity:0"
       d="m 131.0506,16.059347 0.008,-0.636653 0.0827,-0.578776 0.0909,-0.214974 0.31419,-0.231511 0.35554,-0.140559 0.27285,-0.01654 0.24805,0.322461 0.1819,0.413411 0.0413,0.264584 0.25631,0.570508 0.0992,0.545703 v 1.5875 l -0.26458,0.975651 -0.30593,0.859896 -0.5705,0.843359 -0.81856,0.818555 -0.94258,0.595312 -1.20716,0.413412 -0.9095,0.05788 -0.81856,-0.08268 -0.90123,-0.479557 -0.339,-0.231511 0.57877,0.198438 0.678,0.04961 1.14928,-0.148828 1.00873,-0.454753 0.78548,-0.719336 0.79375,-0.983919 0.29766,-0.901237 0.11575,-0.826823 -0.10749,-1.223698 z"
       id="path235-6" /><path
       style="fill:#b6b6b6;fill-opacity:1;stroke:#00eaff;stroke-width:0.499999;stroke-opacity:0"
       d="m 120.05712,13.749707 -0.5028,-0.701582 -0.36248,-0.456028 -0.61973,-0.245555 -0.31572,0.105238 -0.25724,1.192689 v 0.958829 l 0.0935,0.584652 0.32741,0.806821 0.24555,0.572957 0.29233,0.18709 0.0818,0.292327 0.24555,0.210474 0.52619,0.619731 0.49111,0.432644 0.26894,0.08185 0.45602,0.42095 1.0173,0.327403 1.35639,0.105238 0.86529,-0.222168 0.39756,-0.374176 -0.44433,0.152008 -0.90037,0.0117 -0.87698,-0.222168 -0.85359,-0.432644 -0.1637,-0.257247 -0.28064,-0.07016 -0.57295,-0.935445 -0.49111,-1.075758 -0.26894,-1.017297 0.19878,-0.841899 z"
       id="path237-8" /><path
       style="opacity:1;fill:#bfbf1a;fill-opacity:1;stroke:#00eaff;stroke-width:0.499999;stroke-opacity:0"
       d="m 114.57896,14.805046 1.079,-0.624251 -0.49609,-0.148828 0.79375,-1.719792 3.25768,-2.7615881 0.8599,-1.141016 1.52135,-0.56224 2.39779,-1.455208 2.29856,-1.190625 0.678,-0.363802 0.1819,-0.214974 -0.84336,-0.01654 -3.20807,1.289843 -2.19935,1.604037 -1.28984,0.28112 -1.14102,1.438671 -3.12539,2.8773441 z"
       id="path238" /><path
       style="opacity:1;fill:#bfbf1a;fill-opacity:1;stroke:#00eaff;stroke-width:0.499999;stroke-opacity:0"
       d="m 119.15542,10.716407 2.41433,0.03307 -1.11621,-0.636654 1.14101,-1.0583331 1.14102,-0.892969 1.17408,-0.876432 1.5875,-1.041797 1.30638,-0.876432 0.38034,-0.330729 -0.215,-0.219311 -0.61182,0.343334 -1.10794,0.735872 -0.99219,0.611849 -0.57878,0.28112 -0.69453,0.51263 -0.44648,0.611849 -0.61185,0.446485 -0.678,0.496093 -0.61184,0.545704 -0.52217,0.513894 -0.26332,-0.06741 z"
       id="path239" /><path
       style="display:inline;opacity:1;fill:#bfbf1a;fill-opacity:1;stroke:#00eaff;stroke-width:0.499999;stroke-opacity:0"
       d="m 122.98362,14.681023 0.31418,-0.876433 -0.401,0.252182 -0.36794,-0.983919 -0.0909,-0.56224 0.008,-0.781348 -0.40308,0.05787 0.19017,1.341519 0.46095,1.143083 z"
       id="path240" /><path
       style="opacity:1;fill:#bfbf1a;fill-opacity:1;stroke:#00eaff;stroke-width:0.499999;stroke-opacity:0"
       d="m 130.69787,13.048048 -0.95911,-0.454753 0.71106,-0.198438 -0.52089,-1.876888 -0.33073,-0.9260411 -0.57878,-1.281576 -0.94258,-1.686718 -1.02526,-1.521355 0.42995,-0.132291 1.05833,1.554427 0.89297,1.719791 0.5457,1.372526 0.66146,2.3812501 0.066,0.344147 0.0526,-0.01754 0.0935,0.532032 z"
       id="path241" /><path
       style="opacity:1;fill:#bfbf1a;fill-opacity:1;stroke:#00eaff;stroke-width:0.499999;stroke-opacity:0"
       d="m 127.01851,5.0940109 0.62012,0.14056 0.0827,0.150896 0.39687,-0.07648 -0.28112,-0.272851 0.17364,-0.297657 -0.19017,-0.157096 -1.10795,0.03307 z"
       id="path242" /><path
       style="opacity:1;fill:#bfbf1a;fill-opacity:1;stroke:#00eaff;stroke-width:0.499999;stroke-opacity:0"
       d="m 128.93674,5.7471999 -0.40514,-0.05788 -0.51056,-0.264582 0.22738,-0.07648 -0.28526,-0.316257 0.13023,-0.310059 -0.15917,-0.136428 1.49035,-0.03719 -0.41341,0.165364 0.46715,0.289388 -0.45062,0.272852 0.48783,0.223242 z"
       id="path243" /><path
       style="opacity:1;fill:#bfbf1a;fill-opacity:1;stroke:#00eaff;stroke-width:0.499999;stroke-opacity:0"
       d="m 131.23213,4.5019419 v 0.89452 l -0.98807,0.02339 -0.3391,0.327403 1.23947,-0.076 0.4151,-0.228013 0.21047,-0.257249 -0.13592,-0.244091 0.35225,-0.100851 -0.39757,-0.344946 z"
       id="path245" /><path
       style="opacity:1;fill:#bfbf1a;fill-opacity:1;stroke:#00eaff;stroke-width:0.499999;stroke-opacity:0"
       d="m 132.02725,4.9521259 -0.20755,0.04385 0.0848,0.160779 -0.21632,0.309865 -0.26309,0.175397 0.5408,0.06431 0.42972,-0.178321 0.0935,-0.06431 -0.38587,-0.359561 0.81266,-0.122777 0.17295,-0.233193 0.25752,0.07073 -0.17904,-0.183947 0.12132,-0.182704 -0.88622,0.0152 -0.2217,0.0038 -0.36979,0.01603 0.31279,0.268941 0.22217,0.122777 z"
       id="path246" /><path
       style="opacity:1;fill:#bfbf1a;fill-opacity:1;stroke:#00eaff;stroke-width:0.499999;stroke-opacity:0"
       d="m 132.86828,5.1270839 -0.45062,0.04547 0.19017,0.219109 0.1819,0.214974 0.35967,0.03721 0.56637,-0.181901 0.3266,-0.190169 0.21497,-0.248047 0.41755,-0.248047 0.66559,-0.214974 0.52503,-0.177766 -2.46806,0.05788 -0.15597,0.205532 0.24535,0.240997 -0.37876,-0.0621 -0.23978,0.301792 z"
       id="path247" /><path
       style="opacity:1;fill:#bfbf1a;fill-opacity:1;stroke:#00eaff;stroke-width:0.499999;stroke-opacity:0"
       d="m 129.10692,5.7618699 0.6285,-0.019 0.4414,-0.429717 0.95299,-0.04092 -0.0132,-0.776125 -1.50402,0.04092 -0.38587,0.175395 0.40633,0.283556 -0.41218,0.26017 0.43849,0.225092 z"
       id="path248" /></g></svg>
