<?xml version="1.0" encoding="UTF-8" standalone="no"?>
<!-- Created with Inkscape (http://www.inkscape.org/) -->

<svg
   width="15.534206mm"
   height="18.560719mm"
   viewBox="0 0 15.534206 18.560719"
   version="1.1"
   id="svg1"
   xml:space="preserve"
   xmlns="http://www.w3.org/2000/svg"
   xmlns:svg="http://www.w3.org/2000/svg"><defs
     id="defs1" /><g
     id="g339"
     transform="matrix(0.90453188,0,0,0.90453188,-135.9248,-157.20099)"><path
       style="fill:#0cb800;fill-opacity:1"
       d="m 155.9294,194.17703 c -0.31992,-0.16306 -0.54045,-0.37306 -0.79577,-0.75776 -0.59974,-0.90364 -1.49167,-3.21022 -1.77796,-4.59792 -0.22167,-1.07443 -0.25585,-1.65071 -0.19785,-3.33588 0.0766,-2.22467 0.0226,-3.15511 -0.22423,-3.86444 -0.14594,-0.41946 -0.2199,-0.52296 -0.98135,-1.3734 -0.19179,-0.2142 -0.42511,-0.49251 -0.5185,-0.61846 -0.34044,-0.45916 -0.69937,-1.16692 -0.903,-1.78064 -0.14955,-0.45074 -0.2028,-0.69546 -0.2465,-1.13292 -0.0596,-0.59616 0.0833,-1.32142 0.36739,-1.86492 0.1599,-0.30592 0.49517,-0.63202 0.80556,-0.78352 0.76638,-0.37405 1.67766,-0.36698 3.62202,0.0281 0.38431,0.0781 0.98108,0.1994 1.32617,0.26956 1.13126,0.23 1.53234,0.27909 2.29585,0.28103 0.77772,0.002 0.82283,-0.004 2.6833,-0.38399 1.8342,-0.37413 2.47031,-0.46426 3.27735,-0.46432 0.76291,-7e-5 1.25718,0.10379 1.70448,0.35815 0.60646,0.34487 0.96028,0.99809 1.06283,1.96218 0.0736,0.69151 -0.11817,1.58031 -0.52593,2.43815 -0.34329,0.72222 -0.56215,1.04468 -1.17381,1.72945 -0.48452,0.54244 -0.69462,0.79933 -0.78908,0.96476 -0.16714,0.29276 -0.29898,0.78603 -0.36968,1.38321 -0.0461,0.38934 -0.0464,2.06386 -5.6e-4,3.29405 0.0448,1.2037 -0.006,1.9076 -0.20961,2.89382 -0.28874,1.39953 -1.16715,3.66969 -1.77912,4.59792 -0.25275,0.38337 -0.47396,0.59432 -0.79462,0.75776 -0.14604,0.0744 -0.28259,0.13534 -0.30344,0.13534 -0.0925,0 -0.26571,-0.53711 -0.37247,-1.15506 -0.0847,-0.49033 -0.15508,-1.10574 -0.28535,-2.49548 -0.23351,-2.49119 -0.43355,-3.57119 -0.85632,-4.62312 -0.33313,-0.82892 -0.59928,-1.09022 -1.11111,-1.09087 -0.48182,-6.1e-4 -0.73967,0.23164 -1.05294,0.94842 -0.44797,1.02497 -0.67453,2.2056 -0.91449,4.76557 -0.13027,1.38974 -0.20064,2.00515 -0.28535,2.49548 -0.10676,0.61795 -0.27995,1.15506 -0.37246,1.15506 -0.0208,0 -0.15741,-0.0609 -0.30345,-0.13534 z"
       id="path318" /><path
       style="fill:#0baa00;fill-opacity:1;stroke-width:0.944155"
       d="m 156.1722,193.55488 c -0.30205,-0.15395 -0.51026,-0.35222 -0.75133,-0.71545 -0.56624,-0.85317 -1.40836,-3.03094 -1.67867,-4.34115 -0.20929,-1.01443 -0.24156,-1.55852 -0.1868,-3.14958 0.0723,-2.10044 0.0213,-2.97891 -0.21171,-3.64863 -0.13779,-0.39604 -0.20762,-0.49376 -0.92654,-1.2967 -0.18108,-0.20224 -0.40138,-0.46502 -0.48955,-0.58393 -0.32143,-0.43351 -0.66031,-1.10175 -0.85257,-1.6812 -0.1412,-0.42557 -0.19147,-0.65662 -0.23274,-1.06965 -0.0562,-0.56287 0.0787,-1.24762 0.34688,-1.76077 0.15097,-0.28883 0.46752,-0.59673 0.76057,-0.73977 0.72358,-0.35316 1.58397,-0.34649 3.41975,0.0266 0.36285,0.0737 0.9263,0.18827 1.25212,0.25451 1.06807,0.21716 1.44676,0.2635 2.16763,0.26533 0.73429,0.002 0.77688,-0.004 2.53345,-0.36254 1.73177,-0.35324 2.33236,-0.43834 3.09433,-0.43839 0.7203,-6e-5 1.18698,0.098 1.60929,0.33815 0.57259,0.32561 0.90666,0.94235 1.00348,1.8526 0.0694,0.65289 -0.11157,1.49206 -0.49656,2.30199 -0.32412,0.6819 -0.53076,0.98635 -1.10826,1.63287 -0.45746,0.51215 -0.65583,0.7547 -0.74501,0.91089 -0.15781,0.27641 -0.28228,0.74213 -0.34904,1.30596 -0.0435,0.36759 -0.0438,1.94861 -5.2e-4,3.1101 0.0423,1.13647 -0.006,1.80106 -0.19791,2.73221 -0.27261,1.32137 -1.10197,3.46476 -1.67977,4.34115 -0.23863,0.36196 -0.44749,0.56113 -0.75024,0.71544 -0.13788,0.0703 -0.26681,0.12778 -0.2865,0.12778 -0.0873,0 -0.25087,-0.50711 -0.35166,-1.09055 -0.08,-0.46295 -0.14642,-1.04399 -0.26942,-2.35612 -0.22047,-2.35207 -0.40934,-3.37175 -0.8085,-4.36494 -0.31453,-0.78263 -0.56581,-1.02934 -1.04906,-1.02995 -0.45491,-5.8e-4 -0.69836,0.2187 -0.99414,0.89545 -0.42295,0.96773 -0.63686,2.08243 -0.86342,4.49944 -0.12299,1.31213 -0.18943,1.89317 -0.26941,2.35612 -0.10079,0.58344 -0.26432,1.09055 -0.35166,1.09055 -0.0197,0 -0.14862,-0.0575 -0.28651,-0.12778 z"
       id="path318-0" /><path
       style="opacity:1;fill:#ffff00;fill-opacity:1;stroke-width:0.541423"
       d="m 156.73506,189.86945 0.4305,-3.69725 1.08891,-2.05121 0.75971,-0.83567 0.55712,0.78503 0.83568,1.64603 0.50647,1.89927 0.25324,1.92459 0.25324,-2.00056 -0.37986,-2.60834 -1.94992,-4.35565 -2.40574,4.78616 -0.35453,2.53236 z"
       id="path319" /><path
       style="opacity:1;fill:#ffff00;fill-opacity:1;stroke-width:0.499999"
       d="m 155.93799,186.50421 0.37418,-2.03459 2.73617,-5.23848 2.43215,5.35541 0.37418,1.82411 0.25725,-2.29183 -3.08696,-6.87551 -3.32083,6.96905 z"
       id="path325" /><path
       style="opacity:1;fill:none;fill-opacity:1;stroke:#ffff00;stroke-width:0.499999;stroke-opacity:1"
       d="m 155.44688,182.92614 2.89988,-5.70621 -5.2151,-0.63142 z"
       id="path326" /><path
       style="fill:none;fill-opacity:1;stroke:#ffff00;stroke-width:0.265458;stroke-opacity:1"
       d="m 155.54763,180.93498 1.53959,-3.02953 -2.76879,-0.33524 z"
       id="path326-4" /><path
       style="fill:none;fill-opacity:1;stroke:#ffff00;stroke-width:0.499999;stroke-opacity:1"
       d="m 162.43616,182.86143 -2.89988,-5.70621 5.2151,-0.63142 z"
       id="path326-5" /><path
       style="fill:none;fill-opacity:1;stroke:#ffff00;stroke-width:0.265458;stroke-opacity:1"
       d="m 162.35195,180.78759 -1.5396,-3.02953 2.76879,-0.33524 z"
       id="path326-4-6" /><path
       style="opacity:1;fill:#ffff00;fill-opacity:1;stroke:none;stroke-width:0.499999;stroke-opacity:1"
       d="m 154.23081,182.10762 v 5.70621 l 1.8475,4.93446 0.37418,-2.1749 -0.70159,-2.64263 -0.56126,-3.62484 z"
       id="path330" /><path
       style="fill:#ffff00;fill-opacity:1;stroke:none;stroke-width:0.499999;stroke-opacity:1"
       d="m 163.55356,181.94692 -1e-5,5.70621 -1.8475,4.93446 -0.37417,-2.1749 0.70158,-2.64263 0.56126,-3.62484 z"
       id="path330-8" /><path
       style="opacity:1;fill:#ffff00;fill-opacity:1;stroke:none;stroke-width:0.499999;stroke-opacity:1"
       d="m 153.8998,180.7974 -1.65364,-4.3987 -0.95912,-0.11576 0.26459,1.96784 z"
       id="path335" /><path
       style="fill:#ffff00;fill-opacity:1;stroke:none;stroke-width:0.499999;stroke-opacity:1"
       d="m 163.9071,180.57315 1.65364,-4.3987 0.95912,-0.11576 -0.26458,1.96784 z"
       id="path335-2" /><path
       style="opacity:1;fill:none;fill-opacity:1;stroke:#ffff00;stroke-width:0.2;stroke-dasharray:none;stroke-opacity:1"
       d="m 157.27324,176.47311 1.69499,0.20671 1.64537,-0.24805 -1.59576,-1.07487 z"
       id="path336" /><path
       style="opacity:1;fill:none;fill-opacity:1;stroke:#ffff00;stroke-width:0.2;stroke-dasharray:none;stroke-opacity:1"
       d="m 158.25716,176.26228 0.71107,0.091 0.71933,-0.0951 -0.68213,-0.47542 z"
       id="path337" /><path
       style="opacity:1;fill:none;fill-opacity:1;stroke:#ffff00;stroke-width:0.2;stroke-dasharray:none;stroke-opacity:1"
       d="m 159.92734,175.21634 1.62057,1.13275 3.43132,-0.40514 -1.29811,-1.36426 z"
       id="path338" /><path
       style="fill:none;fill-opacity:1;stroke:#ffff00;stroke-width:0.2;stroke-dasharray:none;stroke-opacity:1"
       d="m 158.12579,175.30729 -1.62057,1.13275 -3.43131,-0.40514 1.29811,-1.36426 z"
       id="path338-4" /><path
       style="opacity:1;fill:none;fill-opacity:1;stroke:#ffff00;stroke-width:0.2;stroke-dasharray:none;stroke-opacity:1"
       d="m 151.56244,175.921 2.18056,-1.32645 -1.40062,1.421 z"
       id="path339" /><path
       style="fill:none;fill-opacity:1;stroke:#ffff00;stroke-width:0.2;stroke-dasharray:none;stroke-opacity:1"
       d="m 166.3669,175.76006 -2.18056,-1.32645 1.40063,1.421 z"
       id="path339-6" /></g></svg>
