<?xml version="1.0" encoding="UTF-8" standalone="no"?>
<!-- Created with Inkscape (http://www.inkscape.org/) -->

<svg
   width="10.57052mm"
   height="20.54067mm"
   viewBox="0 0 10.57052 20.54067"
   version="1.1"
   id="svg1"
   xml:space="preserve"
   xmlns="http://www.w3.org/2000/svg"
   xmlns:svg="http://www.w3.org/2000/svg"><defs
     id="defs1" /><g
     id="g334"
     transform="translate(-194.86945,-165.95311)"><path
       style="display:inline;opacity:1;fill:#1454d0;fill-opacity:1;stroke-width:0.499999"
       d="m 199.52328,186.49378 -1.70718,-2.5257 -1.09914,-2.36199 -0.58466,-2.38538 v -1.98782 l -0.72497,-2.66601 -0.53788,-2.45554 0.42095,-3.06358 1.42656,-1.19269 0.79512,-1.30962 0.91206,-0.44433 2.57247,-0.14032 0.79512,0.77174 0.65482,0.23386 1.4967,0.11693 0.93545,0.63143 0.56127,1.14591 -0.28064,2.5257 -0.65481,2.05798 -0.8419,1.77734 -0.28063,0.70158 -0.0702,1.0056 -0.58465,1.89427 -0.86529,1.75396 -0.86528,1.30962 -0.95883,1.82412 -0.60804,0.21047 0.91206,-3.88209 -0.14032,-0.88867 -0.56127,-0.21048 -0.63142,0.58466 -0.0702,1.59025 0.14032,1.16931 0.23386,1.98781 0.4911,1.3564 z"
       id="path322" /><path
       style="display:inline;opacity:1;fill:#1658e1;fill-opacity:1;stroke-width:0.499999"
       d="m 195.37046,169.15699 0.71107,1.68672 0.52917,1.09141 1.47174,0.9095 1.02526,0.39688 0.64492,-0.16537 0.71107,0.59531 0.50661,0.20554 0.3771,0.0439 0.42387,-0.0965 0.79255,-0.33483 0.68626,-0.50436 0.66973,-0.73587 0.34727,-0.93431 0.0165,-0.30593 0.35553,-0.17363 0.32246,-0.86816 0.1819,-1.10795 -0.11575,-0.85989 -0.1447,-0.30179 -0.94671,-0.62839 -1.49655,-0.0909 -0.66559,-0.24391 -0.78962,-0.78135 -2.58382,0.14056 -0.9095,0.45062 -0.78962,1.30638 -1.40973,1.19476 z"
       id="path323" /><path
       style="opacity:0.119287;fill:none;fill-opacity:1;stroke:#000000;stroke-width:0.5;stroke-dasharray:none;stroke-opacity:1"
       d="m 201.61295,170.06656 0.091,-0.0827 -0.0992,-0.10748 -0.19844,0.0909 0.008,0.23978 0.44648,0.1819 0.30593,-0.38034 -0.23151,-0.38034 -0.38861,-0.51263 -0.81029,-0.33073 -1.24023,0.14883 -1.05007,0.7028 0.19017,1.69499 1.13275,1.67844 0.15169,0.34082 1.39147,1.62533 1.19269,2.37369 0.0702,1.5201 -0.3274,0.94713 -0.99391,1.67211 -0.98222,1.6838 -0.8302,0.73666"
       id="path324" /><path
       style="opacity:0.119287;fill:none;fill-opacity:1;stroke:#000000;stroke-width:0.5;stroke-dasharray:none;stroke-opacity:1"
       d="m 201.6378,170.07478 h -0.0496 l -0.0248,0.0579 0.0413,0.10749 0.19017,-0.0662 v -0.17363 l -0.24805,-0.20671 -0.339,0.0827 -0.30592,0.3886 -0.008,0.5209 0.41341,0.68626 0.91777,0.27286 1.16582,-0.16537 0.87644,-0.57051 0.65839,-0.032 0.24556,0.3391"
       id="path327" /><path
       style="opacity:0.119287;fill:none;fill-opacity:1;stroke:#000000;stroke-width:0.5;stroke-dasharray:none;stroke-opacity:1"
       d="m 202.42326,167.04032 0.89297,0.53744 0.74414,0.84336 0.23978,0.90123 -0.35553,0.66973 -0.98392,0.40514 -0.92605,0.0744 -0.52089,-0.32246 0.0744,-0.33073 0.14882,0.13229 -0.0744,0.14883 -0.008,-0.0661"
       id="path328" /><path
       style="opacity:0.119287;fill:none;fill-opacity:1;stroke:#000000;stroke-width:0.5;stroke-dasharray:none;stroke-opacity:1"
       d="m 196.72787,167.81754 1.50482,-0.81029 1.54616,-0.0744 2.24895,1.07487 0.62839,0.86816 0.0165,0.7028 -0.27285,0.7028 -0.63665,0.16536 -0.35554,-0.21497 0.008,-0.28112 0.28112,0.0827 -0.0248,0.16537"
       id="path329" /><path
       style="opacity:0.119287;fill:none;fill-opacity:1;stroke:#000000;stroke-width:0.499999;stroke-dasharray:none;stroke-opacity:1"
       d="m 195.48622,174.25022 0.97565,2.24895 1.12448,1.37253 1.0914,1.0418 0.38034,0.77721"
       id="path331" /><path
       style="opacity:0.119287;fill:#2062eb;fill-opacity:1;stroke:#000000;stroke-width:0.499999;stroke-dasharray:none;stroke-opacity:1"
       d="m 196.51817,180.86942 0.88868,1.3447 1.08745,1.0173 0.79513,0.88867"
       id="path332" /><path
       style="opacity:0.119287;fill:#2062eb;fill-opacity:1;stroke:#000000;stroke-width:0.499999;stroke-dasharray:none;stroke-opacity:1"
       d="m 198.33059,184.75152 1.30962,0.84189 0.15202,0.0468"
       id="path333" /><path
       style="opacity:0.119287;fill:#2062eb;fill-opacity:1;stroke:#000000;stroke-width:0.499999;stroke-dasharray:none;stroke-opacity:1"
       d="m 199.53765,173.12574 0.22324,-0.062 0.7028,0.62011 0.10749,0.0579 -1.68672,-2.50114 -0.1695,-1.47588 0.8723,-0.59531 1.12448,-0.12816 0.69866,0.27286 -0.0124,0.26871 -0.33486,0.0744 -0.40101,0.51263 -0.0124,0.68626 0.48369,0.84336 1.07074,0.31006 1.28984,-0.19844 0.78962,-0.51263 0.004,-0.28112 0.35967,-0.17777 0.0289,-0.10748 -0.47956,0.0331 -0.8847,0.57878 -1.07074,0.13642 -0.77721,-0.23564 -0.30179,-0.52503 -0.0124,-0.34727 0.57051,0.33486 0.1819,-0.0289 0.0579,0.0496 1.079,-0.0827 1.09554,-0.45062 0.43698,-0.85164 -0.28064,-1.04945 -0.8112,-0.90914 -0.6402,-0.38879 -0.36687,-0.0278 -0.58903,-0.20024 0.41955,0.48354 0.85989,0.52504 0.67387,0.79375 0.19843,0.71933 -0.24804,0.52917 -0.98392,0.3514 -0.0868,0.0124 0.2067,-0.59118 -0.0165,-0.80615 -0.69453,-0.95912 -2.36884,-1.14102 -1.67432,0.0827 -1.19889,0.64492 -0.25632,0.42168 -0.40927,0.36793 0.53329,-0.15709 1.46762,-0.78135 1.42626,-0.0661 2.14148,1.00872 0.52916,0.75241 c 0,0 0.0248,0.59117 0.0248,0.61185 0,0.0207 -0.0992,0.23564 -0.0992,0.23564 l -0.62011,-0.88057 -0.93801,-0.39075 -1.38123,0.15924 -1.20716,0.8351 0.22737,1.93476 z"
       id="path334" /></g></svg>
