<?xml version="1.0" encoding="UTF-8" standalone="no"?>
<!-- Created with Inkscape (http://www.inkscape.org/) -->

<svg
   width="19.754717mm"
   height="22.816702mm"
   viewBox="0 0 19.754717 22.816702"
   version="1.1"
   id="svg1"
   xml:space="preserve"
   xmlns="http://www.w3.org/2000/svg"
   xmlns:svg="http://www.w3.org/2000/svg"><defs
     id="defs1" /><g
     id="g2"
     transform="matrix(0.3025341,0,0,0.3025341,-79.548716,-56.119283)"><path
       style="fill:#0033ff;fill-opacity:1"
       d="m 296.24994,260.71872 c -0.17138,-0.0238 -0.91922,-0.13324 -1.66187,-0.24323 -0.74265,-0.10998 -1.95568,-0.27772 -2.69562,-0.37276 -3.82516,-0.49131 -8.02014,-2.03446 -11.84578,-4.35755 -1.92594,-1.16951 -3.35616,-2.30913 -6.03826,-4.81137 -1.74909,-1.63181 -2.80378,-2.76708 -3.83001,-4.12265 -0.38924,-0.51415 -0.82,-1.07047 -0.95726,-1.23628 -0.63268,-0.76428 -2.40984,-3.98501 -3.34763,-6.06689 -1.34913,-2.99501 -1.57036,-3.72005 -1.97087,-6.45923 -0.37477,-2.56307 -0.47489,-4.29078 -0.46947,-8.10164 0.01,-6.84331 0.57204,-10.57674 2.30748,-15.3204 0.35,-0.95668 2.11173,-4.41916 2.86566,-5.63211 2.47048,-3.97463 7.26519,-9.30759 9.31684,-10.36276 0.26023,-0.13384 0.85757,-0.54869 1.32741,-0.92188 0.99255,-0.78838 2.12501,-1.48629 3.63804,-2.24202 2.84945,-1.42325 5.21359,-2.14339 10.65384,-3.24527 3.85848,-0.7815 3.92461,-0.79212 5.66771,-0.90945 0.88547,-0.0596 1.97268,-0.16365 2.41602,-0.23122 0.62743,-0.0956 1.21441,-0.094 2.64861,0.008 2.22075,0.1571 5.15249,0.47662 6.36076,0.69322 1.27213,0.22805 5.83232,1.43596 7.08568,1.87686 2.76806,0.97375 5.65381,2.69948 6.16409,3.68625 0.22356,0.43232 0.18443,0.66413 -0.2038,1.20719 -0.19408,0.27149 -0.61994,0.98439 -0.94635,1.58422 -0.32641,0.59983 -1.01925,1.74494 -1.53963,2.54468 -0.52039,0.79974 -1.12742,1.87476 -1.34896,2.38894 -0.22155,0.51418 -0.80094,1.7762 -1.28755,2.80448 -1.3619,2.87793 -1.78702,3.8714 -2.06446,4.82453 -0.1405,0.48267 -0.36533,1.18377 -0.49961,1.55801 -0.27932,0.77846 -0.51793,2.01192 -0.463,2.39348 0.0334,0.23179 0.11891,0.27596 0.81627,0.42155 0.90283,0.18849 1.14159,0.30411 2.54148,1.2308 1.13001,0.74804 2.2364,1.75512 2.2364,2.03565 0,0.33481 0.74439,1.5937 1.31556,2.22487 l 1.12142,1.25114 c 0.36203,0.34011 1.06482,1.82814 1.30269,2.75821 0.23507,0.91909 0.20186,0.85357 0.84973,1.6769 0.70647,0.89782 0.86923,1.33713 1.11003,2.99617 0.11618,0.80045 0.30266,1.8521 0.4144,2.33701 0.4326,1.87727 0.47122,2.387 0.33731,4.45289 -0.19088,2.94498 -0.31214,4.0461 -0.5334,4.8433 -0.11118,0.4006 -0.29927,1.37445 -0.41797,2.16413 -0.336,2.23525 -1.28353,4.67404 -2.51657,6.47721 -0.32066,0.46892 -0.84666,1.31025 -1.1689,1.86961 -0.99119,1.72056 -2.1844,3.11705 -3.58014,4.19005 -0.42845,0.32938 -1.12955,0.95666 -1.558,1.39396 -0.96212,0.98196 -1.74289,1.56631 -3.47794,2.603 -1.73414,1.03613 -2.92198,1.5339 -5.29882,2.22046 -0.57127,0.16502 -1.36586,0.4159 -1.76575,0.55752 -2.03654,0.72123 -5.92628,1.33501 -8.72483,1.37674 -1.08541,0.0162 -2.1137,0.01 -2.28508,-0.0138 z"
       id="path1" /><path
       style="display:inline;opacity:1;fill:#0033ff;fill-opacity:1;stroke:#17179a;stroke-width:1;stroke-opacity:1"
       d="m 300.21912,227.07803 c 0,0 1.75198,-0.5138 2.57968,-0.26458 1.06508,0.32068 2.38125,1.85208 2.57969,2.11666 0.19843,0.26459 0.14332,1.87582 -0.0662,2.77813 -0.28555,1.23004 -0.63394,2.61177 -1.5875,3.43958 -0.52149,0.45272 -1.29749,0.52391 -1.98437,0.59531 -1.56262,0.16243 -3.36167,0.43182 -4.69636,-0.39687 -0.94126,-0.58442 -1.47815,-1.76302 -1.71979,-2.84427 -0.32394,-1.44954 0.0529,-3.00423 0.46302,-4.43177 0.3322,-1.15624 0.65847,-2.47686 1.5875,-3.24115 1.25147,-1.02954 3.08125,-1.12424 4.69635,-1.25677 1.12609,-0.0924 2.32544,-0.0915 3.37344,0.33073 0.99014,0.39893 1.89588,1.11374 2.51354,1.98437 0.82305,1.16014 1.2261,2.62183 1.38907,4.0349 0.22344,1.93756 0.1612,4.02313 -0.59532,5.82083 -0.46756,1.11107 -1.32371,2.09239 -2.3151,2.77813 -1.38207,0.95596 -4.36563,1.65364 -4.7625,1.65364 -0.39688,0 -3.28542,-0.63661 -4.82865,-1.25677 -1.59366,-0.64043 -3.50197,-1.11426 -4.49791,-2.51354 -1.16873,-1.64203 -0.98319,-3.93904 -1.05834,-5.95312 -0.0488,-1.30667 0.0793,-2.63418 0.39688,-3.90261 0.45148,-1.80323 0.80441,-3.84276 2.11667,-5.15937 1.66783,-1.67338 4.19785,-2.47399 6.54843,-2.71198 1.9661,-0.19906 3.94136,0.51395 5.82084,1.12448 1.78244,0.579 3.77184,1.05222 5.09322,2.38125 1.30075,1.30826 1.74914,3.27119 2.31511,5.02708 0.49614,1.53925 0.93374,3.14529 0.92604,4.7625 -0.01,2.09285 -0.30852,4.28583 -1.25677,6.15156 -0.60816,1.19658 -1.6762,2.12286 -2.71198,2.97657 -1.37437,1.13277 -2.89167,2.16561 -4.56406,2.77812 -1.73936,0.63704 -3.64033,0.76232 -5.49011,0.8599 -1.76364,0.093 -3.56336,0.0988 -5.29166,-0.26459 -1.75517,-0.36904 -3.40578,-1.15131 -5.02709,-1.91823 -1.28552,-0.60808 -2.79092,-1.02655 -3.70416,-2.11666 -1.26295,-1.50755 -1.40286,-3.67754 -1.98438,-5.55625 -0.51235,-1.65527 -1.2207,-3.29736 -1.32291,-5.02709 -0.14053,-2.37812 0.36136,-4.78037 0.99218,-7.0776 0.46843,-1.70584 0.94699,-3.51222 2.05052,-4.89479 1.41985,-1.77887 3.53581,-2.92083 5.55625,-3.96875 2.07369,-1.07553 4.34165,-1.77593 6.61459,-2.31511 1.66577,-0.39514 3.38216,-0.71805 5.09323,-0.66145 2.04418,0.0676 4.07958,0.54189 6.01927,1.19062 1.39347,0.46604 2.50011,1.87276 3.96875,1.91823 0.52384,0.0162 1.08156,-0.22781 1.45521,-0.59531 0.47886,-0.47099 0.79375,-1.85209 0.79375,-1.85209 l -0.19844,-0.99218 2.18281,-6.01927 2.84427,-5.75469 2.57969,-4.29948 1.05833,-1.78594 -1.5875,-1.98437 -2.05052,-0.99219 -10.18645,-2.91042 -7.47448,-0.85989 -8.33438,1.19062 -7.54062,1.65365 -3.175,1.12448 -4.96094,2.91041 -3.175,2.4474 -4.69636,5.6224 -3.57187,4.6302 -2.64583,7.01146 -1.12448,7.2099 -0.19844,8.79739 0.85989,7.34219 3.43959,7.60677 5.02708,6.15157 7.2099,6.2177 5.88698,2.64583 7.80521,1.78594 9.06197,0.0661 8.99584,-2.57969 6.94531,-4.36563 4.43177,-5.09322 2.38125,-4.43177 0.92604,-2.77813 0.99219,-4.69635 0.33073,-5.02708 -1.32292,-7.01146 -1.32292,-2.31511 -1.25677,-2.97656 -2.3151,-2.64583 -0.39688,-1.65365 -4.23333,-2.84427 -1.19062,-0.39688"
       id="path2" /><path
       style="display:inline;opacity:1;fill:#0033ff;fill-opacity:1;stroke:#17179a;stroke-width:1;stroke-opacity:1"
       d="m 311.11131,212.96602 0.88867,-4.30304 2.38538,-8.41899 3.50791,-7.85773 3.13373,-2.24506"
       id="path3" /><path
       style="display:inline;opacity:1;fill:#0033ff;fill-opacity:1;stroke:#17179a;stroke-width:1;stroke-opacity:1"
       d="m 306.20023,211.00159 -0.65481,-4.02241 0.74835,-7.10937 1.63703,-8.79317 3.13374,-3.97563"
       id="path4" /><path
       style="opacity:1;fill:#0033ff;fill-opacity:1;stroke:#17179a;stroke-width:1;stroke-opacity:1"
       d="m 302.73265,210.67386 -2.71198,-4.36562 -0.59531,-7.9375 1.19063,-9.525 1.52135,-2.77813"
       id="path5" /><path
       style="opacity:1;fill:#0033ff;fill-opacity:1;stroke:#17179a;stroke-width:1;stroke-opacity:1"
       d="m 296.58109,211.99678 -2.11667,-3.24115 -1.65364,-3.04271 -0.92604,-7.34218 0.7276,-6.21771 1.5875,-4.43177"
       id="path6" /><path
       style="opacity:1;fill:#0033ff;fill-opacity:1;stroke:#17179a;stroke-width:1;stroke-opacity:1"
       d="m 300.15297,211.13688 -2.84428,-3.37343 -0.33072,-5.68855 0.39687,-4.49791 -0.8599,-4.43177"
       id="path7" /><path
       style="opacity:1;fill:#0033ff;fill-opacity:1;stroke:#17179a;stroke-width:1;stroke-opacity:1"
       d="m 298.10244,187.0598 -1.25677,2.18281 -0.19843,1.5875"
       id="path8" /><path
       style="opacity:1;fill:#0033ff;fill-opacity:1;stroke:#17179a;stroke-width:1;stroke-opacity:1"
       d="m 303.72484,208.22647 -0.66146,-1.65365 0.46302,-3.70417"
       id="path9" /><path
       style="opacity:1;fill:#0033ff;fill-opacity:1;stroke:#17179a;stroke-width:1;stroke-opacity:1"
       d="m 306.30453,186.72907 -1.71979,2.4474 -0.39688,2.11666 0.59531,2.84427"
       id="path10" /><path
       style="opacity:1;fill:#0033ff;fill-opacity:1;stroke:#17179a;stroke-width:1;stroke-opacity:1"
       d="m 309.14687,211.65639 0.60804,-3.88208 1.16931,-4.16273 c 0,0 0.98221,-1.73057 1.07576,-1.96443 0.0935,-0.23386 1.07576,-5.00462 1.07576,-5.00462"
       id="path11" /><path
       style="opacity:1;fill:#0033ff;fill-opacity:1;stroke:#17179a;stroke-width:1;stroke-opacity:1"
       d="m 315.27403,188.59772 -1.35639,2.57247 -0.37418,1.77734 -0.0935,1.73057"
       id="path12" /><path
       style="opacity:1;fill:#0033ff;fill-opacity:1;stroke:#17179a;stroke-width:1;stroke-opacity:1"
       d="m 289.08162,188.78481 -0.46773,3.1805 0.0468,3.74178 0.93545,5.19171 0.56126,3.50791 0.5145,3.22728 1.96443,1.91766"
       id="path13" /><path
       style="opacity:1;fill:#0033ff;fill-opacity:1;stroke:#17179a;stroke-width:1;stroke-opacity:1"
       d="m 293.19757,213.15311 -3.46114,-1.26285 -2.1983,-2.89988 -1.87088,-3.08696 -0.60804,-4.16272 -0.74835,-5.8933 0.0468,-3.46114 1.30962,-2.99342"
       id="path14" /><path
       style="opacity:1;fill:#0033ff;fill-opacity:1;stroke:#17179a;stroke-width:1;stroke-opacity:1"
       d="m 282.06579,191.07664 -0.93544,4.30304 0.28063,1.63703"
       id="path15" /><path
       style="opacity:1;fill:#0033ff;fill-opacity:1;stroke:#17179a;stroke-width:1;stroke-opacity:1"
       d="m 281.92548,198.65373 0.84189,3.32083 0.23386,2.66601 0.42095,2.43215 1.16931,1.91766 1.1693,1.6838 0.74836,0.8419"
       id="path25" /><path
       style="opacity:1;fill:#0033ff;fill-opacity:1;stroke:#17179a;stroke-width:1;stroke-opacity:1"
       d="m 290.1106,214.46272 -1.1693,-0.84189 -1.30962,-1.44994"
       id="path26" /><path
       style="opacity:1;fill:#0033ff;fill-opacity:1;stroke:#17179a;stroke-width:1;stroke-opacity:1"
       d="m 288.33326,215.63203 -3.22728,-1.96443 -2.75956,-3.08696 -1.91766,-3.55469 -1.26284,-5.51911 c 0,0 -0.70159,-3.64823 -0.74836,-3.83532 -0.0468,-0.18709 0,-3.64823 0,-3.64823"
       id="path27" /><path
       style="opacity:1;fill:#0033ff;fill-opacity:1;stroke:#17179a;stroke-width:1;stroke-opacity:1"
       d="m 285.2463,219.13994 -2.89988,-0.60804 -3.04019,-2.19829 -3.46114,-3.88209 -2.66601,-3.08696 -0.93544,-4.11595 -1.21608,-4.16272"
       id="path28" /><path
       style="opacity:1;fill:#0033ff;fill-opacity:1;stroke:#17179a;stroke-width:1;stroke-opacity:1"
       d="m 275.56446,196.08126 -0.0468,2.75956 v 2.47893 l 0.37418,1.35639 0.37418,1.40317"
       id="path29" /><path
       style="opacity:1;fill:#0033ff;fill-opacity:1;stroke:#17179a;stroke-width:1;stroke-opacity:1"
       d="m 277.0144,206.04374 0.74835,2.38538 0.51449,1.12253"
       id="path30" /><path
       style="opacity:1;fill:#0033ff;fill-opacity:1;stroke:#17179a;stroke-width:1;stroke-opacity:1"
       d="m 278.97883,211.04836 0.79513,0.8419"
       id="path31" /><path
       style="opacity:1;fill:#0033ff;fill-opacity:1;stroke:#17179a;stroke-width:1;stroke-opacity:1"
       d="m 268.08091,205.71633 0.93545,2.89988 1.02899,1.73056"
       id="path32" /><path
       style="opacity:1;fill:#0033ff;fill-opacity:1;stroke:#17179a;stroke-width:1;stroke-opacity:1"
       d="m 270.7937,211.70317 c 0.18709,0 0.93544,1.49671 0.93544,1.49671 l 1.21608,1.26284"
       id="path33" /><path
       style="opacity:1;fill:#0033ff;fill-opacity:1;stroke:#17179a;stroke-width:1;stroke-opacity:1"
       d="m 274.44193,215.63203 2.99342,2.57247 2.10474,0.98221 1.96444,0.93545 1.26284,0.18709"
       id="path34" /><path
       style="opacity:1;fill:#0033ff;fill-opacity:1;stroke:#17179a;stroke-width:1;stroke-opacity:1"
       d="m 265.32136,212.45152 3.55468,4.02241 3.83532,3.36759 3.22728,1.91766 3.78854,1.49671 3.74178,1.07576"
       id="path35" /><path
       style="opacity:1;fill:#0033ff;fill-opacity:1;stroke:#17179a;stroke-width:1;stroke-opacity:1"
       d="m 264.47946,217.59646 1.73057,2.15152 2.8531,2.33861 c 0,0 3.55468,1.44994 3.78854,1.59025 0.23386,0.14032 3.55469,1.44994 3.55469,1.44994 l 3.3676,1.12253"
       id="path36" /><path
       style="opacity:1;fill:#0033ff;fill-opacity:1;stroke:#17179a;stroke-width:1;stroke-opacity:1"
       d="m 263.82464,221.57209 2.80634,3.32083 3.36759,2.38538 c 0,0 4.63045,0.93544 4.95785,1.02899 0.32741,0.0935 4.77076,1.12253 4.77076,1.12253 l 2.57247,0.0935"
       id="path37" /><path
       style="opacity:1;fill:#0033ff;fill-opacity:1;stroke:#17179a;stroke-width:1;stroke-opacity:1"
       d="m 264.24559,228.16697 5.70621,2.24507 c 0,0 4.20949,0.37417 4.39658,0.37417 0.18709,0 3.64823,0.65481 3.64823,0.65481"
       id="path54" /><path
       style="opacity:1;fill:#0033ff;fill-opacity:1;stroke:#17179a;stroke-width:1;stroke-opacity:1"
       d="m 279.68041,231.39425 1.82412,-0.18709"
       id="path55" /><path
       style="opacity:1;fill:#0033ff;fill-opacity:1;stroke:#17179a;stroke-width:1;stroke-opacity:1"
       d="m 264.19882,232.18938 4.58367,1.63702 c 0,0 5.70621,1.16931 6.03362,1.26285 0.3274,0.0935 3.32082,0.32741 3.88208,0.32741 0.56127,0 2.94665,-0.28064 2.94665,-0.28064 l 1.6838,-0.65481 0.46772,-0.46772"
       id="path56" /><path
       style="opacity:1;fill:#0033ff;fill-opacity:1;stroke:#17179a;stroke-width:1;stroke-opacity:1"
       d="m 265.4149,237.38109 4.63045,0.65481 c 0,0 3.69499,0.42095 4.0224,0.42095 0.32741,0 5.14494,-0.14032 5.3788,-0.14032 0.23386,0 1.91766,-0.65481 1.91766,-0.65481"
       id="path70" /><path
       style="opacity:1;fill:#0033ff;fill-opacity:1;stroke:#17179a;stroke-width:1;stroke-opacity:1"
       d="m 282.86092,237.10046 0.56126,-0.46773"
       id="path71" /><path
       style="opacity:1;fill:#0033ff;fill-opacity:1;stroke:#17179a;stroke-width:1;stroke-opacity:1"
       d="m 267.28579,241.91799 6.31424,0.8419 4.8643,0.14031 4.2095,-1.26285 2.52569,-2.71278"
       id="path72" /><path
       style="opacity:1;fill:#0033ff;fill-opacity:1;stroke:#17179a;stroke-width:1;stroke-opacity:1"
       d="m 271.16788,247.48388 4.16272,-0.18709 5.79975,-1.54349 3.08696,-1.96443 1.63703,-2.47892"
       id="path73" /><path
       style="opacity:1;fill:#0033ff;fill-opacity:1;stroke:#17179a;stroke-width:1;stroke-opacity:1"
       d="m 274.4887,251.17888 c 0.18709,0.0468 3.27405,0.0468 3.27405,0.0468 l 3.27405,-0.8419 3.08697,-1.63703 0.51449,-0.65481"
       id="path74" /><path
       style="opacity:1;fill:#0033ff;fill-opacity:1;stroke:#17179a;stroke-width:1;stroke-opacity:1"
       d="m 279.16592,254.92065 3.1805,-1.40317 4.2095,-2.8531 1.91766,-3.46114 0.88867,-2.47892 0.18709,-2.15152"
       id="path75" /><path
       style="opacity:1;fill:#0033ff;fill-opacity:1;stroke:#17179a;stroke-width:1;stroke-opacity:1"
       d="m 291.88795,243.83565 -0.28064,1.91765 -0.60803,2.05798 -0.56127,2.15152 -0.65481,2.57247 -0.98222,1.44993"
       id="path76" /><path
       style="opacity:1;fill:#0033ff;fill-opacity:1;stroke:#17179a;stroke-width:1;stroke-opacity:1"
       d="m 290.76541,259.55109 1.77735,-5.28526 0.88867,-5.51911 0.74835,-4.30303"
       id="path77" /><path
       style="opacity:1;fill:#0033ff;fill-opacity:1;stroke:#17179a;stroke-width:1;stroke-opacity:1"
       d="m 296.65871,245.14527 -0.14032,3.36759 -0.51449,4.77076 v 3.88209 l -1.82412,3.3676"
       id="path78" /><path
       style="opacity:1;fill:#0033ff;fill-opacity:1;stroke:#17179a;stroke-width:1;stroke-opacity:1"
       d="m 298.99732,260.25267 0.56126,-3.64823 0.18709,-4.81752 -0.28063,-5.33203 -0.28064,-1.30962"
       id="path79" /><path
       style="opacity:1;fill:#0033ff;fill-opacity:1;stroke:#17179a;stroke-width:1;stroke-opacity:1"
       d="m 302.69232,259.55109 0.18709,-2.38538 0.14031,-2.89988"
       id="path80" /><path
       style="opacity:1;fill:#0033ff;fill-opacity:1;stroke:#17179a;stroke-width:1;stroke-opacity:1"
       d="m 301.52301,245.05172 c 0,0 0.23386,1.59026 0.32741,1.82412 0.0935,0.23386 0.60804,2.71278 0.60804,2.71278"
       id="path81" /><path
       style="opacity:1;fill:#0033ff;fill-opacity:1;stroke:#17179a;stroke-width:1;stroke-opacity:1"
       d="m 303.53422,245.19204 1.82411,4.2095 c 0,0 0.88867,4.39657 0.88867,4.63043 0,0.23386 -0.0935,3.92887 -0.0935,3.92887 l -0.23386,1.49671"
       id="path82" /><path
       style="opacity:1;fill:#0033ff;fill-opacity:1;stroke:#17179a;stroke-width:1;stroke-opacity:1"
       d="m 309.80169,258.00761 -0.0935,-4.11595 -2.05798,-4.72399 -1.21607,-3.55468 -1.77735,-1.07576"
       id="path83" /><path
       style="opacity:1;fill:#0033ff;fill-opacity:1;stroke:#17179a;stroke-width:1;stroke-opacity:1"
       d="m 313.637,256.13672 -0.84189,-2.99342 -1.49671,-3.55468 -1.82412,-3.32082 -1.96443,-2.47893"
       id="path84" /><path
       style="opacity:1;fill:#0033ff;fill-opacity:1;stroke:#17179a;stroke-width:1;stroke-opacity:1"
       d="m 316.44333,254.68678 -1.02898,-3.27404 -1.3564,-3.60146 -1.54348,-1.73057 -3.46114,-3.41437"
       id="path85" /><path
       style="opacity:1;fill:#0033ff;fill-opacity:1;stroke:#17179a;stroke-width:1;stroke-opacity:1"
       d="m 319.06257,252.44172 -1.35639,-3.41436 -2.29183,-3.41437 -3.13374,-1.96443 -2.8531,-0.8419"
       id="path86" /><path
       style="opacity:1;fill:#0033ff;fill-opacity:1;stroke:#17179a;stroke-width:1;stroke-opacity:1"
       d="m 321.16732,250.89824 c 0,-0.18709 -0.65481,-2.47892 -0.65481,-2.47892 l -1.77734,-3.18051"
       id="path87" /><path
       style="opacity:1;fill:#0033ff;fill-opacity:1;stroke:#17179a;stroke-width:1;stroke-opacity:1"
       d="m 312.09352,240.84223 2.47893,1.21607 1.44993,0.98222 1.40317,1.02899"
       id="path88" /><path
       style="opacity:1;fill:#0033ff;fill-opacity:1;stroke:#17179a;stroke-width:1;stroke-opacity:1"
       d="m 323.17852,247.4371 -2.15152,-3.41436 -2.66601,-1.59026 -3.46114,-2.61924 -1.77734,-0.42095"
       id="path89" /><path
       style="opacity:1;fill:#0033ff;fill-opacity:1;stroke:#17179a;stroke-width:1;stroke-opacity:1"
       d="m 313.87086,237.38109 2.29184,0.42095 0.8419,0.79512"
       id="path90" /><path
       style="opacity:1;fill:#0033ff;fill-opacity:1;stroke:#17179a;stroke-width:1;stroke-opacity:1"
       d="m 324.67523,245.47267 -0.98221,-1.91766 -1.63703,-1.68379 -1.40317,-1.49671 -2.75955,-1.3564"
       id="path91" /><path
       style="opacity:1;fill:#0033ff;fill-opacity:1;stroke:#17179a;stroke-width:1;stroke-opacity:1"
       d="m 314.52567,237.10046 3.92886,0.42095 3.27406,1.4967 3.04018,1.77734 1.07576,1.07577"
       id="path92" /><path
       style="opacity:1;fill:#0033ff;fill-opacity:1;stroke:#17179a;stroke-width:1;stroke-opacity:1"
       d="m 326.68644,235.46343 -8.93349,-1.87089 -2.61924,0.14032"
       id="path93" /><path
       style="opacity:1;fill:#0033ff;fill-opacity:1;stroke:#17179a;stroke-width:1;stroke-opacity:1"
       d="m 326.96707,234.15381 -2.1983,-1.87089 -2.99341,-1.21608"
       id="path94" /><path
       style="opacity:1;fill:#0033ff;fill-opacity:1;stroke:#17179a;stroke-width:1;stroke-opacity:1"
       d="m 314.80631,231.06684 2.75955,-0.37417 2.33861,0.23386"
       id="path95" /><path
       style="opacity:1;fill:#0033ff;fill-opacity:1;stroke:#17179a;stroke-width:1;stroke-opacity:1"
       d="m 314.71276,229.57014 3.92886,-0.37418 4.06918,-0.28064 2.8531,0.28064"
       id="path96" /><path
       style="opacity:1;fill:#0033ff;fill-opacity:1;stroke:#17179a;stroke-width:1;stroke-opacity:1"
       d="m 314.43213,227.79279 3.695,-1.26285 3.36759,-0.18709 4.11595,0.37418"
       id="path97" /><path
       style="opacity:1;fill:#0033ff;fill-opacity:1;stroke:#17179a;stroke-width:1;stroke-opacity:1"
       d="m 314.10472,226.48317 4.58367,-1.73057 c 0,0 4.16273,-1.12253 4.34981,-1.12253 0.18709,0 1.96443,-0.42095 1.96443,-0.42095"
       id="path98" /><path
       style="opacity:1;fill:#0033ff;fill-opacity:1;stroke:#17179a;stroke-width:1;stroke-opacity:1"
       d="m 312.93542,224.28488 3.46114,-1.63702 4.5369,-2.15152 1.54348,-0.70159"
       id="path99" /><path
       style="opacity:1;fill:#0033ff;fill-opacity:1;stroke:#17179a;stroke-width:1;stroke-opacity:1"
       d="m 311.81289,222.22691 0.88867,-2.57247 2.5257,-1.82412 3.13373,-1.6838 0.93544,-0.0468"
       id="path100" /><path
       style="opacity:1;fill:#0033ff;fill-opacity:1;stroke:#17179a;stroke-width:1;stroke-opacity:1"
       d="m 308.02434,219.79475 1.30962,-3.60145 1.77735,-2.24507 1.30962,-0.74835"
       id="path101" /><path
       style="opacity:1;fill:#0033ff;fill-opacity:1;stroke:#17179a;stroke-width:1;stroke-opacity:1"
       d="m 304.5632,218.71899 -0.18709,-1.73057 0.5145,-2.57247 1.49671,-2.33861 0.42095,-0.60803"
       id="path102" /><path
       style="opacity:1;fill:#0033ff;fill-opacity:1;stroke:#17179a;stroke-width:1;stroke-opacity:1"
       d="m 300.82143,218.62545 -0.0935,-1.63703 V 213.995 l 0.56127,-2.43215 0.60803,-0.46772"
       id="path103" /><path
       style="opacity:1;fill:#0033ff;fill-opacity:1;stroke:#17179a;stroke-width:1;stroke-opacity:1"
       d="m 299.32472,218.71899 -0.42095,-2.66601 0.23386,-2.80633 0.18709,-1.59026"
       id="path104" /><path
       style="opacity:1;fill:#0033ff;fill-opacity:1;stroke:#17179a;stroke-width:1;stroke-opacity:1"
       d="m 297.73712,218.9336 -1.09662,-2.46623 -0.50044,-2.77123 -0.23088,-1.58449"
       id="path104-8" /><path
       style="opacity:1;fill:#0033ff;fill-opacity:1;stroke:#17179a;stroke-width:1;stroke-opacity:1"
       d="m 294.33162,220.77095 -1.69756,-2.09836 -1.20064,-2.54728 -0.6331,-1.47075"
       id="path104-8-7" /><path
       style="opacity:1;fill:#0033ff;fill-opacity:1;stroke:#17179a;stroke-width:1;stroke-opacity:1"
       d="m 293.19757,222.27368 -2.71279,-2.24507 -1.21608,-4.49013"
       id="path105" /><path
       style="opacity:1;fill:#0033ff;fill-opacity:1;stroke:#17179a;stroke-width:1;stroke-opacity:1"
       d="m 294.13301,213.05956 -0.14032,3.55469 0.93545,2.3386"
       id="path106" /><path
       style="opacity:1;fill:#0033ff;fill-opacity:1;stroke:#17179a;stroke-width:1;stroke-opacity:1"
       d="m 287.772,216.61425 0.6548,2.8531 1.12254,2.29183 1.30962,1.07576 1.26285,0.46772"
       id="path107" /><path
       style="opacity:1;fill:#0033ff;fill-opacity:1;stroke:#17179a;stroke-width:1;stroke-opacity:1"
       d="m 286.22851,218.25127 0.42095,2.0112 1.21608,1.77735"
       id="path108" /><path
       style="opacity:1;fill:#0033ff;fill-opacity:1;stroke:#17179a;stroke-width:1;stroke-opacity:1"
       d="m 288.05263,223.53653 c 0,0 0.70158,0.51449 0.88867,0.51449 0.18709,0 1.12253,-0.0468 1.12253,-0.0468"
       id="path109" /><path
       style="opacity:1;fill:#0033ff;fill-opacity:1;stroke:#17179a;stroke-width:1;stroke-opacity:1"
       d="m 285.19953,220.40279 0.98221,1.35639"
       id="path110" /><path
       style="opacity:1;fill:#0033ff;fill-opacity:1;stroke:#17179a;stroke-width:1;stroke-opacity:1"
       d="m 284.54472,223.11558 2.0112,2.57247 2.5257,0.23386 2.15152,0.0935"
       id="path111" /><path
       style="opacity:1;fill:#0033ff;fill-opacity:1;stroke:#17179a;stroke-width:1;stroke-opacity:1"
       d="m 291.04605,228.21374 -1.16931,0.23386 -1.40316,0.18709 -1.6838,-0.46772 -0.88867,-0.37418"
       id="path112" /><path
       style="opacity:1;fill:#0033ff;fill-opacity:1;stroke:#17179a;stroke-width:1;stroke-opacity:1"
       d="m 283.51573,229.38305 2.29183,1.07576 1.91766,0.23386 2.01121,-0.46772 1.21607,-0.46773"
       id="path113" /><path
       style="opacity:1;fill:#0033ff;fill-opacity:1;stroke:#17179a;stroke-width:1;stroke-opacity:1"
       d="m 284.4044,232.9845 2.10475,0.18709 1.35639,-0.74835 2.47893,-1.02899 h 0.74835"
       id="path114" /><path
       style="opacity:1;fill:#0033ff;fill-opacity:1;stroke:#17179a;stroke-width:1;stroke-opacity:1"
       d="m 284.96567,235.1828 2.29183,0.0935 2.29184,-0.93545 0.88867,-0.74835"
       id="path115" /><path
       style="opacity:1;fill:#0033ff;fill-opacity:1;stroke:#17179a;stroke-width:1;stroke-opacity:1"
       d="m 285.71402,237.80204 1.73057,-0.14032 1.73057,-1.63702 1.6838,-1.3564 0.65481,-0.79512"
       id="path116" /><path
       style="opacity:1;fill:#0033ff;fill-opacity:1;stroke:#17179a;stroke-width:1;stroke-opacity:1"
       d="m 288.75421,241.91799 2.19829,-1.02899 1.07576,-1.30962 1.02899,-1.73057"
       id="path117" /><path
       style="opacity:1;fill:#0033ff;fill-opacity:1;stroke:#17179a;stroke-width:1;stroke-opacity:1"
       d="m 294.27333,243.7421 0.93544,-2.29183 0.3274,-1.82412 1.16931,-0.74835"
       id="path118" /><path
       style="opacity:1;fill:#0033ff;fill-opacity:1;stroke:#17179a;stroke-width:1;stroke-opacity:1"
       d="m 298.20219,239.71969 0.0468,1.82412 -0.0935,2.94665"
       id="path119" /><path
       style="opacity:1;fill:#0033ff;fill-opacity:1;stroke:#17179a;stroke-width:1;stroke-opacity:1"
       d="m 301.28915,244.77109 -0.28063,-2.24506 -0.28064,-2.33861"
       id="path120" /><path
       style="opacity:1;fill:#0033ff;fill-opacity:1;stroke:#17179a;stroke-width:1;stroke-opacity:1"
       d="m 303.34713,244.63077 -0.70159,-1.68379 v -1.59026"
       id="path121" /><path
       style="opacity:1;fill:#0033ff;fill-opacity:1;stroke:#17179a;stroke-width:1;stroke-opacity:1"
       d="m 304.75029,243.7421 -1.1693,-3.64823"
       id="path122" /><path
       style="opacity:1;fill:#0033ff;fill-opacity:1;stroke:#17179a;stroke-width:1;stroke-opacity:1"
       d="m 308.21143,242.75989 -1.30962,-0.70159 -0.60804,-1.26284 -0.46772,-1.73057"
       id="path123" /><path
       style="opacity:1;fill:#0033ff;fill-opacity:1;stroke:#17179a;stroke-width:1;stroke-opacity:1"
       d="m 311.25162,240.5616 -2.10474,-1.40317 -1.02899,-1.6838"
       id="path124" /><path
       style="opacity:1;fill:#0033ff;fill-opacity:1;stroke:#17179a;stroke-width:1;stroke-opacity:1"
       d="m 312.74833,238.55039 -2.33861,-1.49671 -0.56126,-0.46772"
       id="path128" /><path
       style="opacity:1;fill:#0033ff;fill-opacity:1;stroke:#17179a;stroke-width:1;stroke-opacity:1"
       d="m 309.56783,234.76184 1.77734,0.98222"
       id="path129" /><path
       style="opacity:1;fill:#0033ff;fill-opacity:1;stroke:#17179a;stroke-width:1;stroke-opacity:1"
       d="m 314.38536,234.10704 -3.27405,-0.37418 -1.6838,-0.65481"
       id="path130" /><path
       style="opacity:1;fill:#0033ff;fill-opacity:1;stroke:#17179a;stroke-width:1;stroke-opacity:1"
       d="m 314.19827,231.44102 -3.04019,0.0935 -1.35639,-0.0468"
       id="path131" /><path
       style="opacity:1;fill:#0033ff;fill-opacity:1;stroke:#17179a;stroke-width:1;stroke-opacity:1"
       d="m 314.05795,230.87976 -4.16272,-0.79513"
       id="path132" /><path
       style="opacity:1;fill:#0033ff;fill-opacity:1;stroke:#17179a;stroke-width:1;stroke-opacity:1"
       d="m 309.52105,228.91533 4.39659,-0.32741"
       id="path133" /><path
       style="opacity:1;fill:#0033ff;fill-opacity:1;stroke:#17179a;stroke-width:1;stroke-opacity:1"
       d="m 313.44992,227.13798 -2.94665,-0.14031"
       id="path134" /><path
       style="opacity:1;fill:#0033ff;fill-opacity:1;stroke:#17179a;stroke-width:1;stroke-opacity:1"
       d="m 312.65479,225.03323 -4.16272,1.6838"
       id="path135" /><path
       style="opacity:1;fill:#0033ff;fill-opacity:1;stroke:#17179a;stroke-width:1;stroke-opacity:1"
       d="m 311.81289,223.39621 -1.26285,0.79513"
       id="path136" /><path
       style="opacity:1;fill:#0033ff;fill-opacity:1;stroke:#17179a;stroke-width:1;stroke-opacity:1"
       d="m 310.55004,221.8995 -3.83532,2.29184"
       id="path137" /><path
       style="opacity:1;fill:#0033ff;fill-opacity:1;stroke:#17179a;stroke-width:1;stroke-opacity:1"
       d="m 306.38732,221.24469 -0.56127,1.40316"
       id="path138" /><path
       style="opacity:1;fill:#0033ff;fill-opacity:1;stroke:#17179a;stroke-width:1;stroke-opacity:1"
       d="m 302.8794,219.32703 -0.3274,2.29184 0.42095,1.77734"
       id="path139" /><path
       style="opacity:1;fill:#0033ff;fill-opacity:1;stroke:#17179a;stroke-width:1;stroke-opacity:1"
       d="m 300.26016,219.3738 -0.3274,2.1983 0.60804,1.82411"
       id="path140" /><path
       style="opacity:1;fill:#0033ff;fill-opacity:1;stroke:#17179a;stroke-width:1;stroke-opacity:1"
       d="m 298.0151,219.70121 -0.28063,3.55468 0.60803,0.88867"
       id="path141" /><path
       style="opacity:1;fill:#0033ff;fill-opacity:1;stroke:#17179a;stroke-width:1;stroke-opacity:1"
       d="m 294.60073,221.15115 c 0,0 0.88867,1.44993 0.88867,1.77734 0,0.3274 0.70159,1.26285 0.70159,1.26285"
       id="path142" /><path
       style="opacity:1;fill:#0033ff;fill-opacity:1;stroke:#17179a;stroke-width:1;stroke-opacity:1"
       d="m 292.87016,224.47197 1.12253,1.1693 1.02899,0.42095"
       id="path143" /><path
       style="opacity:1;fill:#0033ff;fill-opacity:1;stroke:#17179a;stroke-width:1;stroke-opacity:1"
       d="m 292.12181,226.06222 3.50791,1.77734"
       id="path144" /><path
       style="opacity:1;fill:#0033ff;fill-opacity:1;stroke:#17179a;stroke-width:1;stroke-opacity:1"
       d="m 291.93472,228.02665 2.33861,0.37418"
       id="path145" /><path
       style="opacity:1;fill:#0033ff;fill-opacity:1;stroke:#17179a;stroke-width:1;stroke-opacity:1"
       d="m 294.69428,231.16039 -1.16931,0.18709"
       id="path146" /><path
       style="opacity:1;fill:#0033ff;fill-opacity:1;stroke:#17179a;stroke-width:1;stroke-opacity:1"
       d="m 291.84117,229.71045 3.13374,0.37418"
       id="path147" /><path
       style="opacity:1;fill:#0033ff;fill-opacity:1;stroke:#17179a;stroke-width:1;stroke-opacity:1"
       d="m 291.7944,233.31191 1.82412,-0.14032"
       id="path148" /><path
       style="opacity:1;fill:#0033ff;fill-opacity:1;stroke:#17179a;stroke-width:1;stroke-opacity:1"
       d="m 295.58295,233.68609 -1.54348,1.12253 -1.63703,0.65481"
       id="path149" /><path
       style="opacity:1;fill:#0033ff;fill-opacity:1;stroke:#17179a;stroke-width:1;stroke-opacity:1"
       d="m 293.71206,237.28754 1.44994,-1.07576 0.37417,-0.56126"
       id="path150" /><path
       style="opacity:1;fill:#0033ff;fill-opacity:1;stroke:#17179a;stroke-width:1;stroke-opacity:1"
       d="m 296.8458,238.31653 1.12253,-2.05797"
       id="path151" /><path
       style="opacity:1;fill:#0033ff;fill-opacity:1;stroke:#17179a;stroke-width:1;stroke-opacity:1"
       d="m 298.81023,239.06489 0.60804,-2.47893"
       id="path152" /><path
       style="opacity:1;fill:#0033ff;fill-opacity:1;stroke:#17179a;stroke-width:1;stroke-opacity:1"
       d="m 301.14884,239.57938 0.51449,-1.82412 -0.23386,-1.35639"
       id="path153" /><path
       style="opacity:1;fill:#0033ff;fill-opacity:1;stroke:#17179a;stroke-width:1;stroke-opacity:1"
       d="m 303.76808,239.2052 -0.18709,-1.07576 -0.60804,-1.30962"
       id="path154" /><path
       style="opacity:1;fill:#0033ff;fill-opacity:1;stroke:#17179a;stroke-width:1;stroke-opacity:1"
       d="m 304.65675,235.27634 0.65481,1.02899 -0.18709,1.21607"
       id="path155" /><path
       style="opacity:1;fill:#0033ff;fill-opacity:1;stroke:#17179a;stroke-width:1;stroke-opacity:1"
       d="m 304.42289,234.62153 1.87088,0.74835 0.88868,1.82412"
       id="path156" /><path
       style="opacity:1;fill:#0033ff;fill-opacity:1;stroke:#17179a;stroke-width:1;stroke-opacity:1"
       d="m 308.72593,235.1828 -1.3564,-1.21608 -1.54348,-0.46772 0.98222,-1.3564 -0.0935,-1.21607 -0.42095,-1.16931 2.89987,0.14032"
       id="path157" /><path
       style="opacity:1;fill:#0033ff;fill-opacity:1;stroke:#17179a;stroke-width:1;stroke-opacity:1"
       d="m 309.1001,233.35868 -2.24506,-0.8419"
       id="path158" /><path
       style="opacity:1;fill:#0033ff;fill-opacity:1;stroke:#17179a;stroke-width:1;stroke-opacity:1"
       d="m 309.14688,231.58134 c -0.18709,0 -1.96443,-0.32741 -1.96443,-0.32741"
       id="path159" /><path
       style="opacity:1;fill:#0033ff;fill-opacity:1;stroke:#17179a;stroke-width:1;stroke-opacity:1"
       d="m 308.63238,227.97988 -2.24506,0.46772"
       id="path160" /><path
       style="opacity:1;fill:#0033ff;fill-opacity:1;stroke:#17179a;stroke-width:1;stroke-opacity:1"
       d="m 307.50985,226.20254 -1.91766,0.93544"
       id="path161" /><path
       style="opacity:1;fill:#0033ff;fill-opacity:1;stroke:#17179a;stroke-width:1;stroke-opacity:1"
       d="m 306.62118,225.03323 -3.18051,1.6838"
       id="path162" /><path
       style="opacity:1;fill:#0033ff;fill-opacity:1;stroke:#17179a;stroke-width:1;stroke-opacity:1"
       d="m 304.93738,224.33165 -1.12253,2.10475"
       id="path163" /><path
       style="opacity:1;fill:#0033ff;fill-opacity:1;stroke:#17179a;stroke-width:1;stroke-opacity:1"
       d="m 302.97295,223.9107 0.0468,2.80633"
       id="path164" /><circle
       style="opacity:1;fill:#00208e;fill-opacity:1;stroke:#17179a;stroke-width:1.26271;stroke-opacity:1"
       id="path165"
       cx="300.34012"
       cy="231.26503"
       r="4.9278646" /><path
       style="opacity:1;fill:#00208e;fill-opacity:1;stroke:#17179a;stroke-width:1;stroke-opacity:1"
       d="m 296.3313,227.93311 1.0056,-2.59585 3.22728,-1.00561 1.66041,-0.44433 0.79513,0.30402 -0.14032,2.54908 -2.52569,0.58465 z"
       id="path166" /></g></svg>
