<?xml version="1.0" encoding="UTF-8" standalone="no"?>
<!-- Created with Inkscape (http://www.inkscape.org/) -->

<svg
   width="19.989479mm"
   height="19.452669mm"
   viewBox="0 0 19.989479 19.452669"
   version="1.1"
   id="svg1"
   xml:space="preserve"
   xmlns="http://www.w3.org/2000/svg"
   xmlns:svg="http://www.w3.org/2000/svg"><defs
     id="defs1" /><g
     id="g188"
     transform="matrix(0.84869327,0,0,0.84869327,-9.4521139,-22.121738)"><path
       style="fill:#1454d0;fill-opacity:1;stroke:#17179a;stroke-width:1.4602;stroke-opacity:0.00357995"
       d="m 12.367168,39.506017 -0.478081,3.61973 1.570832,3.346548 3.961217,1.77572 3.892918,-0.20489 4.575886,-2.39039 4.473439,-7.615096 3.244104,-10.893344 -11.405569,3.346541 -7.307761,4.302699 z"
       id="path125-5-6-8-5-4" /><path
       style="opacity:1;fill:#0049d5;fill-opacity:1;stroke:#121276;stroke-width:1;stroke-opacity:0"
       d="m 31.784669,33.237624 -1.379778,4.747377 -0.514493,0.865285 -0.350793,-1.683798 -0.724968,-1.61364 -0.678196,-0.795126 -1.192689,-1.239462 -1.753957,-0.818515 -2.198292,-0.397563 -2.034589,0.280633 -1.964431,0.982215 -4.139337,1.192692 7.202914,-4.256268 4.659132,-1.344844 0.02611,-0.0075 2.00318,1.048361 1.169304,0.818512 1.192689,1.216078 z"
       id="path184" /><path
       style="opacity:1;fill:#134fc3;fill-opacity:1;stroke:#121276;stroke-width:1;stroke-opacity:0"
       d="m 18.975582,33.556885 -4.075664,1.17745 -1.894272,3.624842 0.163702,2.03459 0.65481,1.894274 1.07576,1.753954 1.145918,1.23946 1.61364,1.02899 2.315222,0.98222 2.712664,0.0323 0.130478,-0.33258 1.717145,-4.376941 c 0,0 -1.052375,0.631426 -1.379781,0.724969 -0.327403,0.09354 -1.847499,0.23386 -1.847499,0.23386 l -2.011203,-0.654809 -1.566868,-1.496708 -0.795127,-1.987817 -0.163702,-2.034591 0.584652,-1.637024 0.65481,-1.075762 z"
       id="path185" /><path
       style="opacity:1;fill:#144ab2;fill-opacity:1;stroke:#121276;stroke-width:1;stroke-opacity:0"
       d="m 22.689308,47.322245 3.204993,-1.66368 4.004866,-6.814126 -0.289402,-1.677951 -0.771741,-1.654565 -1.824115,-1.993663 -1.816495,-0.820843 -3.084266,3.602894 1.346076,-0.139425 1.075761,0.444336 1.028986,1.099146 0.491109,1.216075 v 1.449938 l -0.654809,1.403165 -0.862325,0.838197 z"
       id="path186" /><path
       style="opacity:1;fill:#14439f;fill-opacity:1;stroke:#121276;stroke-width:1;stroke-opacity:0"
       d="m 25.203537,32.689868 -2.215885,-0.396875 -2.042253,0.289388 -1.982149,0.982651 -0.947136,1.104992 -0.67235,1.104993 -0.572959,1.637026 0.159893,2.022187 0.786535,1.996794 4.01147,-1.580037 -0.692353,-0.331561 -0.314193,-0.545703 -0.132291,-0.595312 0.09922,-0.644922 0.264584,-0.595313 0.532267,-0.536401 0.341064,-0.163297 0.292489,-0.138494 z"
       id="path187" /><path
       style="opacity:1;fill:#163c86;fill-opacity:1;stroke:#121276;stroke-width:1;stroke-opacity:0"
       d="m 21.728814,39.852221 -4.010091,1.576131 1.578198,1.49035 2.008146,0.657323 1.6002,-0.172763 0.282095,-0.07016 0.268938,-0.103775 0.479417,-0.264557 0.603652,-0.346406 0.862606,-0.843783 0.655256,-1.4118 v -1.444874 l -0.489892,-1.21543 -1.023194,-1.103807 -1.081071,-0.438216 -1.349788,0.138491 -0.628385,0.29559 -0.533301,0.54157 -0.268717,0.599445 -0.09715,0.65319 0.130225,0.595313 0.320394,0.54157 z"
       id="path188" /></g></svg>
