<?xml version="1.0" encoding="UTF-8" standalone="no"?>
<!-- Created with Inkscape (http://www.inkscape.org/) -->

<svg
   width="21.352928mm"
   height="19.27969mm"
   viewBox="0 0 21.352928 19.27969"
   version="1.1"
   id="svg1"
   xml:space="preserve"
   xmlns="http://www.w3.org/2000/svg"
   xmlns:svg="http://www.w3.org/2000/svg"><defs
     id="defs1" /><g
     id="g125"
     transform="matrix(-0.61073902,0,0,-0.61073902,61.598948,111.05128)"><path
       style="fill:#9f2f2f;fill-opacity:1;stroke:#17179a;stroke-width:1;stroke-opacity:0.00357995"
       d="m 85.571856,159.46764 -0.327405,2.47892 1.07576,2.29184 2.712786,1.21607 2.666014,-0.14031 3.133735,-1.63703 3.06358,-5.21509 2.221674,-7.46016 -7.810947,2.29183 -5.004623,2.94665 z"
       id="path125-5-6-2-6-2-0" /><path
       style="fill:#bd3d3d;fill-opacity:1;stroke:#17179a;stroke-width:1;stroke-opacity:0.00357995"
       d="m 78.565667,160.29258 -0.327405,2.47892 1.07576,2.29184 2.712786,1.21608 2.666014,-0.14032 3.133735,-1.63703 3.06358,-5.21509 2.221678,-7.46016 -7.810951,2.29184 -5.004623,2.94664 z"
       id="path125-5-6-2-6" /><path
       style="fill:#bd3d3d;fill-opacity:1;stroke:#17179a;stroke-width:1;stroke-opacity:0.00357995"
       d="m 84.986754,164.76115 -0.327405,2.47892 1.07576,2.29184 2.712786,1.21608 2.666014,-0.14032 3.133735,-1.63702 3.06358,-5.2151 2.221678,-7.46016 -7.810951,2.29184 -5.004623,2.94664 z"
       id="path125-5-6-2-6-2" /><path
       style="fill:#dc4d4d;fill-opacity:1;stroke:#17179a;stroke-width:1;stroke-opacity:0.00357995"
       d="m 83.999267,171.09601 -0.327405,2.47892 1.07576,2.29184 2.712786,1.21607 2.666014,-0.14031 3.133735,-1.63703 3.06358,-5.21509 2.221678,-7.46016 -7.810951,2.29183 -5.004623,2.94665 z"
       id="path125-5" /><path
       style="fill:#dc4d4d;fill-opacity:1;stroke:#17179a;stroke-width:1;stroke-opacity:0.00357995"
       d="m 78.112288,165.40747 -0.327405,2.47892 1.07576,2.29184 2.712786,1.21607 2.666014,-0.14031 3.133735,-1.63703 3.06358,-5.21509 2.221678,-7.46016 -7.810951,2.29183 -5.004623,2.94665 z"
       id="path125-5-6" /><path
       style="fill:#dc4d4d;fill-opacity:1;stroke:#17179a;stroke-width:1;stroke-opacity:0.00357995"
       d="m 72.489892,160.64497 -0.327405,2.47892 1.07576,2.29184 2.712786,1.21607 2.666014,-0.14031 3.133735,-1.63703 3.06358,-5.21509 2.221678,-7.46016 -7.810951,2.29183 -5.004623,2.94665 z"
       id="path125-5-6-8" /><path
       style="fill:#92004c;fill-opacity:1;stroke:#d100ff;stroke-width:1;stroke-opacity:1"
       d="m 88.404605,166.30185 0.327404,-2.47892 -1.07576,-2.29184 -2.712787,-1.21607 -2.666016,0.14031 -3.133733,1.63703 -3.063576,5.21509 -2.221679,7.46017 7.81095,-2.29184 5.004625,-2.94665 z"
       id="path125-2-6" /><path
       style="opacity:1;fill:#ff5c5c;fill-opacity:0.698091;stroke:#17179a;stroke-width:1;stroke-opacity:0.00357995"
       d="m 66.739533,167.01449 -0.327405,2.47893 1.07576,2.29183 2.712786,1.21608 2.666014,-0.14032 3.133735,-1.63702 3.06358,-5.2151 2.221678,-7.46016 -7.810951,2.29184 -5.004623,2.94664 z"
       id="path125" /><path
       style="fill:#ff5c5c;fill-opacity:0.698091;stroke:#17179a;stroke-width:1;stroke-opacity:0.00357995"
       d="m 75.949184,175.33851 -0.327405,2.47892 1.07576,2.29183 2.712786,1.21607 2.666014,-0.14031 3.133735,-1.63703 3.06358,-5.21508 2.221678,-7.46016 -7.810951,2.29183 -5.004623,2.94665 z"
       id="path125-2" /><path
       style="fill:#ff7373;fill-opacity:0.495227;stroke:#17179a;stroke-width:1;stroke-opacity:0.00357995"
       d="m 67.150884,174.35791 -0.327405,2.47892 1.07576,2.29183 2.712786,1.21608 2.666013,-0.14032 3.133735,-1.63702 3.063581,-5.21509 2.221677,-7.46017 -7.810951,2.29184 -5.004622,2.94665 z"
       id="path125-1" /></g></svg>
