<?xml version="1.0" encoding="UTF-8" standalone="no"?>
<!-- Created with Inkscape (http://www.inkscape.org/) -->

<svg
   width="19.766745mm"
   height="19.235916mm"
   viewBox="0 0 19.766745 19.235916"
   version="1.1"
   id="svg1"
   xml:space="preserve"
   xmlns="http://www.w3.org/2000/svg"
   xmlns:svg="http://www.w3.org/2000/svg"><defs
     id="defs1" /><g
     id="g194"
     transform="matrix(0.8392366,0,0,0.8392366,-36.383846,3.8583392)"><path
       style="fill:#0cb800;fill-opacity:1;stroke:#17179a;stroke-width:1.4602;stroke-opacity:0.00357995"
       d="m 44.583415,8.8429326 -0.478081,3.6197304 1.570832,3.346548 3.961217,1.77572 3.892918,-0.20489 4.575886,-2.39039 L 62.579626,7.3745546 65.82373,-3.5187894 54.418161,-0.17224841 47.1104,4.1304506 Z"
       id="path125-5-6-8-5-4-8" /><path
       style="fill:#0baa00;fill-opacity:1;stroke:#17179a;stroke-width:1.31502;stroke-opacity:0.00357995"
       d="m 45.620101,8.5318846 -0.43055,3.2598584 1.41466,3.013833 3.567394,1.599179 3.505884,-0.18452 4.120953,-2.152738 4.02869,-6.8580054 2.921575,-9.810329 -10.271629,3.01382799 -6.581224,3.87492601 z"
       id="path125-5-6-8-5-4-8-4" /><path
       style="fill:#0a8501;fill-opacity:1;stroke:#17179a;stroke-width:1.23228;stroke-opacity:0.00357995"
       d="m 47.554519,6.0306756 1.696675,1.434149 -2.625414,6.0160324 0.395714,0.84304 1.215413,0.544842 3.169287,-1.278715 3.764824,-1.462757 1.223101,2.088592 1.117173,-0.583599 2.915278,-6.9556064 3.630697,-8.597675 -8.86458,3.584852 -6.960831,2.804261 z"
       id="path125-5-6-8-5-2-8" /><path
       style="fill:#ffff00;fill-opacity:1;fill-rule:nonzero;stroke:#17179a;stroke-width:0.614686;stroke-opacity:0.00357995"
       d="m 64.066999,-1.9255734 -15.748919,6.301901 8.903395,-1.200326 -8.099091,9.6949654 9.56281,-8.5788524 -1.122251,9.2715994 z"
       id="path181-6" /><path
       style="opacity:1;fill:#ffff00;fill-opacity:1;stroke:#121276;stroke-width:1;stroke-opacity:0"
       d="m 55.015646,4.3779826 -4.817533,5.378799 1.777344,-3.811931 -3.507915,-0.888672 z"
       id="path189" /><path
       style="opacity:1;fill:#ffff00;fill-opacity:1;stroke:#121276;stroke-width:1;stroke-opacity:0"
       d="M 52.840739,10.949471 57.821976,5.9682376 56.933304,12.095389 56.348654,9.2890596 Z"
       id="path190" /><path
       style="opacity:1;fill:#ffff00;fill-opacity:1;stroke:#121276;stroke-width:1;stroke-opacity:0"
       d="m 48.233682,5.6174446 1.605616,1.419216 -0.225832,0.685531 -2.174905,5.7529784 3.741772,-6.9690534 z"
       id="path191" /><path
       style="opacity:1;fill:#ffff00;fill-opacity:1;stroke:#121276;stroke-width:1;stroke-opacity:0"
       d="m 56.584631,13.519858 -0.446485,-3.472656 -7.772135,4.034896 6.085417,-2.480469 0.892968,-0.363802 z"
       id="path192" /><path
       style="opacity:1;fill:#0a8501;fill-opacity:1;stroke:#121276;stroke-width:1;stroke-opacity:0"
       d="M 47.324214,6.7399096 46.381636,12.577281 48.663667,7.6328796 Z"
       id="path193" /><path
       style="opacity:1;fill:#0a8501;fill-opacity:1;stroke:#121276;stroke-width:1;stroke-opacity:0"
       d="m 49.044006,14.991603 6.730338,-0.644922 -0.744141,-1.5875 z"
       id="path194" /></g></svg>
