<?xml version="1.0" encoding="UTF-8" standalone="no"?>
<!-- Created with Inkscape (http://www.inkscape.org/) -->

<svg
   width="16.425314mm"
   height="21.377424mm"
   viewBox="0 0 16.425314 21.377424"
   version="1.1"
   id="svg1"
   xml:space="preserve"
   xmlns="http://www.w3.org/2000/svg"
   xmlns:svg="http://www.w3.org/2000/svg"><defs
     id="defs1" /><g
     id="g405"
     transform="matrix(0.5174711,0,0,0.5174711,-54.076933,-168.32232)"><path
       style="opacity:1;fill:#8100b0;fill-opacity:1;stroke-width:0.365976;stroke-opacity:0.631373"
       d="m 107.91001,353.74852 -0.57873,4.67945 0.12579,5.22271 13.70517,2.93935 13.19124,-3.94837 0.29737,-6.19932 -1.67081,-2.8014 -12.23156,-3.24721 z"
       id="path398-4-2" /><path
       style="opacity:0.95;fill:#df00fd;fill-opacity:1;stroke-width:0.365976;stroke-opacity:0.631373"
       d="m 120.68352,359.72774 -12.20074,-2.37238 0.39077,-2.85652 11.08374,-2.8081 11.76501,2.27553 1.45247,1.98505 z"
       id="path400-1-5" /><path
       style="opacity:0.95;fill:#b200ca;fill-opacity:1;stroke-width:0.277789;stroke-opacity:0.631373"
       d="m 120.24358,358.71101 -9.26081,-1.80072 0.29661,-2.1682 8.41296,-2.13145 8.93006,1.72721 1.10248,1.50672 z"
       id="path400-8-3-9" /><g
       id="g396-4-5-8"
       transform="matrix(0.73195341,0,0,0.73195341,46.563313,188.94999)"><circle
         style="opacity:1;fill:#ffe0ff;fill-opacity:1;stroke:none;stroke-width:0.397817;stroke-dasharray:none;stroke-opacity:0.631373"
         id="path392-0-4-2"
         cx="100.83943"
         cy="207.93599"
         r="21.682739" /><path
         style="opacity:1;fill:#ffe5ff;fill-opacity:1;stroke:none;stroke-width:0.499999;stroke-dasharray:none;stroke-opacity:0.631373"
         d="m 81.293229,202.14166 0.0187,1.96573 0.444321,2.13531 1.168133,2.44072 2.006867,2.58636 2.791077,2.37979 3.095902,1.85354 2.791088,1.28358 3.095891,0.76694 4.481422,0.39979 4.51441,-0.53208 5.24093,-1.71576 3.35803,-1.85611 2.80791,-3.07844 1.75615,-2.54396 0.92399,-2.07165 0.72966,-2.22783 0.0172,-2.44835 -0.28177,-2.248 -1.28109,-2.29822 -1.43088,-1.93511 -4.49792,-4.0349 -2.42593,-1.38311 -2.6673,-0.99814 -1.63277,-0.73283 -1.82909,-0.46289 -2.69045,-0.46496 -3.241431,0.0137 -3.341878,0.7644 -3.403964,1.41177 -3.266024,1.70878 -2.819393,2.19382 -1.542256,2.03021 -1.36816,2.46771 -0.809896,2.01192 z"
         id="path394-2-4-8" /><circle
         style="opacity:1;fill:#fff0ff;fill-opacity:1;stroke:none;stroke-width:0.499999;stroke-dasharray:none;stroke-opacity:0.631373"
         id="path395-6-3-4"
         cx="88.372772"
         cy="196.89346"
         r="2.8442707" /></g><path
       style="opacity:0.95;fill:#d500f7;fill-opacity:1;stroke-width:0.365976;stroke-opacity:0.631373"
       d="m 108.18469,359.0015 0.4959,3.73036 12.29758,2.90494 12.01397,-3.80062 0.15842,-4.1177 -12.56387,3.43752 z"
       id="path399-3-7" /><path
       style="opacity:1;fill:#8100b0;fill-opacity:1;stroke-width:0.365976;stroke-opacity:0.631373"
       d="m 119.85006,360.81588 0.1883,4.82714 0.94147,0.3937 0.94146,-0.44505 -0.39371,-4.92985 -0.85587,0.18829 z"
       id="path402-1-4" /><path
       style="opacity:0.95;fill:#9300cc;fill-opacity:1;stroke-width:0.365976;stroke-opacity:0.631373"
       d="m 113.41388,360.55912 1.65185,0.30812 0.54776,1.33517 -0.95003,1.27525 -1.78022,-0.49641 -0.4365,-1.39507 z"
       id="path401-4-04" /><path
       style="fill:#9300cc;fill-opacity:1;stroke-width:0.365976;stroke-opacity:0.631373"
       d="m 115.5921,360.95031 0.47929,1.28381 -0.9757,1.30094 1.17258,0.21397 1.0356,-1.26244 -0.42367,-1.30948 z"
       id="path404-3" /><path
       style="fill:#9300cc;fill-opacity:1;stroke-width:0.365976;stroke-opacity:0.631373"
       d="m 112.93888,360.51381 -0.91578,0.98426 0.47929,1.39507 -1.02706,-0.29955 -0.4964,-1.3095 0.91578,-0.90722 z"
       id="path405-0" /><path
       style="opacity:0.95;fill:#9300cc;fill-opacity:1;stroke-width:0.365976;stroke-opacity:0.631373"
       d="m 128.01797,359.92281 -1.5981,0.45407 -0.40597,1.42975 1.05809,1.23737 1.77826,-0.48649 0.28671,-1.55987 z"
       id="path401-4-0-7" /><path
       style="fill:#9300cc;fill-opacity:1;stroke-width:0.365976;stroke-opacity:0.631373"
       d="m 125.95403,360.48296 -0.34986,1.43781 1.02177,1.23421 -1.34094,0.34783 -1.04868,-1.20027 0.42252,-1.47287 z"
       id="path404-8-1" /><path
       style="fill:#9300cc;fill-opacity:1;stroke-width:0.365976;stroke-opacity:0.631373"
       d="m 128.48024,359.81672 1.07418,1.06703 -0.34305,1.56703 0.86156,-0.21665 0.50606,-1.67327 -1.18293,-1.00376 z"
       id="path405-8-0" /><path
       style="fill:#e000ee;fill-opacity:1;stroke:none;stroke-width:0.175335;stroke-dasharray:none;stroke-opacity:0.631373"
       d="m 113.20039,362.71667 0.37263,0.0944 0.32319,-0.72555 0.2799,0.88595 0.35195,0.0974 -0.37208,-1.97516 -0.45816,-0.10728 z"
       id="path377-6-0-2-7" /><path
       style="fill:#e000ee;fill-opacity:1;stroke:none;stroke-width:0.202672;stroke-dasharray:none;stroke-opacity:0.631373"
       d="m 113.67714,362.82326 0.37944,0.0921 -0.16473,-0.63089 z"
       id="path377-8-4" /><path
       style="fill:#e000ee;fill-opacity:1;stroke:none;stroke-width:0.202672;stroke-dasharray:none;stroke-opacity:0.631373"
       d="m 113.25295,362.20829 0.0115,-0.41544 -0.0374,-0.18478 -0.18499,-0.0457 -0.0741,0.13833 0.0875,-0.38444 0.24337,-0.11006 0.15778,0.023 0.14292,-0.13931 z"
       id="path379-9" /><path
       style="fill:#e000ee;fill-opacity:1;stroke:none;stroke-width:0.202672;stroke-dasharray:none;stroke-opacity:0.631373"
       d="m 114.60303,363.05458 -0.23147,-1.44416 -0.056,-0.0647 -0.0201,-0.0973 0.0674,-0.0976 0.0867,0.0757 0.0298,0.0967 -0.0358,0.0826 0.25509,1.43677 -0.045,0.0833 z"
       id="path380-5" /><path
       style="fill:#e000ee;fill-opacity:1;stroke:none;stroke-width:0.175335;stroke-dasharray:none;stroke-opacity:0.631373"
       d="m 128.43494,362.20934 -0.36728,0.11343 -0.36006,-0.70798 -0.23398,0.89917 -0.34648,0.11537 0.27005,-1.99168 0.45204,-0.13069 z"
       id="path377-6-0-2-7-9" /><path
       style="fill:#e000ee;fill-opacity:1;stroke:none;stroke-width:0.202672;stroke-dasharray:none;stroke-opacity:0.631373"
       d="m 127.96431,362.3403 -0.37421,0.11148 0.13208,-0.63852 z"
       id="path377-8-4-5" /><path
       style="fill:#e000ee;fill-opacity:1;stroke:none;stroke-width:0.202672;stroke-dasharray:none;stroke-opacity:0.631373"
       d="m 128.35632,361.70434 -0.0328,-0.4143 0.0278,-0.18646 0.1824,-0.0551 0.0811,0.13434 -0.10714,-0.37944 -0.24871,-0.0974 -0.15639,0.0311 -0.14989,-0.13178 z"
       id="path379-9-4" /><path
       style="fill:#e000ee;fill-opacity:1;stroke:none;stroke-width:0.202672;stroke-dasharray:none;stroke-opacity:0.631373"
       d="m 127.05153,362.61891 0.15693,-1.45415 0.0526,-0.0675 0.0151,-0.0982 -0.0723,-0.094 -0.0827,0.0801 -0.0248,0.0981 0.04,0.0806 -0.1809,1.44798 0.0492,0.0809 z"
       id="path380-5-6" /><path
       style="fill:#9300cc;fill-opacity:1;stroke-width:0.499999;stroke-opacity:0.631373"
       d="m 117.25843,361.21757 0.37226,1.27081 1.73292,0.32091 0.0128,-1.21946 z"
       id="path372" /><path
       style="fill:#9300cc;fill-opacity:1;stroke-width:0.499999;stroke-opacity:0.631373"
       d="m 117.5665,362.74511 -0.93706,1.07827 2.73418,0.64182 0.0257,-1.32215 z"
       id="path393" /><path
       style="fill:#9300cc;fill-opacity:1;stroke-width:0.499999;stroke-opacity:0.631373"
       d="m 111.3023,360.29335 -0.69317,0.91139 -1.54038,-0.21823 -0.19255,-1.16812 z"
       id="path396" /><path
       style="fill:#9300cc;fill-opacity:1;stroke-width:0.499999;stroke-opacity:0.631373"
       d="m 109.10726,361.30743 0.10268,0.79586 1.70725,0.37226 -0.29524,-0.98841 z"
       id="path397" /><path
       style="fill:#9300cc;fill-opacity:1;stroke-width:0.499999;stroke-opacity:0.631373"
       d="m 124.28893,360.93153 -0.3458,1.25596 -1.71477,0.4616 -0.16331,-1.12708 z"
       id="path372-3" /><path
       style="fill:#9300cc;fill-opacity:1;stroke-width:0.499999;stroke-opacity:0.631373"
       d="m 123.98008,362.49868 0.95068,1.09642 -2.4427,0.65246 -0.21903,-1.30322 z"
       id="path393-1" /><path
       style="fill:#9300cc;fill-opacity:1;stroke-width:0.499999;stroke-opacity:0.631373"
       d="m 129.75504,359.47822 1.10616,0.85693 1.58576,-0.43153 0.011,-1.15905 z"
       id="path396-9" /><path
       style="fill:#9300cc;fill-opacity:1;stroke-width:0.499999;stroke-opacity:0.631373"
       d="m 132.48327,360.279 0.0516,1.31323 -1.97956,0.49934 0.34063,-1.41502 z"
       id="path397-1" /></g></svg>
