<?xml version="1.0" encoding="UTF-8" standalone="no"?>
<!-- Created with Inkscape (http://www.inkscape.org/) -->

<svg
   width="12.403542mm"
   height="23.372702mm"
   viewBox="0 0 12.403542 23.372702"
   version="1.1"
   id="svg1"
   xml:space="preserve"
   xmlns="http://www.w3.org/2000/svg"
   xmlns:svg="http://www.w3.org/2000/svg"><defs
     id="defs1" /><g
     id="g264"
     transform="translate(-166.35111,-6.210275)"><g
       id="g254"
       transform="translate(-2.875372,-47.649022)"><path
         style="opacity:1;fill:#db8989;fill-opacity:1;stroke:#292ec6;stroke-width:0.499999;stroke-opacity:0"
         d="m 170.96217,67.849085 c 0,0 -0.76068,0.396875 -0.79375,0.413411 -0.0331,0.01654 -0.41341,0.223243 -0.41341,0.223243 l 0.008,0.148828 0.25632,0.03307 c 0,0 0.3886,-0.157097 0.42994,-0.165365 0.0413,-0.0083 0.72761,-0.289388 0.72761,-0.289388 l 1.0914,-0.479557 0.38034,-0.322461 0.0579,-0.214974 -0.14056,-0.165365 -0.33073,-0.02479 c 0,0 -0.339,0.239779 -0.38034,0.256315 -0.0413,0.01654 -0.66146,0.388607 -0.66146,0.388607 z"
         id="path254" /><path
         id="path234"
         style="display:inline;fill:#ff6035;fill-opacity:1;stroke:#292ec6;stroke-width:0.499999;stroke-opacity:0"
         d="m 176.77474,56.984635 -0.52917,0.396875 0.29766,1.422136 0.42995,0.628385 -0.0331,0.264584 -2.11666,-0.03307 -0.19844,0.959114 0.39687,0.56224 1.2237,0.198437 h 0.76068 l 0.29766,0.56224 v 1.02526 l -1.52136,-0.628385 -1.88515,0.297656 -0.82683,0.727604 -0.46302,0.56224 0.33073,0.496094 0.89297,0.06615 0.82682,-0.396875 0.4961,0.429948 1.05833,0.529167 0.26458,0.03307 -0.52916,0.926042 -0.23151,0.694531 -0.0331,0.297656 -0.66146,-0.132292 -0.7276,-0.496093 -0.79375,0.165364 -0.47956,0.08268 -0.64492,-1.306381 0.0662,-0.843359 -0.74414,-0.297656 -1.09141,0.396875 -0.61185,0.79375 0.0661,0.529166 0.47955,0.512631 -0.13229,0.975651 0.52917,0.446484 0.31419,0.330729 0.1819,1.455209 0.62839,2.596224 0.41341,1.174088 0.21497,1.157552 0.72761,0.628386 0.47956,0.777213 0.16536,-0.01654 4.66328,0.992187 0.19844,-2.844271 1.55443,-4.398698 -0.4961,-2.910416 0.4961,-2.645834 0.85989,-1.554427 -0.3638,-0.562239 -0.52917,-0.132292 -1.12448,-1.719792 -0.92604,-0.09922 -0.49609,-1.852084 z m -2.54833,11.453089 0.36483,0.04968 0.41722,-0.06447 -0.0894,0.136374 -0.23441,0.162745 -0.32559,0.216015 -0.3168,-0.0077 -0.20683,-0.240488 -0.23082,-0.589307 0.2692,0.209074 z" /><path
         style="opacity:1;fill:#db8989;fill-opacity:1;stroke:#292ec6;stroke-width:0.499999;stroke-opacity:0"
         d="m 176.84915,57.050778 0.17363,0.520898 0.23151,0.396875 0.23151,0.223242 0.37207,0.05788 0.10749,-0.08268 -0.48783,-1.504818 -0.68626,-1.802474 -0.31419,-0.661455 -0.20671,-0.04134 -0.0248,0.19017 0.091,0.711065 0.25631,1.207161 z"
         id="path235" /><path
         style="opacity:1;fill:#db8989;fill-opacity:1;stroke:#292ec6;stroke-width:0.499999;stroke-opacity:0"
         d="m 176.19596,59.729684 -0.34727,0.322461 -1.19889,0.173633 -1.38907,-0.09922 -1.28157,-0.330729 -0.1819,-0.165365 0.0661,-0.115755 0.30593,0.02479 1.4304,0.01654 1.55443,-0.02479 0.85989,0.09095 z"
         id="path236" /><path
         style="opacity:1;fill:#db8989;fill-opacity:1;stroke:#292ec6;stroke-width:0.499999;stroke-opacity:0"
         d="m 173.43437,63.041111 -0.11426,0.381945 -0.57881,0.374179 -0.73081,0.327403 -0.47942,0.111085 -0.3391,-0.01169 0.11109,-0.204626 0.29817,-0.228016 0.71912,-0.438488 c 0,0 0.36833,-0.204629 0.39757,-0.210476 0.0292,-0.0058 0.49695,-0.228013 0.49695,-0.228013 z"
         id="path237" /><path
         style="opacity:1;fill:#db8989;fill-opacity:1;stroke:#292ec6;stroke-width:0.499999;stroke-opacity:0"
         d="m 170.14545,65.223786 0.37417,0.245552 0.54958,0.07016 0.56126,-0.339097 0.14032,-0.362485 V 64.39358 l -0.53788,-0.912058 -0.71328,-1.122532 -0.5028,-0.736661 -0.25725,-0.491106 -0.14031,-0.05847 -0.12863,0.18709 0.11694,0.654809 0.0585,1.11084 0.12862,1.017294 0.16371,0.87698 z"
         id="path244" /></g><path
       style="opacity:1;fill:#d08484;fill-opacity:1;stroke:#292ec6;stroke-width:0.714199;stroke-opacity:0"
       d="m 173.92843,24.540833 0.51778,0.30064 1.42458,-1.525499 1.15106,-1.832831 -0.45284,-0.790179 -0.10305,0.719039 -0.98338,1.506909 z"
       id="path256" /><path
       style="fill:#9f4636;fill-opacity:1;stroke:#292ec6;stroke-width:0.548613;stroke-opacity:0"
       d="m 173.17636,25.275549 0.49913,0.509615 0.58201,-0.704818 0.25978,0.513117 0.43324,-0.220741 -0.43084,-0.58114 -0.45746,-0.385808 -0.48331,-0.328362 -0.33444,0.296487 0.56133,0.357677 z"
       id="path255" /><path
       style="opacity:1;fill:#d08484;fill-opacity:1;stroke:#292ec6;stroke-width:0.714199;stroke-opacity:0"
       d="m 176.21081,24.8705 -0.91979,-1.648404 -1.09933,-1.492092 -0.67786,-0.787112 1.1565,0.430713 1.14706,1.532162 0.80712,1.647653 z"
       id="path257" /><path
       style="opacity:1;fill:#9f4636;fill-opacity:1;stroke:#292ec6;stroke-width:0.54759;stroke-opacity:0"
       d="m 176.07709,24.964267 -0.42289,0.321553 0.41174,0.137796 0.32712,-0.27004 0.0679,0.141698 0.2347,-0.649768 0.089,-0.245541 z"
       id="path258" /><path
       style="opacity:1;fill:#9f4636;fill-opacity:1;stroke:#292ec6;stroke-width:0.499999;stroke-opacity:0"
       d="m 174.71854,24.795217 0.5905,0.532032 0.70158,-0.514493 -0.56711,-0.701582 z"
       id="path259" /><path
       style="opacity:1;fill:#9f4636;fill-opacity:1;stroke:#292ec6;stroke-width:0.499999;stroke-opacity:0"
       d="m 173.45288,24.755857 -0.64492,0.529167 0.52916,0.529167 0.27285,1.215429 -1.39733,-1.637109 0.75241,-1.016992 z"
       id="path260" /><path
       style="opacity:1;fill:#9f4636;fill-opacity:1;stroke:#292ec6;stroke-width:0.499999;stroke-opacity:0"
       d="m 175.90027,26.922133 0.0992,-0.760677 0.24805,-0.289388 -0.19017,0.537435 z"
       id="path261" /><path
       style="opacity:1;fill:#d08484;fill-opacity:1;stroke:#292ec6;stroke-width:0.499999;stroke-opacity:0"
       d="m 174.87055,23.181576 -0.78343,0.841899 -0.82436,-0.929595 0.97637,-0.795129 z"
       id="path262" /><path
       style="opacity:1;fill:#d08484;fill-opacity:1;stroke:#292ec6;stroke-width:0.499999;stroke-opacity:0"
       d="m 176.21447,23.176626 0.47129,0.917773 0.29765,-0.272852 0.31419,-0.859895 -0.37206,-0.694532 z"
       id="path263" /><path
       style="opacity:1;fill:#d08484;fill-opacity:1;stroke:#292ec6;stroke-width:0.499999;stroke-opacity:0"
       d="m 174.9577,21.374152 0.62838,0.810286 0.57878,-0.843359 -0.26459,-0.628386 -0.7276,-0.711067 -0.0992,0.992187 z"
       id="path264" /></g></svg>
