<?xml version="1.0" encoding="UTF-8" standalone="no"?>
<!-- Created with Inkscape (http://www.inkscape.org/) -->

<svg
   width="13.359267mm"
   height="24.747347mm"
   viewBox="0 0 13.359267 24.747347"
   version="1.1"
   id="svg1"
   xml:space="preserve"
   xmlns="http://www.w3.org/2000/svg"
   xmlns:svg="http://www.w3.org/2000/svg"><defs
     id="defs1" /><g
     id="g167"
     transform="matrix(0.34613548,0,0,0.34613548,-8.1227115,29.648055)"><path
       style="display:inline;opacity:1;fill:#098c00;fill-opacity:1;stroke:#17179a;stroke-width:1;stroke-opacity:0"
       d="m 38.921057,-84.478786 -8.86355,5.820834 -3.307288,3.439583 0.79375,5.953125 0.926042,7.276041 -3.96875,6.085415 -0.529167,6.48229 1.719792,6.61459 3.307291,7.408334 3.30729,3.70417 2.11667,1.19062 3.83646,8.99583 1.32291,2.51355 2.11667,1.32291 2.38125,0.52917 3.57188,-4.49792 2.51354,-4.49791 1.45521,-5.29167 3.70416,-2.38125 3.04271,-4.894794 1.5875,-7.14375 1.5875,-5.82083 -1.19062,-4.10105 -1.98438,-7.937496 0.39688,-5.55625 0.13229,-4.894792 -3.96875,-4.894791 -5.55625,-4.233334 -2.38125,-1.852083 z"
       id="path167" /><path
       style="opacity:1;fill:#025200;fill-opacity:1;stroke:#17179a;stroke-width:1;stroke-opacity:0.00357995"
       d="m 26.749358,-75.238564 8.161054,10.823744 2.525697,5.332027 1.309621,2.338609 1.403165,1.122532 c 0,0 1.590254,0.561266 2.15152,0.561266 0.561266,0 3.180506,-0.280633 3.180506,-0.280633 l 1.122532,-1.122532 2.057976,-5.051396 1.590252,-3.928861 3.086965,-3.461141 2.899873,-2.338608 2.629617,-1.584578 -0.02739,-1.221751 -4.098928,-5.144939 -7.483546,-5.799749 -8.418992,0.561266 -7.202913,4.77076 -2.619243,1.964433 z"
       id="path168" /><path
       style="opacity:1;fill:#046300;fill-opacity:1;stroke:#17179a;stroke-width:1;stroke-opacity:0"
       d="m 26.959143,-75.17242 3.336469,4.563089 4.68484,6.260018 2.482082,5.347908 1.326643,2.236468 0.587858,1.981454 1.038794,4.078582 1.089458,3.408693 0.795128,0.701583 -0.259882,22.334961 0.596687,9.19005 -3.683652,-2.17423 -1.891636,-7.41464 -1.870888,-5.14494 -1.216075,-4.11595 -2.33861,-9.447971 -1.403164,-9.541523 -1.870888,-12.534939 z"
       id="path169" /><path
       style="opacity:1;fill:#046300;fill-opacity:1;stroke:#17179a;stroke-width:1;stroke-opacity:0"
       d="m 58.801501,-72.839654 -2.608865,1.652672 -2.86583,2.125903 -3.077394,3.595044 -3.608674,8.851051 -1.083952,1.154631 -0.741138,4.806186 -0.361854,2.085777 -1.009615,2.266385 0.275932,21.133961 -0.378877,10.05229 1.514539,-0.48985 3.016115,-6.1248 2.201617,-4.5827 2.042898,-7.42323 2.33861,-9.447975 1.403164,-9.541523 1.870888,-12.534939 z"
       id="path169-2" /><path
       style="opacity:1;mix-blend-mode:normal;fill:#bfbf1a;fill-opacity:1;fill-rule:nonzero;stroke:#17179a;stroke-width:1;stroke-opacity:0.00357995"
       d="m 25.209199,-48.259049 -0.09354,1.449938 0.654809,1.449938 4.022405,-1.356395 0.04677,-1.496708 -0.280633,-1.075761 h -1.683797 z"
       id="path170" /><path
       style="opacity:1;fill:#bfbf1a;fill-opacity:1;fill-rule:nonzero;stroke:#17179a;stroke-width:1;stroke-opacity:0.00357995"
       d="m 25.592668,-55.374618 2.612761,-4.53099 0.562239,3.571875 z"
       id="path171" /><path
       style="opacity:1;fill:#bfbf1a;fill-opacity:1;fill-rule:nonzero;stroke:#17179a;stroke-width:1;stroke-opacity:0.00357995"
       d="m 28.602304,-38.970452 2.678906,-1.058333 -0.463021,-1.984375 c 0,0 -2.447396,-0.496094 -2.877344,1.5875 -0.429948,2.083593 0.661459,1.455208 0.661459,1.455208 z"
       id="path172" /><path
       style="opacity:1;fill:#bfbf1a;fill-opacity:1;fill-rule:nonzero;stroke:#17179a;stroke-width:1;stroke-opacity:0.00357995"
       d="m 29.065324,-37.845973 1.455209,-0.959114 1.223698,0.165364 v 1.058329 l 0.892968,2.97657 c 0,0 -2.083593,1.48828 -3.571875,-3.241149 z"
       id="path173" /><path
       style="mix-blend-mode:normal;fill:#bfbf1a;fill-opacity:1;fill-rule:nonzero;stroke:#17179a;stroke-width:1;stroke-opacity:0.00357995"
       d="m 60.429438,-49.065253 0.09354,1.449938 -0.654809,1.449937 -4.022405,-1.356394 -0.04677,-1.496708 0.280633,-1.075761 h 1.683797 z"
       id="path170-3" /><path
       style="fill:#bfbf1a;fill-opacity:1;fill-rule:nonzero;stroke:#17179a;stroke-width:1;stroke-opacity:0.00357995"
       d="m 60.045969,-56.180822 -2.612761,-4.53099 -0.562239,3.571875 z"
       id="path171-3" /><path
       style="fill:#bfbf1a;fill-opacity:1;fill-rule:nonzero;stroke:#17179a;stroke-width:1;stroke-opacity:0.00357995"
       d="m 57.036333,-39.776658 -2.678906,-1.05833 0.463021,-1.98438 c 0,0 2.447396,-0.49609 2.877344,1.5875 0.429948,2.0836 -0.661459,1.45521 -0.661459,1.45521 z"
       id="path172-8" /><path
       style="fill:#bfbf1a;fill-opacity:1;fill-rule:nonzero;stroke:#17179a;stroke-width:1;stroke-opacity:0.00357995"
       d="m 56.573313,-38.652178 -1.455209,-0.95911 -1.223698,0.16536 v 1.05833 l -0.892968,2.976574 c 0,0 2.083593,1.48828 3.571875,-3.241154 z"
       id="path173-8" /><path
       style="opacity:1;fill:#bfbf1a;fill-opacity:1;fill-rule:nonzero;stroke:#17179a;stroke-width:1;stroke-opacity:0.00357995"
       d="m 40.640845,-53.853264 0.727604,3.241146 1.322917,2.778125 1.455208,-3.241146 0.463021,-2.645834 -1.852083,0.198438 z"
       id="path174" /><path
       style="opacity:1;fill:#bfbf1a;fill-opacity:1;fill-rule:nonzero;stroke:#17179a;stroke-width:1;stroke-opacity:0.00357995"
       d="m 29.726783,-67.677743 0.727604,4.167187 1.124479,6.151563 1.190625,5.688541 2.447396,-3.373437 3.241146,2.645833 -1.12448,-4.696354 -3.241145,-5.688542 -1.389063,-2.711979 z"
       id="path175" /><path
       style="opacity:1;fill:#bfbf1a;fill-opacity:1;fill-rule:nonzero;stroke:#17179a;stroke-width:1;stroke-opacity:0.00357995"
       d="m 33.166366,-49.289202 2.645833,-2.910416 3.042709,1.852083 0.926041,3.373437 1.389063,1.852084 0.132291,11.77396 -3.373437,-2.97656 -1.984375,3.83645 z"
       id="path176" /><path
       style="opacity:1;fill:#bfbf1a;fill-opacity:1;fill-rule:nonzero;stroke:#17179a;stroke-width:1;stroke-opacity:0.00357995"
       d="m 36.738241,-30.569934 1.653646,5.82084 1.455208,5.95312 1.719792,1.52136 -0.529167,-5.29167 -0.330729,-8.46667 -2.38125,-2.77812 z"
       id="path177" /><path
       style="opacity:1;fill:#bfbf1a;fill-opacity:1;fill-rule:nonzero;stroke:#17179a;stroke-width:1;stroke-opacity:0.00357995"
       d="m 47.056991,-53.324098 1.256771,-3.770312 2.778125,-7.011458 5.423958,-4.299479 -0.661458,5.357812 -1.852084,10.583333 -2.579687,-3.108854 z"
       id="path178" /><path
       style="opacity:1;fill:#bfbf1a;fill-opacity:1;fill-rule:nonzero;stroke:#17179a;stroke-width:1;stroke-opacity:0.00357995"
       d="m 46.395532,-50.810556 4.564063,-2.248958 2.38125,3.307291 -0.79375,8.334375 -1.984375,8.268234 -2.116667,-3.175 -3.571875,2.64583 0.198438,-11.972397 1.322916,-3.175 z"
       id="path179" /><path
       style="opacity:1;fill:#bfbf1a;fill-opacity:1;fill-rule:nonzero;stroke:#17179a;stroke-width:1;stroke-opacity:0.00357995"
       d="m 44.675741,-31.495974 3.439583,-2.57969 1.5875,3.175 -0.992187,4.8948 -4.167188,8.99583 z"
       id="path180" /><path
       style="opacity:1;fill:#bfbf1a;fill-opacity:1;fill-rule:nonzero;stroke:#17179a;stroke-width:1;stroke-opacity:0.00357995"
       d="m 42.559074,-81.634514 -7.14375,7.011458 4.299479,0.198438 2.71198,14.485937 2.513541,-14.684375 4.630208,-0.06614 z"
       id="path181" /></g></svg>
