<?xml version="1.0" encoding="UTF-8" standalone="no"?>
<!-- Created with Inkscape (http://www.inkscape.org/) -->

<svg
   width="19.766745mm"
   height="19.235914mm"
   viewBox="0 0 19.766745 19.235914"
   version="1.1"
   id="svg1"
   xml:space="preserve"
   xmlns="http://www.w3.org/2000/svg"
   xmlns:svg="http://www.w3.org/2000/svg"><defs
     id="defs1" /><g
     id="g126"
     transform="matrix(0.8392366,0,0,0.8392366,-6.006548,21.780428)"><path
       style="fill:#71798d;fill-opacity:0.905882;stroke:#17179a;stroke-width:1.4602;stroke-opacity:0.00357995"
       d="m 8.3870693,-12.512295 -0.478081,3.6197296 1.570832,3.346548 3.9612167,1.77572 3.892918,-0.20489 4.575886,-2.39039 4.473439,-7.6150956 3.244104,-10.893344 -11.405569,3.346541 -7.307761,4.302699 z"
       id="path125-5-6-8-5-4-8-7" /><path
       style="fill:#717a8e;fill-opacity:1;stroke:#17179a;stroke-width:1.4465;stroke-opacity:0.00357995"
       d="m 8.5470473,-12.557816 -0.473592,3.5857746 1.556092,3.315154 1.0941887,0.490498 1.607077,-3.959348 -3.0874937,-1.0202876 1.5506327,0.3127056 0.735792,-1.4627346 -0.286317,1.5801956 1.250335,0.225329 1.083201,-2.6462376 -1.322815,4.1593776 2.814835,1.070766 -2.933199,-0.592039 -0.847894,2.55951 2.265716,1.041325 2.256055,-0.11874 0.607555,-0.03198 0.446118,-0.02348 0.546672,-0.02877 1.034246,-0.540278 -3.76745,-6.0785196 3.413406,-1.999926 -2.774663,2.219785 3.811816,5.5018136 2.815609,-1.470841 2.282144,-3.8848656 -3.514016,-2.759437 -1.445031,1.573757 2.086169,3.2374336 -0.680152,-0.846493 -1.564416,0.713348 1.467125,-0.87797 -1.486539,-1.9333416 -1.283178,1.2981616 -0.522359,0.345615 3.131334,-3.7718936 -4.041259,-3.203282 0.681315,0.188497 1.737476,1.1634 1.879868,-2.255968 -1.492899,-1.418752 -1.165609,1.144949 0.964682,-1.339731 -1.116726,-1.063792 3.15654,2.262117 1.688908,-2.026802 -3.51627,4.976896 5.55528,3.707683 1.629095,-2.773188 1.146046,-3.887441 -2.302785,-0.125572 -0.973498,4.661572 0.337914,-2.661031 -3.325218,-0.02243 3.378765,-0.287774 0.230461,-1.749216 -1.550483,-0.107741 4.35302,-0.16623 1.919448,-6.445302 -4.691227,1.372687 0.180269,1.466851 2.817073,-0.258566 -2.746683,0.610767 0.250947,2.26252 -0.912149,-3.957333 -6.19681,1.818226 -7.239212,4.262339 -0.828763,1.545529 3.199594,1.089355 0.459934,-1.294302 -2.211938,-0.764897 2.379174,0.294276 0.510007,-1.435212 -0.724665,3.36597 3.439492,1.145646 -7.4740077,-1.613102 z"
       id="path125-5-4" /></g></svg>
