<?xml version="1.0" encoding="UTF-8" standalone="no"?>
<!-- Created with Inkscape (http://www.inkscape.org/) -->

<svg
   width="19.96858mm"
   height="12.351124mm"
   viewBox="0 0 19.96858 12.351124"
   version="1.1"
   id="svg1"
   xml:space="preserve"
   xmlns="http://www.w3.org/2000/svg"
   xmlns:svg="http://www.w3.org/2000/svg"><defs
     id="defs1" /><g
     id="g295"
     transform="matrix(0.30804208,0.42257659,-0.42257659,0.30804208,-1.6752845,-143.17716)"><path
       style="opacity:1;fill:#e0e0e0;fill-opacity:1;stroke:#7de0e4;stroke-width:0.499999;stroke-opacity:1"
       d="m 246.88805,137.19862 7.67063,-2.47893 1.82411,2.85311 -0.74835,6.96905 0.8419,3.83532 -0.14032,3.74177 -1.1693,2.29183 -2.38538,1.21608 -3.46114,4.2095 -3.695,2.0112 -3.04019,-0.23386 -0.70159,-1.21608 0.65481,-2.29183 -3.74177,1.02898 -2.29183,-0.37417 c 0,0 -2.5257,-0.8419 -2.5257,-1.02899 0,-0.18709 -0.0935,-3.04019 -0.0935,-3.04019 l 0.37417,-0.37418 -2.19829,-1.21607 -0.46772,-1.49672 1.49671,-1.54348 1.30962,-0.23386 3.22728,-0.14031 c 0,0 2.33861,-0.18709 2.52569,-0.18709 0.18709,0 4.02241,-1.40317 4.02241,-1.40317 l 2.10475,-1.21607 1.1693,-2.05798 0.18709,-3.32082 -0.56127,-3.695 z"
       id="path265" /><path
       style="opacity:1;fill:#00ddff;fill-opacity:1;stroke:#292ec6;stroke-width:0.499999;stroke-opacity:0"
       d="m 242.1931,160.95235 1.96784,-0.89297 0.94258,-0.11576 0.79375,0.62839 0.33073,0.7276 -0.41341,1.4056 -1.45521,2.05052 -1.33945,1.14102 -1.09141,1.15755 -0.69453,-0.41341 -0.14883,-1.60404 0.16537,-1.19062 0.34726,-1.42214 0.39688,-1.12448 z"
       id="path266" /><path
       style="opacity:1;fill:#00ddff;fill-opacity:1;stroke:#292ec6;stroke-width:0.499999;stroke-opacity:0"
       d="m 233.87526,154.9 1.19063,-0.11575 0.90951,0.38034 0.76067,0.61185 0.51263,1.05833 -0.29765,0.87643 -0.52917,0.57878 0.0662,0.39687 -0.95912,0.51263 -1.35599,0.61185 -1.65364,1.37253 -1.52136,1.19062 -1.30638,0.71107 -0.38034,-0.56224 0.0827,-1.02526 0.4961,-0.99219 0.67799,-1.32291 0.38034,-0.66146 0.97565,-1.4056 0.82683,-1.12448 z"
       id="path267" /><path
       style="opacity:1;fill:#00ddff;fill-opacity:1;stroke:#292ec6;stroke-width:0.499999;stroke-opacity:0"
       d="m 232.33737,152.99831 -0.0331,-1.62057 0.66146,-0.77721 0.52917,-0.52917 -1.4056,0.0331 -1.52136,0.76068 -1.37252,0.7276 -1.24024,0.95912 -0.5457,0.71107 0.0992,0.44648 0.61185,0.24805 1.37252,-0.39688 1.81901,-0.39687 z"
       id="path268" /><path
       style="opacity:1;fill:#e0e0e0;fill-opacity:1;stroke:#7de0e4;stroke-width:0.499999;stroke-opacity:1"
       d="m 239.81185,153.39519 3.37344,0.26458 2.3151,-1.2237 0.66146,-1.78594 -2.61276,0.0331 -2.6789,1.05833 z"
       id="path269" /><path
       style="fill:#e0e0e0;fill-opacity:1;stroke:#7de0e4;stroke-width:0.499999;stroke-opacity:1"
       d="m 236.93175,155.69204 2.95176,1.03353 2.3151,-1.2237 0.66146,-1.78594 -2.94349,-0.28936 -1.95956,1.10794 z"
       id="path269-9" /><path
       style="fill:#e0e0e0;fill-opacity:1;stroke:#7de0e4;stroke-width:0.499999;stroke-opacity:1"
       d="m 234.98249,153.36072 2.85822,1.19722 2.16309,-0.93137 0.66146,-1.78594 -2.03143,0.0497 -2.63776,0.82731 z"
       id="path269-9-9" /><path
       style="opacity:1;fill:#e0e0e0;fill-opacity:1;stroke:#7de0e4;stroke-width:0.499999;stroke-opacity:1"
       d="m 234.94945,153.35841 -0.77174,0.91205 -0.30402,0.72497 1.27454,-0.22217 0.87698,0.36248 0.63143,0.52619 1.11083,-0.99391 z"
       id="path270" /><path
       style="opacity:1;fill:#e0e0e0;fill-opacity:1;stroke:#7de0e4;stroke-width:0.499999;stroke-opacity:1"
       d="m 236.77357,155.62685 0.44433,1.16931 -0.19878,0.8419 -0.59635,0.58465 v 0.45603 l 2.8648,0.18708 1.01729,-1.13422 -0.53787,-1.08745 z"
       id="path271" /><path
       style="opacity:1;fill:#e0e0e0;fill-opacity:1;stroke:#7de0e4;stroke-width:0.499999;stroke-opacity:1"
       d="m 239.58034,158.83568 3.14193,-0.64492 1.62057,-2.05052 -2.05052,-0.59531 -2.19935,1.20716 0.42995,0.99219 z"
       id="path272" /><path
       style="opacity:1;fill:#e0e0e0;fill-opacity:1;stroke:#7de0e4;stroke-width:0.499999;stroke-opacity:1"
       d="m 242.39154,155.44571 1.90169,0.57877 2.4474,-2.6789 0.77721,-0.92604 -1.9513,0.11575 -2.6293,1.25677 z"
       id="path273" /><path
       style="opacity:1;fill:#e0e0e0;fill-opacity:1;stroke:#7de0e4;stroke-width:0.499999;stroke-opacity:1"
       d="m 238.91888,151.74154 5.73816,-2.38125 -1.27331,1.35599 -2.69544,1.15755 z"
       id="path274" /><path
       style="display:inline;opacity:1;fill:#e0e0e0;fill-opacity:1;stroke:#7de0e4;stroke-width:0.499999;stroke-opacity:1"
       d="m 245.64922,152.38646 2.24896,-0.0992 1.37253,-1.80247 0.13229,-1.2237 -1.57096,0.41341 -1.55443,0.8599 z"
       id="path275" /><path
       style="display:inline;opacity:1;fill:#e0e0e0;fill-opacity:1;stroke:#7de0e4;stroke-width:0.499999;stroke-opacity:1"
       d="m 243.74753,150.6336 2.19935,0.0165 1.7694,-1.05833 0.0165,-1.60403 -1.62058,0.52916 -1.57096,1.07487 z"
       id="path276" /><path
       style="opacity:1;fill:#e0e0e0;fill-opacity:1;stroke:#7de0e4;stroke-width:0.499999;stroke-opacity:1"
       d="m 246.72409,156.96706 -0.28112,-1.43867 1.65365,-2.3151 2.54661,-0.76068 0.4961,1.5875 -1.12448,1.93476 z"
       id="path277" /><path
       style="fill:#e0e0e0;fill-opacity:1;stroke:#7de0e4;stroke-width:0.499999;stroke-opacity:1"
       d="m 246.06406,160.12152 -0.16537,-1.73633 0.89298,-1.38906 3.14192,-0.64492 0.69454,1.78594 -2.14974,1.70325 z"
       id="path277-7" /><path
       style="opacity:1;fill:#e0e0e0;fill-opacity:1;stroke:#7de0e4;stroke-width:0.499999;stroke-opacity:1"
       d="m 246.17839,160.12553 -0.33073,0.44648 0.39688,0.71107 0.69453,-0.0992 1.63711,-1.37253 z"
       id="path278" /><path
       style="opacity:1;fill:#e0e0e0;fill-opacity:1;stroke:#7de0e4;stroke-width:0.499999;stroke-opacity:1"
       d="m 246.4099,155.52839 -1.80247,0.29766 -1.52136,1.9513 0.28112,1.75286 2.64584,-1.14101 0.77721,-1.42214 z"
       id="path279" /><path
       style="opacity:1;fill:#e0e0e0;fill-opacity:1;stroke:#7de0e4;stroke-width:0.499999;stroke-opacity:1"
       d="m 243.06954,158.19076 -0.69454,0.59531 -0.34726,1.47175 -0.0331,0.77721 1.2733,-0.57878 0.0165,-1.22369 z"
       id="path280" /><path
       style="opacity:1;fill:#e0e0e0;fill-opacity:1;stroke:#7de0e4;stroke-width:0.499999;stroke-opacity:1"
       d="m 243.49948,160.39011 0.69453,-0.38034 0.90951,-0.0661 0.59531,0.54571 0.26459,-0.34727 -0.16537,-1.57096 -2.33164,1.0418 z"
       id="path281" /><path
       style="opacity:1;fill:#e0e0e0;fill-opacity:1;stroke:#7de0e4;stroke-width:0.499999;stroke-opacity:1"
       d="m 244.87201,155.6028 1.5875,-0.13229 1.55443,-2.18281 0.33073,-1.47174 -0.98392,0.85162 z"
       id="path282" /><path
       style="opacity:1;fill:#e0e0e0;fill-opacity:1;stroke:#7de0e4;stroke-width:0.499999;stroke-opacity:1"
       d="m 249.95697,156.10717 0.69453,2.14147 1.62057,-2.68718 0.48783,-1.49655 -0.39687,-1.19062 -1.24024,1.15755 z"
       id="path283" /><path
       style="opacity:1;fill:#e0e0e0;fill-opacity:1;stroke:#7de0e4;stroke-width:0.499999;stroke-opacity:1"
       d="m 248.42735,151.79942 -0.33073,1.30638 2.61276,-0.69453 0.65319,-1.64538 -0.33898,-1.52963 -1.695,1.30639 z"
       id="path284" /><path
       style="opacity:1;fill:#e0e0e0;fill-opacity:1;stroke:#7de0e4;stroke-width:0.499999;stroke-opacity:1"
       d="m 250.6267,152.43607 0.52916,1.3808 1.26504,-0.98392 0.59532,-1.88516 -0.44648,-1.4304 -1.1989,1.31465 z"
       id="path285" /><path
       style="opacity:1;fill:#e0e0e0;fill-opacity:1;stroke:#7de0e4;stroke-width:0.499999;stroke-opacity:1"
       d="m 252.79297,154.08972 -0.39687,1.69499 1.98745,-1.05266 z"
       id="path286" /><path
       style="opacity:1;fill:#e0e0e0;fill-opacity:1;stroke:#7de0e4;stroke-width:0.499999;stroke-opacity:1"
       d="m 236.75261,149.87292 1.81901,0.64492 2.24896,-0.38034 0.95911,-1.10794 z"
       id="path287" /><path
       style="opacity:1;fill:#e0e0e0;fill-opacity:1;stroke:#7de0e4;stroke-width:0.499999;stroke-opacity:1"
       d="m 238.40625,150.61706 -0.85989,0.92604 -2.21589,0.38034 -1.63711,-0.74414 1.37253,-1.15755 1.47174,-0.14883 z"
       id="path288" /><path
       style="opacity:1;fill:#e0e0e0;fill-opacity:1;stroke:#7de0e4;stroke-width:0.499999;stroke-opacity:1"
       d="m 238.4724,150.66667 -0.89297,0.95912 0.5457,0.21497 3.10886,-1.20716 0.71107,-0.31419 -1.0418,-0.0496 z"
       id="path289" /><path
       style="opacity:1;fill:#e0e0e0;fill-opacity:1;stroke:#7de0e4;stroke-width:0.499999;stroke-opacity:1"
       d="m 235.23125,152.00612 -1.12447,0.84336 0.85989,0.4961 1.15755,-0.76068 2.05052,-0.64492 -0.67799,-0.28112 z"
       id="path290" /><path
       style="opacity:1;fill:#e0e0e0;fill-opacity:1;stroke:#7de0e4;stroke-width:0.499999;stroke-opacity:1"
       d="m 234.02409,152.88256 -1.70325,0.0496 -0.39688,0.1819 2.16628,1.19062 0.77721,-0.92604 z"
       id="path291" /><path
       style="opacity:1;fill:#e0e0e0;fill-opacity:1;stroke:#7de0e4;stroke-width:0.499999;stroke-opacity:1"
       d="m 233.69336,151.27852 -1.17408,0.11575 -0.18194,1.42213 1.85209,0.0165 0.94258,-0.82683 z"
       id="path292" /><path
       style="opacity:1;fill:#e0e0e0;fill-opacity:1;stroke:#7de0e4;stroke-width:0.499999;stroke-opacity:1"
       d="m 233.41224,150.0879 -0.7321,0.93337 1.02976,0.25725 1.10794,-1.30638 z"
       id="path293" /><path
       style="opacity:1;fill:#e0e0e0;fill-opacity:1;stroke:#7de0e4;stroke-width:0.499999;stroke-opacity:1"
       d="m 241.11823,150.00521 0.90951,0.21498 2.43086,-0.97565 0.39687,-0.82683 -1.02526,-0.19843 -2.05052,0.7276 z"
       id="path294" /><path
       style="opacity:1;fill:#e0e0e0;fill-opacity:1;stroke:#7de0e4;stroke-width:0.499999;stroke-opacity:1"
       d="m 254.54584,150.89818 -0.82683,1.12448 0.0165,1.07487 0.81029,0.678 0.77721,-1.09141 -0.0496,-1.07487 z"
       id="path295" /></g></svg>
