<?xml version="1.0" encoding="UTF-8" standalone="no"?>
<!-- Created with Inkscape (http://www.inkscape.org/) -->

<svg
   width="24.862789mm"
   height="30.452866mm"
   viewBox="0 0 24.862789 30.452866"
   version="1.1"
   id="svg1"
   xml:space="preserve"
   xmlns="http://www.w3.org/2000/svg"
   xmlns:svg="http://www.w3.org/2000/svg"><defs
     id="defs1" /><g
     id="g19"
     transform="matrix(0.3285184,0,0,0.3285184,34.98511,-20.704789)"><path
       style="opacity:1;fill:#fff8c6;fill-opacity:1;stroke:#957b7b;stroke-width:1;stroke-opacity:0"
       d="m -70.149255,66.006008 0.46302,-1.76941 0.41341,-0.56223 0.23151,-0.0827 0.79375,0.66145 0.33073,1.17409 -0.0331,0.62839 z"
       id="path19" /><path
       style="fill:#fff4a7;fill-opacity:1;stroke:#957b7b;stroke-width:0.304515;stroke-opacity:0"
       d="m -71.890935,69.042608 0.47288,-2.32723 0.60605,-1.24476 0.38636,-0.26841 0.36731,0.0965 0.18519,0.23637 0.44833,-0.36448 0.48843,-0.28519 0.34644,0.002 0.22117,0.0933 0.17577,0.12551 0.23132,0.17753 0.19516,-0.25899 0.25487,-0.13275 0.20766,0.0533 0.27428,0.31101 0.14186,0.47188 0.15132,0.85797 -0.0189,0.94376 v 1.08318 z"
       id="path18-7-1" /><path
       style="fill:#fff08b;fill-opacity:1;stroke:#957b7b;stroke-width:0.528585;stroke-opacity:0"
       d="m -74.388925,74.669168 0.87409,-3.79356 1.12025,-2.02906 0.71416,-0.43753 0.67895,0.15734 0.34232,0.3853 0.8287,-0.59413 0.90283,-0.46488 0.64038,0.004 0.40882,0.15199 0.3249,0.20459 0.42759,0.28939 0.36074,-0.42216 0.47111,-0.21641 0.38385,0.087 0.50697,0.50698 0.26223,0.7692 0.27971,1.39854 -0.035,1.5384 v 1.76567 z"
       id="path18-7" /><path
       style="opacity:1;fill:#ffea4d;fill-opacity:1;stroke:#957b7b;stroke-width:1;stroke-opacity:0"
       d="m -78.682065,85.386728 1.65364,-7.17682 1.5875,-3.00964 1.55443,-1.42213 1.19063,0.29765 0.69453,0.46303 1.05833,-0.69454 0.92604,-0.7276 1.02526,0.19844 0.46302,0.42995 1.09141,-0.52917 0.82682,-0.76068 0.8599,0.79375 h 0.49609 l 0.76068,-0.59531 0.69453,-0.33073 1.15755,0.42995 0.95912,0.95911 0.49609,1.45521 0.52917,2.64583 -0.0661,2.91042 v 3.34037 z"
       id="path18" /><path
       style="fill:#faee00;fill-opacity:1"
       d="m -67.459255,142.58763 c -1.58444,-2.30285 -2.68256,-5.38017 -5.6161,-6.51329 -3.76911,-2.50005 -2.76288,-7.93076 -6.14428,-10.72854 -4.61911,-4.6885 -8.39654,-10.2728 -10.72469,-16.43826 -1.43736,-4.52372 -1.86219,-9.527451 0.13334,-13.965381 1.47439,-3.964011 4.46582,-7.030351 7.56761,-9.769721 0.62245,-1.19396 1.52622,-1.72072 2.38382,-2.05793 0.8856,-0.34821 1.55765,1.61579 2.81539,1.59197 1.48797,-0.0282 1.7434,-1.80068 3.20535,-1.98344 0.67277,-0.0841 1.85007,1.3652 3.06182,1.12401 1.22487,-0.24381 1.31583,-1.74594 2.47153,-2.08999 1.2721,-0.37871 1.42019,0.93433 2.79199,0.60192 1.30657,-0.3166 1.75756,-1.87205 2.6053,-2.0497 0.60766,-0.12735 1.50139,0.65757 2.02123,0.55618 0.77265,-0.15071 1.24774,-1.76713 1.8574,-1.77606 1.03298,-0.11651 1.73978,0.69218 2.25926,0.99051 0.99458,0.57117 2.09079,1.95036 2.40929,3.43067 1.10799,3.47573 0.98655,7.54948 -0.22626,11.566771 4.95032,2.99322 8.55097,7.807441 9.26113,13.752591 1.32721,9.09079 -0.72159,19.1155 -7.35815,25.80392 -2.63139,2.36682 -4.97889,5.34876 -8.29639,6.75426 -1.45898,2.29139 -4.27134,2.13774 -6.47859,1.19951 z"
       id="path16" /><path
       d="m -59.855705,142.09347 c 1.82846,-1.44452 5.00035,-3.82485 6.8466,-5.25297 1.21852,-1.06251 2.58239,-3.76803 3.8506,-4.76389 1.04929,-1.26384 2.55713,-4.36601 2.98677,-6.06013 0.85829,-2.27187 1.62936,-5.12681 1.90582,-7.52854 0.33613,-4.52031 -0.18718,-10.48168 -2.13133,-14.48664 -1.73527,-3.42218 -4.44452,-7.950551 -8.33016,-8.169931 -4.20572,0.23447 -13.64071,6.056421 -16.10262,10.156791 -2.83672,4.664 -4.02941,9.64196 -3.06416,14.8221 0.78925,3.90552 1.55275,7.99841 3.15127,11.6481 0.6514,1.50931 1.79134,3.76051 2.01242,5.4806 0.27781,1.26526 1.67684,5.46512 1.80323,5.25539 0.87607,-0.14869 3.10853,1.15255 7.07156,-1.10088 z"
       style="fill:#ffee70;fill-opacity:1;stroke-width:0.975812"
       id="path1-93" /><path
       style="opacity:1;fill:#e3c900;fill-opacity:1;stroke:#957b7b;stroke-width:1;stroke-opacity:0"
       d="m -53.959605,100.28801 -1.6838,0.98221 -0.70158,1.82412 -5.23848,3.78854 -4.58367,6.54811 -1.21608,7.01582 1.63702,7.53032 1.77735,2.0112 0.18708,2.19829 -1.12253,2.5257 -0.93544,6.31424 -0.0824,2.22182 2.1018,0.18709 3.85472,-1.07783 3.63294,-2.93752 4.35893,-3.52114 4.32083,-5.67017 2.55262,-6.91566 1.18755,-6.11142 -0.36506,-4.05137 -1.35639,-3.18051 -1.87088,-2.75956 -1.6838,-2.47893 -3.3676,-1.63702 -0.42095,-2.10475 z"
       id="path17" /><path
       style="opacity:1;fill:#f3ff47;fill-opacity:1;stroke:#957b7b;stroke-width:1;stroke-opacity:0"
       id="path20"
       d="m 179.619,33.271441 -2.19832,-4.019474 -4.01947,-2.198323 4.01947,-2.198323 2.19832,-4.019473 2.19833,4.019473 4.01947,2.198323 -4.01947,2.198323 z"
       transform="matrix(2.1372681,0,0,3.0439696,-474.87142,51.273238)" /><path
       style="fill:#f3ff47;fill-opacity:1;stroke:#957b7b;stroke-width:1;stroke-opacity:0"
       id="path20-3"
       d="m 179.619,33.271441 -2.19832,-4.019474 -4.01947,-2.198323 4.01947,-2.198323 2.19832,-4.019473 2.19833,4.019473 4.01947,2.198323 -4.01947,2.198323 z"
       transform="matrix(1.4732356,0,0,2.0982321,-306.12855,33.009338)" /></g></svg>
