<?xml version="1.0" encoding="UTF-8" standalone="no"?>
<!-- Created with Inkscape (http://www.inkscape.org/) -->

<svg
   width="21.007875mm"
   height="20.642311mm"
   viewBox="0 0 21.007875 20.642311"
   version="1.1"
   id="svg1"
   xml:space="preserve"
   xmlns="http://www.w3.org/2000/svg"
   xmlns:svg="http://www.w3.org/2000/svg"><defs
     id="defs1" /><g
     id="g127"
     transform="matrix(0.81365855,0,0,0.81365855,-5.716615,4.1028023)"><path
       style="fill:#faee00;fill-opacity:1;stroke:#17179a;stroke-width:1.4602;stroke-opacity:0.00357995"
       d="m 8.8469206,8.397963 -0.478081,3.61973 1.570832,3.346542 3.9612174,1.775725 3.892918,-0.204894 4.575886,-2.390393 4.473439,-7.615092 3.244104,-10.893344 -11.405569,3.34654098 -7.307761,4.30269902 z"
       id="path125-5-6-8-5" /><path
       style="fill:#ffee70;fill-opacity:1;stroke:#17179a;stroke-width:1.23228;stroke-opacity:0.00357995"
       d="m 10.25355,8.673904 -0.4034564,3.054722 1.3256394,2.824176 3.342903,1.498549 3.285267,-0.172913 3.861628,-2.017273 3.775174,-6.426439 2.737728,-9.192988 -9.625257,2.824175 -6.167081,3.631084 z"
       id="path125-5-6-8-5-2" /><path
       style="fill:#f3ff47;fill-opacity:1;stroke:#957b7b;stroke-width:1;stroke-opacity:0"
       id="path20-5"
       d="m 179.619,33.271441 -2.19832,-4.019474 -4.01947,-2.198323 4.01947,-2.198323 2.19832,-4.019473 2.19833,4.019473 4.01947,2.198323 -4.01947,2.198323 z"
       transform="matrix(0.3349521,0,0,0.47705012,-50.706259,-11.053561)" /><path
       style="fill:#f3ff47;fill-opacity:1;stroke:#957b7b;stroke-width:1;stroke-opacity:0"
       id="path20-3-8"
       d="m 179.619,33.271441 -2.19832,-4.019474 -4.01947,-2.198323 4.01947,-2.198323 2.19832,-4.019473 2.19833,4.019473 4.01947,2.198323 -4.01947,2.198323 z"
       transform="matrix(0.64592195,0,0,0.91994395,-87.864278,-11.239119)" /><path
       style="opacity:1;fill:#ffffff;fill-opacity:1;stroke:#d100ff;stroke-width:1;stroke-opacity:0"
       d="m 11.117422,10.825531 0.654406,-2.203848 0.725308,-1.55343 0.712878,-1.264819 3.315661,-1.590824 3.256851,-1.126141 c 0,0 3.241146,-1.488281 3.40651,-1.521354 0.165365,-0.03307 2.38125,-0.92604202 2.38125,-0.92604202 l -2.711979,-0.03307 c 0,0 -3.422619,0.80045702 -3.984858,1.03196802 -0.980183,0.403603 -6.171827,3.438091 -6.212949,3.520343 -0.03088,0.06176 -0.532097,0.82509 -0.883236,1.64646 -0.401054,0.93813 -0.656173,1.944847 -0.656173,1.944847 z"
       id="path126" /></g></svg>
