<?xml version="1.0" encoding="UTF-8" standalone="no"?>
<!-- Created with Inkscape (http://www.inkscape.org/) -->

<svg
   width="22.653322mm"
   height="23.56794mm"
   viewBox="0 0 22.653322 23.56794"
   version="1.1"
   id="svg1"
   xml:space="preserve"
   xmlns="http://www.w3.org/2000/svg"
   xmlns:svg="http://www.w3.org/2000/svg"><defs
     id="defs1" /><g
     id="g461"
     transform="matrix(0.92647061,0,0,0.92647061,-101.99892,-131.91324)"><path
       style="fill:#0600ce;fill-opacity:1;stroke:#ff8aff;stroke-width:0.421785;stroke-dasharray:none;stroke-opacity:1"
       d="m 123.70585,142.8021 3.33376,0.59973 4.11205,0.0666 2.93694,-0.75137 -1.67082,2.68384 0.53308,2.26565 -0.19958,3.68437 -0.18168,8.73102 -0.97392,3.40119 -2.80148,3.97704 -2.79792,-3.79845 -8.95577,2.1993 1.84435,-4.51051 -8.6866,0.68853 6.99906,-3.97714 2.33229,-2.26565 2.24378,-2.5322 1.95336,-2.65127 0.87622,-2.5511 0.10048,-2.38211 z"
       id="path417-4-2" /><path
       style="fill:#040099;fill-opacity:1;stroke:none;stroke-width:0.626255;stroke-dasharray:none;stroke-opacity:1"
       d="m 117.14669,160.0108 5.47229,-0.83391 -0.76959,2.90341 5.1072,-1.50418 1.88897,2.65854 3.67298,-3.28819 0.07,-8.29044 -2.27375,-5.45701 -1.88897,1.81901 -1.99389,-2.06388 -0.5597,2.3787 -0.66463,2.7285 -2.27375,4.58248 -3.7021,3.3069 z"
       id="path453-3-6" /><path
       style="fill:#1294ff;fill-opacity:1;stroke:none;stroke-width:0.481074;stroke-dasharray:none;stroke-opacity:1"
       d="m 124.17436,156.49236 2.54511,-3.94244 0.74856,-1.99616 1.49713,-0.0499 0.34933,2.84454 -0.49905,3.54319 -0.90561,-0.26023 -0.27769,-3.46085 -2.08159,3.27195 z"
       id="path461-8" /><path
       style="fill:#1294ff;fill-opacity:1;stroke:none;stroke-width:0.377776;stroke-dasharray:none;stroke-opacity:1"
       d="m 125.77297,156.40968 1.76655,-2.85418 0.17318,2.52858 z"
       id="path462" /><path
       style="fill:#0700ef;fill-opacity:1;stroke:#ff8aff;stroke-width:0.377778;stroke-dasharray:none;stroke-opacity:1"
       d="m 132.75759,147.83827 -12.30521,14.57815 7.01476,-0.90134 -1.72429,4.70263 5.99322,-2.67506 1.17828,-3.63429 z"
       id="path455-4-0" /><path
       style="fill:#1294ff;fill-opacity:1;stroke:none;stroke-width:0.377776;stroke-dasharray:none;stroke-opacity:1"
       d="m 131.80237,150.7901 -3.23305,4.03643 2.44928,-1.41079 0.97972,2.97833 z"
       id="path463" /><path
       style="fill:#1294ff;fill-opacity:1;stroke:none;stroke-width:0.377776;stroke-dasharray:none;stroke-opacity:1"
       d="m 123.06332,161.21427 4.15399,-0.72499 -2.15537,-0.37229 1.23444,-2.99793 z"
       id="path464" /><path
       style="fill:#1294ff;fill-opacity:1;stroke:none;stroke-width:0.377776;stroke-dasharray:none;stroke-opacity:1"
       d="m 128.17743,161.76291 -0.96012,2.89995 3.93845,-1.50876 -2.4101,0.27432 z"
       id="path465" /><path
       style="fill:#1294ff;fill-opacity:1;stroke:none;stroke-width:0.30997;stroke-dasharray:none;stroke-opacity:1"
       d="m 127.15853,145.80461 1.23796,1.22189 1.2701,-1.2862 -1.2058,-1.31834 z"
       id="path466" /></g></svg>
