<?xml version="1.0" encoding="UTF-8" standalone="no"?>
<!-- Created with Inkscape (http://www.inkscape.org/) -->

<svg
   width="22.889812mm"
   height="29.91433mm"
   viewBox="0 0 22.889812 29.91433"
   version="1.1"
   id="svg1"
   xml:space="preserve"
   xmlns="http://www.w3.org/2000/svg"
   xmlns:svg="http://www.w3.org/2000/svg"><defs
     id="defs1" /><g
     id="g297"
     transform="translate(-8.0090137,-131.35037)"><path
       style="fill:#ffee70;fill-opacity:1;stroke-width:0.499999"
       d="m 15.186653,161.2647 -1.800729,-3.13374 -1.122532,-3.50791 0.07016,-3.81193 0.467721,-1.94104 -1.333007,-2.6894 0.02339,-3.13374 0.65481,-1.63702 1.753956,-1.49671 1.520096,0.0468 1.496709,1.05238 0.865285,0.51449 2.268449,-1.87089 1.309621,-0.3274 1.637025,0.86528 0.701583,1.30962 0.397565,2.80633 -0.02339,2.22168 -0.444336,0.98222 -0.631425,1.14591 0.631425,1.05238 0.912056,1.89427 0.02339,0.93544 0.187089,1.8475 0.257247,2.82972 -0.18709,2.0112 -0.795125,1.26285 -1.403165,-1.19269 -0.678196,-1.5201 -0.608039,-2.31522 -0.795126,-1.70718 -1.403165,-1.61364 -1.07576,-0.46772 -1.216076,1.26284 -0.631424,1.54349 -0.187089,2.12813 -0.02339,1.56687 -0.07016,1.30962 -0.374177,1.09914 z"
       id="path296" /><path
       style="fill:#e7dc00;fill-opacity:0.996078;stroke-width:0.499999"
       d="m 14.67275,142.15365 1.438244,1.22777 1.800728,0.0351 2.15152,-1.22776 -2.093055,0.53787 -1.648719,-0.0117 -0.637406,-0.21699 z"
       id="path297" /><path
       style="fill:#f3ff47;fill-opacity:1;stroke:#957b7b;stroke-width:1;stroke-opacity:0"
       id="path20-5-4"
       d="m 179.619,33.271441 -2.19832,-4.019474 -4.01947,-2.198323 4.01947,-2.198323 2.19832,-4.019473 2.19833,4.019473 4.01947,2.198323 -4.01947,2.198323 z"
       transform="matrix(0.3349521,0,0,0.47705012,-49.723061,144.70946)" /><path
       style="fill:#f3ff47;fill-opacity:1;stroke:#957b7b;stroke-width:1;stroke-opacity:0"
       id="path20-3-8-7"
       d="m 179.619,33.271441 -2.19832,-4.019474 -4.01947,-2.198323 4.01947,-2.198323 2.19832,-4.019473 2.19833,4.019473 4.01947,2.198323 -4.01947,2.198323 z"
       transform="matrix(0.64592195,0,0,0.91994395,-89.8103,113.14115)" /></g></svg>
