<?xml version="1.0" encoding="UTF-8" standalone="no"?>
<!-- Created with Inkscape (http://www.inkscape.org/) -->

<svg
   width="19.79199mm"
   height="18.041624mm"
   viewBox="0 0 19.79199 18.041624"
   version="1.1"
   id="svg1"
   xml:space="preserve"
   xmlns="http://www.w3.org/2000/svg"
   xmlns:svg="http://www.w3.org/2000/svg"><defs
     id="defs1" /><g
     id="g378"
     transform="matrix(0.43403298,0,0,0.43403298,70.744832,-144.32711)"><path
       style="fill:#040086;fill-opacity:1;stroke-width:0.865122"
       d="m -160.30159,371.12743 c -0.90954,-0.45419 -2.00644,-1.36733 -2.27181,-1.89122 -0.27235,-0.53765 -0.40202,-1.25607 -0.32548,-1.80311 0.0333,-0.23774 0.0275,-0.37567 -0.0213,-0.51236 -0.44014,-1.23209 1.17418,-3.08832 3.47926,-4.00064 1.4111,-0.55849 3.75766,-0.92221 5.96782,-0.92498 l 0.62891,-7.9e-4 0.0511,-0.13454 22.69313,3.79631 c 0,0 2.53496,0.46185 3.6142,0.61624 1.61754,0.23139 2.79187,0.33322 3.84274,0.33322 1.30963,0 1.95914,-0.11853 2.94096,-0.53669 0.30908,-0.13165 0.3459,-0.13628 0.64045,-0.0806 0.81597,0.15421 1.33731,0.42631 1.51329,0.78985 0.17128,0.3538 0.11692,0.69547 -0.17058,1.07212 -0.0934,0.12228 -0.26167,0.43071 -0.37406,0.68539 -0.59255,1.34279 -1.4883,2.44879 -2.52625,3.1192 -1.39173,0.89891 -3.50785,1.41504 -6.32143,1.54182 l -6.24365,0.6399 -15.85608,0.25653 -7.2156,-1.38876 z"
       id="path372-67-3-1" /><path
       style="fill:#0600cc;fill-opacity:1;stroke-width:0.865122"
       d="m -151.77158,363.12243 0.0532,-0.39945 c 0,0 0.40631,-1.28214 0.45535,-1.3385 0.0491,-0.0563 0.25041,-0.5636 0.44749,-1.1272 3.37177,-9.64251 6.90121,-17.51322 9.93702,-22.15966 1.31472,-2.01223 2.63698,-3.55784 3.67701,-4.29809 1.73524,-1.23508 3.93671,-1.59682 5.9421,-0.97639 0.90147,0.27891 1.49552,0.68489 2.53674,1.73362 1.24039,1.24935 1.98406,2.35273 3.45703,5.12918 0.27658,0.52133 0.70694,1.30866 0.95636,1.74963 0.24943,0.44097 0.4535,0.81248 0.4535,0.82557 0,0.0436 -1.44252,-0.3736 -1.89244,-0.54736 -0.88285,-0.34096 -1.42566,-0.66162 -2.43732,-1.43985 -0.98665,-0.759 -1.47466,-0.97937 -2.43511,-1.09965 -0.50367,-0.0631 -1.90867,-0.0548 -1.97484,0.0116 -0.0417,0.0419 -0.0442,0.017 0.54012,5.3803 0.22642,2.07826 0.59676,5.47907 0.82296,7.55734 0.2262,2.07827 0.59462,5.46178 0.81871,7.51891 0.22408,2.05714 0.5165,4.74894 0.64981,5.98179 0.19796,1.83059 0.11898,1.17313 0.11898,1.17313 z"
       id="path372-6-4-8" /><path
       style="fill:#c739ff;fill-opacity:1;stroke:none;stroke-width:0.43256;stroke-dasharray:none;stroke-opacity:0.631373"
       d="m -150.39099,358.99847 c 0.16186,0 2.26193,-0.27436 2.26193,-0.27436 l 3.11569,-0.16185 3.60127,0.20231 2.42781,0.28325 3.39895,0.52603 4.37005,0.84973 0.97114,0.28325 0.72833,5.05796 -5.70535,-1.21392 -4.81517,-1.05205 -4.73424,-0.80927 -3.60127,-0.20232 -3.31801,-0.24278 0.66764,-1.61349 z"
       id="path374-6-6" /><path
       style="fill:#0600cc;fill-opacity:1;stroke:none;stroke-width:0.43256;stroke-dasharray:none;stroke-opacity:0.631373"
       d="m -162.92591,366.18837 1.21391,-1.73994 2.95384,-0.7688 3.88451,-0.36418 5.82676,0.24278 5.13702,0.76558 7.5536,2.17452 5.43628,1.85979 3.89126,0.77253 2.74676,0.22889 2.57509,-0.48641 3.98347,-1.01962 0.23397,-0.22221 0.0955,-0.37343 -0.15995,-0.59346 -0.5074,-0.34267 -0.87021,-0.42426 -0.68669,-0.0286 -0.74391,0.31474 -1.25894,0.2289 -1.77395,0.11444 -3.89125,-0.42917 -6.20882,-1.20171 -6.09437,-1.43061 -5.35047,-0.9442 -5.63658,-0.54363 -3.43345,-0.17167 -3.63374,0.45779 -2.46064,0.7153 -2.06007,1.40199 -0.82976,1.37339 z"
       id="path373-8-5" /><path
       style="opacity:1;fill:#0700f4;fill-opacity:1;stroke:none;stroke-width:0.499999;stroke-dasharray:none;stroke-opacity:0.631373"
       d="m -150.15345,358.23153 2.12307,-0.31211 3.10318,-0.0592 3.78327,0.25323 4.60001,0.51116 3.8313,0.76871 2.36885,0.437 -0.44835,-4.16321 -1.04639,-1.8801 -1.3702,1.28812 -0.98271,-1.74195 -1.91142,1.32696 -1.54349,-1.83979 -2.78143,1.62218 -1.43228,-1.96946 -2.88956,1.79327 -1.90821,-1.90488 -2.11704,2.14721 z"
       id="path378" /><path
       style="fill:#e3a300;fill-opacity:1;stroke:none;stroke-width:0.43256;stroke-dasharray:none;stroke-opacity:0.631373"
       d="m -138.96549,358.53305 0.71996,-0.28846 0.15,5.61954 -0.95089,-0.20232 z"
       id="path375-5-9" /><path
       style="fill:#ffb700;fill-opacity:1;stroke:none;stroke-width:0.43256;stroke-dasharray:none;stroke-opacity:0.631373"
       d="m -138.24727,358.24981 2.9235,0.20232 2.7313,0.81938 0.7688,5.98862 -6.28198,-1.39599 z"
       id="path376-2-0" /><path
       style="fill:#1294ff;fill-opacity:1;stroke:none;stroke-width:0.43256;stroke-dasharray:none;stroke-opacity:0.631373"
       d="m -136.78557,363.64159 0.93066,0.18208 0.698,-1.83098 0.80927,2.14458 0.88009,0.19219 -1.18357,-4.81517 -1.14309,-0.20232 z"
       id="path377-6-0" /><path
       style="opacity:1;fill:#1294ff;fill-opacity:1;stroke:none;stroke-width:0.499999;stroke-dasharray:none;stroke-opacity:0.631373"
       d="m -135.59679,363.83969 0.94714,0.1754 -0.49111,-1.53179 z"
       id="path377" /></g></svg>
