<?xml version="1.0" encoding="UTF-8" standalone="no"?>
<!-- Created with Inkscape (http://www.inkscape.org/) -->

<svg
   width="12.838696mm"
   height="23.014843mm"
   viewBox="0 0 12.838696 23.014843"
   version="1.1"
   id="svg1"
   xml:space="preserve"
   xmlns="http://www.w3.org/2000/svg"
   xmlns:svg="http://www.w3.org/2000/svg"><defs
     id="defs1" /><g
     id="g416"
     transform="matrix(0.79400122,0,0,0.79400122,83.682743,-212.65334)"><path
       id="rect408"
       style="fill:#ebdb00;fill-opacity:1;stroke:#aa9e00;stroke-width:0.569;stroke-dasharray:none;stroke-opacity:0.996078"
       d="m -97.482634,268.36358 -0.297143,4.27829 -2.557983,3.44216 3.392043,0.23514 -6.890533,17.96169 1.46916,0.56327 6.911202,-18.01492 2.838072,2.10994 0.297143,-4.27829 2.55798,-3.44216 -4.27829,-0.29714 z" /><path
       style="fill:#c9bc00;fill-opacity:1;stroke:#aa9e00;stroke-width:0.842492;stroke-dasharray:none;stroke-opacity:0.996078"
       d="m -100.08484,284.66032 0.262134,3.29238 -0.798814,4.58544 -1.82232,3.7539 -2.45253,-0.83599 0.92034,-3.92157 z"
       id="path408" /><path
       style="fill:#ebdb00;fill-opacity:1;stroke:none;stroke-width:0.569;stroke-dasharray:none;stroke-opacity:0.996078"
       d="m -103.51888,292.81236 1.2889,-2.20566 0.67168,0.17246 -0.29953,2.48703 -0.55368,-0.1543 0.0726,-1.10736 -0.65807,0.94852 z"
       id="path409" /><path
       style="fill:#f5eaff;fill-opacity:1;stroke:none;stroke-width:0.569;stroke-dasharray:none;stroke-opacity:1"
       id="path413"
       d="m 44.208844,212.36676 -2.005339,-0.43404 -1.922625,0.71644 0.434036,-2.00534 -0.716438,-1.92262 2.005338,0.43403 1.922625,-0.71644 -0.434036,2.00534 z"
       transform="matrix(0.5873556,0.29570061,-0.29570061,0.5873556,-57.504647,137.64862)" /></g></svg>
