<?xml version="1.0" encoding="UTF-8" standalone="no"?>
<!-- Created with Inkscape (http://www.inkscape.org/) -->

<svg
   width="11.885892mm"
   height="22.994173mm"
   viewBox="0 0 11.885892 22.994173"
   version="1.1"
   id="svg1"
   xml:space="preserve"
   xmlns="http://www.w3.org/2000/svg"
   xmlns:svg="http://www.w3.org/2000/svg"><defs
     id="defs1" /><g
     id="g415"
     transform="matrix(0.79400122,0,0,0.79400122,45.939417,-214.00023)"><rect
       style="fill:#0700ef;fill-opacity:1;stroke:#040086;stroke-width:0.569;stroke-dasharray:none;stroke-opacity:1"
       id="rect410"
       width="1.5917238"
       height="20.332989"
       x="36.713207"
       y="278.95895"
       transform="rotate(17.661238)" /><path
       style="fill:#4ba7ff;fill-opacity:1;stroke:none;stroke-width:0.521252;stroke-dasharray:none;stroke-opacity:1"
       d="m -52.172471,286.34757 -0.09997,0.41392 0.371544,-0.0797 0.318458,0.2483 0.134738,-0.4223 -0.329345,-0.23574 z"
       id="path415-5-4" /><path
       style="fill:#0600cc;fill-opacity:1;stroke:#040086;stroke-width:0.842492;stroke-dasharray:none;stroke-opacity:1"
       d="m -52.549242,286.33063 0.262137,3.29238 -0.798818,4.58544 -1.822313,3.7539 -2.452532,-0.83599 0.920342,-3.92157 z"
       id="path408-6" /><path
       style="fill:#1294ff;fill-opacity:1;fill-rule:nonzero;stroke:none;stroke-width:0.569;stroke-dasharray:none;stroke-opacity:0.996078"
       d="m -55.971933,294.51796 1.284364,-2.1807 0.671679,0.17246 -0.285917,2.46207 -0.553683,-0.1543 0.05899,-1.0824 -0.660337,0.92356 z"
       id="path409-3" /><path
       style="fill:#1294ff;fill-opacity:1;stroke:none;stroke-width:0.569;stroke-dasharray:none;stroke-opacity:1"
       d="m -55.345753,294.68889 0.436441,-0.60332 -0.05848,0.69357 z"
       id="path411" /><path
       style="fill:#0700ef;fill-opacity:1;stroke:#040086;stroke-width:0.569;stroke-dasharray:none;stroke-opacity:1"
       id="path412"
       d="m 72.432569,218.20541 -2.927309,-0.46507 -2.563715,1.48755 -0.462281,-2.92775 -2.20697,-1.97857 2.641602,-1.34438 1.199733,-2.71036 2.094881,2.09688 2.948446,0.30346 -1.346895,2.64033 z"
       transform="rotate(27.63017,-110.77819,6.5863229)" /><path
       style="fill:#f7e0ff;fill-opacity:1;stroke:none;stroke-width:0.569;stroke-dasharray:none;stroke-opacity:1"
       id="path412-5"
       d="m 72.432569,218.20541 -2.927309,-0.46507 -2.563715,1.48755 -0.462281,-2.92775 -2.20697,-1.97857 2.641602,-1.34438 1.199733,-2.71036 2.094881,2.09688 2.948446,0.30346 -1.346895,2.64033 z"
       transform="matrix(0.24931394,0.13050538,-0.13050538,0.24931394,-37.290445,212.15765)" /><path
       style="fill:#f7e0ff;fill-opacity:1;stroke:none;stroke-width:0.569;stroke-dasharray:none;stroke-opacity:1"
       d="m -49.518172,274.02349 0.25415,0.7443 -0.199689,0.7806 -0.644451,0.0182 0.263226,-0.78061 -0.235995,-0.77152 z"
       id="path414" /><path
       style="fill:#f7e0ff;fill-opacity:1;stroke:none;stroke-width:0.569;stroke-dasharray:none;stroke-opacity:1"
       d="m -49.242695,275.7963 0.78649,-0.003 0.675803,0.43875 -0.188771,0.61646 -0.655501,-0.49896 -0.806478,-0.023 z"
       id="path414-4" /><path
       style="fill:#f7e0ff;fill-opacity:1;stroke:none;stroke-width:0.569;stroke-dasharray:none;stroke-opacity:1"
       d="m -47.498116,276.09907 0.236145,-0.75021 0.623369,-0.51051 0.529941,0.36718 -0.674561,0.47287 -0.266991,0.76135 z"
       id="path414-4-53" /><path
       style="fill:#f7e0ff;fill-opacity:1;stroke:none;stroke-width:0.569;stroke-dasharray:none;stroke-opacity:1"
       d="m -46.625716,274.59013 -0.628123,-0.47332 -0.272903,-0.75811 0.523136,-0.37681 0.22032,0.79379 0.628379,0.50604 z"
       id="path414-0" /><path
       style="fill:#f7e0ff;fill-opacity:1;stroke:none;stroke-width:0.569;stroke-dasharray:none;stroke-opacity:1"
       d="m -47.848808,273.27758 -0.649219,0.44396 -0.805572,0.0162 -0.189799,-0.61614 0.822565,0.045 0.680354,-0.43366 z"
       id="path414-4-5" /><path
       style="fill:#becdff;fill-opacity:1;stroke:none;stroke-width:0.521252;stroke-dasharray:none;stroke-opacity:1"
       d="m -49.488748,277.81014 -0.09997,0.41392 0.371544,-0.0797 0.318458,0.2483 0.134738,-0.4223 -0.329345,-0.23574 z"
       id="path415" /><path
       style="fill:#85baff;fill-opacity:1;stroke:none;stroke-width:0.521252;stroke-dasharray:none;stroke-opacity:1"
       d="m -50.739277,281.76932 -0.09997,0.41392 0.371544,-0.0797 0.318458,0.2483 0.134738,-0.4223 -0.329345,-0.23574 z"
       id="path415-5" /></g></svg>
