<?xml version="1.0" encoding="UTF-8" standalone="no"?>
<!-- Created with Inkscape (http://www.inkscape.org/) -->

<svg
   width="17.697521mm"
   height="17.205896mm"
   viewBox="0 0 17.697521 17.205896"
   version="1.1"
   id="svg1"
   xml:space="preserve"
   xmlns="http://www.w3.org/2000/svg"
   xmlns:svg="http://www.w3.org/2000/svg"><defs
     id="defs1" /><g
     id="g228"
     transform="matrix(0.79195319,0,0,0.79195319,-83.531357,17.123412)"><g
       id="g223"
       transform="translate(-114.42564,-22.337124)"
       style="stroke-width:0.5;stroke-dasharray:none"><path
         style="fill:#e0e0e0;fill-opacity:1;stroke:#00eaff;stroke-width:0.5;stroke-dasharray:none;stroke-opacity:0.631373"
         d="m 220.63628,13.446453 -0.47808,3.61973 1.57083,3.346542 3.96121,1.775725 3.89292,-0.204894 4.57589,-2.390393 4.47344,-7.615092 3.2441,-10.8933442 -11.40557,3.346541 -7.30776,4.302699 z"
         id="path125-5-6-8-5-48" /><path
         style="opacity:1;fill:#e0e0e0;fill-opacity:1;stroke:#00eaff;stroke-width:0.5;stroke-dasharray:none;stroke-opacity:0.631373"
         d="m 226.12017,16.674827 0.23151,-3.604948 3.77032,-4.1671873 3.70416,-0.79375 0.13229,2.7119783 -3.50573,4.564063 z"
         id="path223" /><path
         style="fill:#e0e0e0;fill-opacity:1;stroke:#00eaff;stroke-width:0.5;stroke-dasharray:none;stroke-opacity:0.631373"
         d="m 230.2864,8.4881239 0.11997,-3.6323464 4.809,-1.5765198 0.54703,1.7787192 -2.06949,2.8017614 z"
         id="path223-7" /><path
         style="fill:#e0e0e0;fill-opacity:1;stroke:#00eaff;stroke-width:0.5;stroke-dasharray:none;stroke-opacity:0.631373"
         d="m 229.77398,19.072987 0.92604,-3.935677 3.77032,-4.167188 4.81211,-1.6701823 -0.74415,2.6954423 -4.49792,7.044532 z"
         id="path223-3" /><path
         style="fill:#e0e0e0;fill-opacity:1;stroke:#00eaff;stroke-width:0.5;stroke-dasharray:none;stroke-opacity:0.631373"
         d="m 221.14194,13.351373 2.28203,-4.2994797 4.29949,-2.5135418 2.61275,-1.4552083 -0.0992,3.0096352 -3.50573,4.5640626 z"
         id="path223-3-4" /><path
         style="opacity:1;fill:#e0e0e0;fill-opacity:1;stroke:#00eaff;stroke-width:0.499999;stroke-dasharray:none;stroke-opacity:0.631373"
         d="m 233.87577,7.9105042 0.16536,3.0261718 5.24206,-1.8024739 1.07487,-3.6214844 -4.46484,-0.4795572 z"
         id="path224" /><path
         style="opacity:1;fill:#e0e0e0;fill-opacity:1;stroke:#00eaff;stroke-width:0.499999;stroke-dasharray:none;stroke-opacity:0.631373"
         d="m 235.41935,3.2833942 0.49111,1.6136408 4.34981,0.4677225 1.30962,-3.9054775 z"
         id="path225" /><path
         style="opacity:1;fill:#e0e0e0;fill-opacity:1;stroke:#00eaff;stroke-width:0.499999;stroke-dasharray:none;stroke-opacity:0.631373"
         d="m 220.77966,13.5265 -0.46772,3.648228 1.56687,3.133736 4.1861,-3.624842 0.23387,-3.858705 z"
         id="path226" /><path
         style="opacity:1;fill:#e0e0e0;fill-opacity:1;stroke:#00eaff;stroke-width:0.499999;stroke-dasharray:none;stroke-opacity:0.631373"
         d="m 229.6196,19.185932 -3.36759,2.876488 3.41436,-0.163702 3.99902,-2.525698 z"
         id="path227" /><path
         style="opacity:1;fill:#e0e0e0;fill-opacity:1;stroke:#00eaff;stroke-width:0.499999;stroke-dasharray:none;stroke-opacity:0.631373"
         d="m 230.34457,15.584476 -4.2095,1.379779 -3.95224,3.297438 3.695,1.683798 3.74177,-3.110349 z"
         id="path228" /></g></g></svg>
