<?xml version="1.0" encoding="UTF-8" standalone="no"?>
<!-- Created with Inkscape (http://www.inkscape.org/) -->

<svg
   width="15.390727mm"
   height="22.764103mm"
   viewBox="0 0 15.390727 22.764103"
   version="1.1"
   id="svg1"
   xml:space="preserve"
   xmlns="http://www.w3.org/2000/svg"
   xmlns:svg="http://www.w3.org/2000/svg"><defs
     id="defs1" /><g
     id="g371"
     transform="matrix(1.2758621,0,0,1.2758621,-144.44069,-205.0676)"><path
       style="opacity:1;fill:#e0e0e0;fill-opacity:1;stroke:#00eaff;stroke-width:0.5;stroke-dasharray:none;stroke-opacity:0.631373"
       d="m 116.06149,169.92138 -0.67819,1.94105 -0.0702,2.10475 0.70158,2.75955 0.81851,-2.47892 1.02899,-2.64263 1.28624,-1.47332 0.79512,1.37978 0.49111,2.38538 -0.35079,2.43215 -0.0468,1.61364 1.70718,-1.73057 0.81852,-2.61924 0.44433,-4.49013 1.59026,-2.73617 0.42095,-2.31522 -0.44434,-2.01121 -0.95883,-0.91205 -1.1693,-0.14032 h -1.28624 l -1.56687,0.39756 -1.59025,0.77174 -2.5257,-0.1637 -1.4967,0.72497 -0.5145,1.54348 0.23386,1.80073 1.23946,2.1749 0.95883,1.16931 z"
       id="path340" /><path
       style="opacity:1;fill:#e0e0e0;fill-opacity:1;stroke:#00eaff;stroke-width:0.499999;stroke-dasharray:none;stroke-opacity:0.631373"
       d="m 118.71935,163.75158 -0.94258,1.52136 0.13229,1.4056 1.19062,1.12448 0.77722,-1.25678 -0.14883,-1.5875 z"
       id="path341" /><path
       style="opacity:1;fill:#e0e0e0;fill-opacity:1;stroke:#00eaff;stroke-width:0.499999;stroke-dasharray:none;stroke-opacity:0.631373"
       d="m 119.79422,164.84299 0.9095,-1.57096 1.17409,1.42213 0.14883,1.68672 -1.14102,1.62057 -0.89297,-1.48828 z"
       id="path342" /><path
       style="opacity:1;fill:#e0e0e0;fill-opacity:1;stroke:#00eaff;stroke-width:0.499999;stroke-dasharray:none;stroke-opacity:0.631373"
       d="m 121.79513,164.74377 0.94258,-1.50482 1.00872,1.35599 0.0661,1.60404 -1.19063,1.78594 -0.64492,-1.57097 z"
       id="path343" /><path
       style="opacity:1;fill:#e0e0e0;fill-opacity:1;stroke:#00eaff;stroke-width:0.499999;stroke-dasharray:none;stroke-opacity:0.631373"
       d="m 123.84565,164.61148 -0.0165,-1.52135 1.0914,1.04179 -0.28112,2.11667 -0.97565,1.71979 0.1819,-1.67018 z"
       id="path344" /><path
       style="opacity:1;fill:#e0e0e0;fill-opacity:1;stroke:#00eaff;stroke-width:0.499999;stroke-dasharray:none;stroke-opacity:0.631373"
       d="m 117.59487,165.27294 -0.34727,-1.35599 -1.4056,1.47174 0.0662,1.5875 1.33946,1.25677 0.57877,-1.57096 z"
       id="path345" /><path
       style="opacity:1;fill:#e0e0e0;fill-opacity:1;stroke:#00eaff;stroke-width:0.499999;stroke-dasharray:none;stroke-opacity:0.631373"
       d="m 115.80893,165.38869 0.0661,1.55443 0.51263,1.70326 -1.71979,-1.19063 -0.82683,-1.67018 1.27331,-1.88516 z"
       id="path346" /><path
       style="opacity:1;fill:#e0e0e0;fill-opacity:1;stroke:#00eaff;stroke-width:0.499999;stroke-dasharray:none;stroke-opacity:0.631373"
       d="m 115.13093,163.8508 0.54571,-0.92604 -0.24805,-0.79375 -1.43867,0.678 -0.38034,1.35598 0.16536,1.32292 z"
       id="path347" /><path
       style="opacity:1;fill:#e0e0e0;fill-opacity:1;stroke:#00eaff;stroke-width:0.499999;stroke-dasharray:none;stroke-opacity:0.631373"
       d="m 115.80893,162.9413 -0.62839,0.94258 0.71107,1.20716 1.48828,-1.47175 -0.3638,-1.25677 z"
       id="path348" /><path
       style="opacity:1;fill:#e0e0e0;fill-opacity:1;stroke:#00eaff;stroke-width:0.499999;stroke-dasharray:none;stroke-opacity:0.631373"
       d="m 117.23106,163.75158 0.44649,1.37253 1.02526,-1.47175 -0.0496,-0.76067 -0.41341,-0.678 -0.8599,0.72761 z"
       id="path349" /><path
       style="opacity:1;fill:#e0e0e0;fill-opacity:1;stroke:#00eaff;stroke-width:0.499999;stroke-dasharray:none;stroke-opacity:0.631373"
       d="m 119.66192,164.66109 -0.95911,-0.89297 0.0496,-0.92604 0.61185,-0.95912 1.05833,0.72761 0.29766,0.81028 z"
       id="path350" /><path
       style="opacity:1;fill:#e0e0e0;fill-opacity:1;stroke:#00eaff;stroke-width:0.499999;stroke-dasharray:none;stroke-opacity:0.631373"
       d="m 120.55489,162.64364 0.24805,0.84336 0.97565,0.94258 0.92604,-1.35599 -0.3638,-0.90951 -1.07487,-0.47955 z"
       id="path351" /><path
       style="opacity:1;fill:#e0e0e0;fill-opacity:1;stroke:#00eaff;stroke-width:0.499999;stroke-dasharray:none;stroke-opacity:0.631373"
       d="m 122.50619,162.2633 0.28112,0.90951 c 0,0 1.02526,1.07487 0.95912,1.0914 -0.0662,0.0165 0.0661,-1.32291 0.0661,-1.32291 l -0.41341,-0.84336 -0.62839,-0.44649 z"
       id="path352" /><path
       style="opacity:1;fill:#e0e0e0;fill-opacity:1;stroke:#00eaff;stroke-width:0.499999;stroke-dasharray:none;stroke-opacity:0.631373"
       d="m 123.63067,162.13101 0.3142,0.99219 0.81028,0.76068 -0.31419,-1.7198 -0.69453,-0.71106 z"
       id="path353" /><path
       style="opacity:1;fill:#e0e0e0;fill-opacity:1;stroke:#00eaff;stroke-width:0.499999;stroke-dasharray:none;stroke-opacity:0.631373"
       d="m 115.54435,162.09794 0.1819,0.97565 1.20716,-0.82682 z"
       id="path354" /><path
       style="opacity:1;fill:#e0e0e0;fill-opacity:1;stroke:#00eaff;stroke-width:0.499999;stroke-dasharray:none;stroke-opacity:0.631373"
       d="m 119.24851,161.65145 1.2237,0.89297 0.90951,-1.42213 z"
       id="path355" /><path
       style="opacity:1;fill:#e0e0e0;fill-opacity:1;stroke:#00eaff;stroke-width:0.499999;stroke-dasharray:none;stroke-opacity:0.631373"
       d="m 121.11713,161.15536 1.2237,0.8599 0.42995,-0.95912 z"
       id="path356" /><path
       style="opacity:1;fill:#e0e0e0;fill-opacity:1;stroke:#00eaff;stroke-width:0.499999;stroke-dasharray:none;stroke-opacity:0.631373"
       d="m 122.30776,161.10575 1.14101,0.89297 0.1819,-0.71106 z"
       id="path357" /><path
       style="opacity:1;fill:#e0e0e0;fill-opacity:1;stroke:#00eaff;stroke-width:0.499999;stroke-dasharray:none;stroke-opacity:0.631373"
       d="m 116.3381,168.46447 0.62838,1.43868 -0.65319,0.92604 -0.17363,-0.82683 -0.24805,-0.81028 -1.24023,-1.43867 z"
       id="path358" /><path
       style="opacity:1;fill:#e0e0e0;fill-opacity:1;stroke:#00eaff;stroke-width:0.499999;stroke-dasharray:none;stroke-opacity:0.631373"
       d="m 116.04044,167.19117 0.26458,1.20716 0.71107,1.48828 0.0496,1.45521 0.69453,-1.5875 -0.49609,-1.53789 z"
       id="path359" /><path
       style="opacity:1;fill:#e0e0e0;fill-opacity:1;stroke:#00eaff;stroke-width:0.499999;stroke-dasharray:none;stroke-opacity:0.631373"
       d="m 117.41297,168.2247 0.37207,1.49654 0.0331,1.64538 1.23196,-1.47174 0.0248,-2.11667 -1.19062,-1.00045 z"
       id="path360" /><path
       style="opacity:1;fill:#e0e0e0;fill-opacity:1;stroke:#00eaff;stroke-width:0.499999;stroke-dasharray:none;stroke-opacity:0.631373"
       d="m 119.09142,167.7286 0.0496,2.19108 0.91777,1.50482 0.60358,-1.34772 0.1819,-2.14974 -0.89297,-1.16582 z"
       id="path361" /><path
       style="opacity:1;fill:#e0e0e0;fill-opacity:1;stroke:#00eaff;stroke-width:0.499999;stroke-dasharray:none;stroke-opacity:0.631373"
       d="m 120.92696,168.02626 -0.19843,2.04225 0.84896,1.50557 0.28828,-1.55552 0.61887,-1.89851 -0.54895,-1.35883 z"
       id="path362" /><path
       style="opacity:1;fill:#e0e0e0;fill-opacity:1;stroke:#00eaff;stroke-width:0.499999;stroke-dasharray:none;stroke-opacity:0.631373"
       d="m 121.93725,170.04416 0.5788,2.04628 0.35664,-3.03435 0.66066,-1.10499 0.0409,-0.96468 -1.04068,1.22777 z"
       id="path363" /><path
       style="opacity:1;fill:#e0e0e0;fill-opacity:1;stroke:#00eaff;stroke-width:0.499999;stroke-dasharray:none;stroke-opacity:0.631373"
       d="m 116.05565,170.53526 0.15785,0.85945 -0.18709,0.94713 -0.58465,0.60219 -0.0409,-1.09915 0.35547,-0.9331 z"
       id="path364" /><path
       style="opacity:1;fill:#e0e0e0;fill-opacity:1;stroke:#00eaff;stroke-width:0.499999;stroke-dasharray:none;stroke-opacity:0.631373"
       d="m 116.78788,170.32029 0.18567,1.00425 -0.20463,1.18685 -0.52619,0.67235 -0.20462,-0.88867 0.26894,-1.21608 z"
       id="path365" /><path
       style="opacity:1;fill:#e0e0e0;fill-opacity:1;stroke:#00eaff;stroke-width:0.499999;stroke-dasharray:none;stroke-opacity:0.631373"
       d="m 117.55236,170.73989 0.11693,0.95883 -0.36834,1.04653 -0.36833,0.99391 -0.18708,-1.10499 0.26894,-1.35056 z"
       id="path366" /><path
       style="opacity:1;fill:#e0e0e0;fill-opacity:1;stroke:#00eaff;stroke-width:0.499999;stroke-dasharray:none;stroke-opacity:0.631373"
       d="m 116.17258,173.42345 -0.1754,2.70109 -0.61388,-2.12229 0.0351,-0.95298 0.5788,-0.46772 z"
       id="path367" /><path
       style="opacity:1;fill:#e0e0e0;fill-opacity:1;stroke:#00eaff;stroke-width:0.499999;stroke-dasharray:none;stroke-opacity:0.631373"
       d="m 120.70363,170.34818 -0.66066,1.19853 0.30987,1.40317 0.71327,0.77173 0.13447,-0.93544 -0.0585,-1.23946 z"
       id="path368" /><path
       style="opacity:1;fill:#e0e0e0;fill-opacity:1;stroke:#00eaff;stroke-width:0.499999;stroke-dasharray:none;stroke-opacity:0.631373"
       d="m 121.5163,171.85658 0.42095,-1.14592 0.45603,1.257 v 0.90036 l -0.34495,1.12839 -0.48526,-1.31548 z"
       id="path369" /><path
       style="opacity:1;fill:#e0e0e0;fill-opacity:1;stroke:#00eaff;stroke-width:0.499999;stroke-dasharray:none;stroke-opacity:0.631373"
       d="m 120.423,173.23051 -0.0117,0.73666 -0.25725,2.25676 -0.0819,1.43824 0.94714,-1.40316 0.0819,-2.03459 z"
       id="path370" /><path
       style="opacity:1;fill:#e0e0e0;fill-opacity:1;stroke:#00eaff;stroke-width:0.499999;stroke-dasharray:none;stroke-opacity:0.631373"
       d="m 121.40521,172.86802 c -0.0117,0.0585 -0.25724,1.21608 -0.25724,1.21608 l -0.0234,2.37369 0.4911,-0.49111 0.42095,-1.44994 z"
       id="path371" /></g></svg>
