<?xml version="1.0" encoding="UTF-8" standalone="no"?>
<!-- Created with Inkscape (http://www.inkscape.org/) -->

<svg
   width="15.108783mm"
   height="18.189383mm"
   viewBox="0 0 15.108783 18.189383"
   version="1.1"
   id="svg1"
   xml:space="preserve"
   xmlns="http://www.w3.org/2000/svg"
   xmlns:svg="http://www.w3.org/2000/svg"><defs
     id="defs1" /><g
     id="g253"
     style="display:inline"
     transform="translate(-119.31909,-126.38079)"><path
       style="fill:#134fc3;fill-opacity:1;stroke-width:0.811814"
       d="m 130.06952,144.56235 c -0.9259,-0.11782 -1.58232,-0.91545 -2.49006,-1.11725 -1.16017,-0.41154 -2.36682,0.0725 -3.32963,0.72597 -0.65748,0.39867 -1.48353,0.42888 -2.13013,-0.0118 -1.54677,-0.8027 -1.66805,-3.25556 -0.22156,-4.21717 0.70007,-0.56146 1.73718,-0.52979 2.2873,-1.30262 0.57955,-0.84039 0.71894,-2.12638 1.7831,-2.53808 1.18396,-0.51857 2.67864,0.24299 2.9782,1.49483 0.27698,0.85048 0.72741,1.75464 1.63925,2.0573 0.96217,0.14152 1.78478,0.86542 1.96063,1.83923 0.3765,1.39849 -0.67773,2.96883 -2.13953,3.06651 l -0.17662,0.0109 -0.16095,-0.008 z m 1.22745,-5.46073 c -0.97048,-0.2583 -0.98272,-1.48812 -0.83152,-2.29026 0.2806,-1.25781 0.96778,-2.61083 2.22573,-3.11608 1.08982,0.22379 0.94599,-1.15956 1.0075,-1.90749 -0.22724,-1.11181 0.68731,0.0497 0.63828,0.58139 0.18709,0.90487 0.0691,1.84553 -0.20505,2.71422 -0.001,1.49768 -0.72857,3.08168 -2.04248,3.86026 -0.2427,0.1235 -0.5196,0.19467 -0.79246,0.15796 z m -9.31213,-0.0358 c -1.298,-0.45843 -2.00695,-1.84734 -2.29693,-3.11431 -0.093,-0.51807 -0.0153,-1.04803 -0.25214,-1.53519 -0.17615,-1.00906 -0.2323,-2.20322 0.4174,-3.05795 0.53723,-0.27015 -0.0156,1.01412 0.25416,1.3459 0.10583,0.50662 0.10953,1.2122 0.81549,0.95213 1.32303,0.41444 2.04422,1.82159 2.34546,3.08687 0.15428,0.80184 0.18871,2.02288 -0.75159,2.33412 -0.17451,0.0399 -0.36025,0.0346 -0.53185,-0.0116 z m 6.83971,-3.19722 c -1.04224,-0.38034 -1.36409,-1.62075 -1.50989,-2.61377 -0.0299,-1.19418 0.096,-2.47494 0.70102,-3.52967 0.29376,-0.3637 0.74237,-0.54845 0.70383,-1.08129 0.14723,-0.73489 0.28371,-1.47214 0.44504,-2.20406 0.11632,0.86277 0.23671,1.72499 0.35527,2.58745 0.60294,0.61672 1.07675,1.3671 1.20958,2.23384 0.25361,1.42522 0.1553,3.07723 -0.81853,4.22559 -0.27221,0.2961 -0.68235,0.4898 -1.08632,0.38191 z m -4.12963,-0.18989 c -1.01455,-0.33597 -1.36022,-1.5178 -1.51961,-2.46715 -0.19603,-1.46158 0.0121,-3.12507 1.11431,-4.20333 0.3793,-0.69141 0.26615,-1.58942 0.45173,-2.36281 0.0918,-0.8915 0.17932,0.72566 0.26437,1.08558 0.11035,0.46189 -0.0138,1.0949 0.49126,1.34288 0.86843,0.6916 1.07047,1.89657 1.15054,2.94347 0.0829,1.22369 -0.13867,2.64228 -1.12837,3.469 -0.2342,0.16989 -0.53682,0.25997 -0.82423,0.19236 z"
       id="path249" /><path
       style="fill:none;fill-rule:evenodd;stroke:#292ec6;stroke-width:0.264583;stroke-opacity:1"
       id="path250"
       d="m 108.28073,85.824219 c 0.063,0.09286 -0.0941,0.130753 -0.15434,0.104731 -0.16328,-0.07052 -0.14887,-0.294206 -0.0551,-0.413412 0.1677,-0.213232 0.4908,-0.180103 0.67248,-0.0055 0.26663,0.256221 0.21283,0.690263 -0.0441,0.931554 -0.34244,0.321603 -0.89077,0.24622 -1.19062,-0.09371 -0.37733,-0.427764 -0.27997,-1.091789 0.14332,-1.449696 0.51265,-0.433474 1.29309,-0.313918 1.70876,0.192926 0.48986,0.597298 0.348,1.49457 -0.24253,1.967839 -0.6818,0.546407 -1.69617,0.382165 -2.22691,-0.292146 -0.60306,-0.766196 -0.4164,-1.897851 0.34175,-2.485981 0.85053,-0.659792 2.0996,-0.450665 2.74505,0.391365 0.71658,0.934813 0.48497,2.301384 -0.44097,3.004123"
       transform="matrix(0.81181425,0,0,0.81181425,33.494848,66.893498)" /><path
       style="fill:none;fill-rule:evenodd;stroke:#292ec6;stroke-width:0.264583;stroke-opacity:1"
       id="path251"
       d="m 112.31562,80.697914 c 0.005,0.117734 -0.15625,0.06479 -0.19568,0.0083 -0.10686,-0.153174 0.0296,-0.344966 0.17914,-0.399631 0.26755,-0.09778 0.53778,0.110283 0.60358,0.366559 0.0966,0.376094 -0.19124,0.733979 -0.55397,0.80753 -0.48345,0.09803 -0.93148,-0.272187 -1.01148,-0.741385 -0.10066,-0.590438 0.3531,-1.129635 0.9288,-1.215429 0.69726,-0.103909 1.32816,0.433972 1.41938,1.116211 0.1075,0.803995 -0.51483,1.526906 -1.30362,1.623329 -0.91069,0.111324 -1.72581,-0.595687 -1.82728,-1.491038 -0.1153,-1.017355 0.67653,-1.924823 1.67845,-2.031228 1.124,-0.11937 2.12391,0.757369 2.23518,1.865864 0.12352,1.23064 -0.83821,2.323065 -2.05328,2.439127"
       transform="matrix(0.81181425,0,0,0.81181425,33.532819,66.874518)" /><path
       style="fill:none;fill-rule:evenodd;stroke:#292ec6;stroke-width:0.264583;stroke-opacity:1"
       id="path251-2"
       d="m 112.31562,80.697914 c 0.005,0.117734 -0.15625,0.06479 -0.19568,0.0083 -0.10686,-0.153174 0.0296,-0.344966 0.17914,-0.399631 0.26755,-0.09778 0.53778,0.110283 0.60358,0.366559 0.0966,0.376094 -0.19124,0.733979 -0.55397,0.80753 -0.48345,0.09803 -0.93148,-0.272187 -1.01148,-0.741385 -0.10066,-0.590438 0.3531,-1.129635 0.9288,-1.215429 0.69726,-0.103909 1.32816,0.433972 1.41938,1.116211 0.1075,0.803995 -0.51483,1.526906 -1.30362,1.623329 -0.91069,0.111324 -1.72581,-0.595687 -1.82728,-1.491038 -0.1153,-1.017355 0.67653,-1.924823 1.67845,-2.031228 1.124,-0.11937 2.12391,0.757369 2.23518,1.865864 0.12352,1.23064 -0.83821,2.323065 -2.05328,2.439127"
       transform="matrix(0.81181425,0,0,0.81181425,35.552212,72.650278)" /><path
       style="fill:none;fill-rule:evenodd;stroke:#292ec6;stroke-width:0.264583;stroke-opacity:1"
       id="path251-2-2"
       d="m 112.31562,80.697914 c 0.005,0.117734 -0.15625,0.06479 -0.19568,0.0083 -0.10686,-0.153174 0.0296,-0.344966 0.17914,-0.399631 0.26755,-0.09778 0.53778,0.110283 0.60358,0.366559 0.0966,0.376094 -0.19124,0.733979 -0.55397,0.80753 -0.48345,0.09803 -0.93148,-0.272187 -1.01148,-0.741385 -0.10066,-0.590438 0.3531,-1.129635 0.9288,-1.215429 0.69726,-0.103909 1.32816,0.433972 1.41938,1.116211 0.1075,0.803995 -0.51483,1.526906 -1.30362,1.623329 -0.91069,0.111324 -1.72581,-0.595687 -1.82728,-1.491038 -0.1153,-1.017355 0.67653,-1.924823 1.67845,-2.031228 1.124,-0.11937 2.12391,0.757369 2.23518,1.865864 0.12352,1.23064 -0.83821,2.323065 -2.05328,2.439127"
       transform="matrix(-0.54734932,-0.5995424,0.5995424,-0.54734932,136.54412,253.52925)" /><path
       style="fill:none;fill-rule:evenodd;stroke:#292ec6;stroke-width:0.264583;stroke-opacity:1"
       id="path251-2-2-9"
       d="m 112.31562,80.697914 c 0.005,0.117734 -0.15625,0.06479 -0.19568,0.0083 -0.10686,-0.153174 0.0296,-0.344966 0.17914,-0.399631 0.26755,-0.09778 0.53778,0.110283 0.60358,0.366559 0.0966,0.376094 -0.19124,0.733979 -0.55397,0.80753 -0.48345,0.09803 -0.93148,-0.272187 -1.01148,-0.741385 -0.10066,-0.590438 0.3531,-1.129635 0.9288,-1.215429 0.69726,-0.103909 1.32816,0.433972 1.41938,1.116211 0.1075,0.803995 -0.51483,1.526906 -1.30362,1.623329 -0.91069,0.111324 -1.72581,-0.595687 -1.82728,-1.491038 -0.1153,-1.017355 0.67653,-1.924823 1.67845,-2.031228 1.124,-0.11937 2.12391,0.757369 2.23518,1.865864 0.12352,1.23064 -0.83821,2.323065 -2.05328,2.439127"
       transform="matrix(-0.53337521,0.61200756,-0.61200756,-0.53337521,239.73839,116.14692)" /><path
       style="fill:none;fill-rule:evenodd;stroke:#292ec6;stroke-width:0.264583;stroke-opacity:1"
       id="path252"
       d="m 117.54115,80.962502 c -0.0116,0.114417 -0.15996,0.0408 -0.19017,-0.01929 -0.0819,-0.162855 0.0767,-0.329094 0.22876,-0.361046 0.27206,-0.05715 0.50409,0.181496 0.53192,0.438216 0.0409,0.376747 -0.28705,0.68232 -0.64768,0.7028 -0.48065,0.0273 -0.86181,-0.392771 -0.87367,-0.85714 -0.0149,-0.584361 0.49854,-1.041938 1.0666,-1.044553 0.68799,-0.0032 1.22242,0.604344 1.21543,1.276063 -0.008,0.791598 -0.71016,1.40313 -1.48553,1.386307 -0.89519,-0.01942 -1.58399,-0.815986 -1.55718,-1.694987 0.0305,-0.998777 0.92182,-1.764953 1.90445,-1.72806 1.10236,0.04139 1.94599,1.027659 1.89894,2.113911 -0.0523,1.205945 -1.13351,2.127091 -2.32338,2.069813"
       transform="matrix(-0.81181425,0,0,0.81181425,224.68565,66.874518)" /><path
       style="fill:none;fill-rule:evenodd;stroke:#292ec6;stroke-width:0.264583;stroke-opacity:1"
       id="path253"
       d="m 121.42722,85.758072 c -0.0514,0.09452 -0.15277,-0.02266 -0.15709,-0.08544 -0.0117,-0.170124 0.18518,-0.256208 0.32797,-0.228755 0.25541,0.04911 0.36926,0.338944 0.30041,0.570508 -0.10104,0.339829 -0.49449,0.484856 -0.81304,0.372071 -0.42458,-0.150326 -0.60148,-0.650635 -0.44373,-1.055577 0.19851,-0.509579 0.80705,-0.718623 1.29811,-0.515388 0.59474,0.246146 0.83607,0.963626 0.58705,1.540647 -0.29347,0.679999 -1.12029,0.953703 -1.78318,0.658703 -0.76533,-0.340589 -1.07147,-1.277022 -0.73036,-2.025716 0.38758,-0.850713 1.43379,-1.189312 2.26825,-0.802019 0.93613,0.434484 1.30722,1.590605 0.87367,2.510785 -0.48132,1.021574 -1.74743,1.425185 -2.75332,0.945336"
       transform="matrix(-0.46537212,-0.66518507,-0.66518507,0.46537212,245.90405,177.37211)" /></g></svg>
