<?xml version="1.0" encoding="UTF-8" standalone="no"?>
<!-- Created with Inkscape (http://www.inkscape.org/) -->

<svg
   width="25.84531mm"
   height="22.834766mm"
   viewBox="0 0 25.84531 22.834766"
   version="1.1"
   id="svg1"
   xml:space="preserve"
   xmlns="http://www.w3.org/2000/svg"
   xmlns:svg="http://www.w3.org/2000/svg"><defs
     id="defs1" /><g
     id="g232"
     transform="matrix(0.37813865,0,0,0.37813865,-20.48314,3.8948038)"><path
       style="fill:#ffee70;fill-opacity:1;stroke:#00eaff;stroke-width:0.499999;stroke-opacity:0"
       d="m 77.053607,-2.6244138 5.144939,-1.40317 3.835316,3.92885998 5.519115,2.80633002 7.109368,0.18709 5.612655,-5.42557 3.64823,3.74177 1.59026,2.80633 -3.08697,4.86431 v 3.7417698 l 1.02899,1.49671 0.74836,2.33861 1.87088,1.96443 1.30962,2.24507 0.0936,2.99341 0.18708,3.27405 -1.40316,4.49013 -1.96443,0.46772 -1.40317,2.71279 -1.59025,1.12253 -1.87089,-0.18709 h -2.89987 l -1.964425,1.21608 -3.55469,1.21608 -2.619239,-0.56127 -3.741772,0.65481 -4.583673,-0.18709 -1.216075,-0.56126 -3.835318,1.59025 -4.209494,-2.15152 -1.683798,-1.49671 -3.741775,1.40317 -2.432153,-1.59026 -2.899873,-4.0224 -1.216078,-5.51912 1.216078,-5.05139 5.051393,-3.08697 2.619243,-1.30962 3.741772,-3.36759 1.403165,-1.87089 1.403164,-5.8932898 -0.935442,-3.27405 -0.748355,-2.43216002 z"
       id="path127" /><path
       style="fill:#ffe949;fill-opacity:1;stroke:#00eaff;stroke-width:0.499999;stroke-opacity:0"
       d="m 107.78292,25.205026 0.28063,-3.50792 -0.74836,-1.91766 -1.30962,-1.35639 -1.82411,-0.18709 -1.87089,0.60804 -0.93544,0.56127 -0.60804,1.30962 0.0468,2.33861 v 1.59025 l -0.56126,2.05797 v 1.63703 2.94665 l 0.46772,1.87088 1.12253,1.49671 2.24506,0.88867 1.40317,0.0468 1.21607,-0.60804 1.3564,-1.44994 0.0468,-1.49671 0.18709,-1.54348 -0.18709,-2.71279 -0.37418,-1.59025 z"
       id="path232" /><path
       style="fill:#ffe949;fill-opacity:1;stroke:#00eaff;stroke-width:0.499999;stroke-opacity:0"
       d="m 100.17363,25.059036 -0.0468,-2.78295 -0.912055,-2.24506 -0.91206,-0.95883 -2.36199,0.42095 -2.10475,1.21608 -0.86528,1.35639 -0.32741,0.70159 -0.46769,1.80073 0.09355,1.05237 -0.233858,2.15151 v 1.63703 2.94665 l 0.236208,3.29302 0.428,1.69514 2.77422,0.0949 1.80005,-0.35007 1.21607,-1.03799 1.3564,-1.44994 0.0468,-1.49671 0.140315,-1.49671 0.23386,-2.75956 -0.0468,-1.54348 z"
       id="path232-5" /><path
       style="fill:#ffe949;fill-opacity:1;stroke:#00eaff;stroke-width:0.499999;stroke-opacity:0"
       d="m 91.503342,25.734916 -0.07987,-2.68373 -1.044352,-2.54272 -1.507372,-1.09112 -2.13048,-0.3728 -2.534698,1.28223 -1.229082,1.52175 -0.128973,1.52841 -0.269252,1.76766 0.09355,1.05237 -0.233858,2.15151 v 1.63703 2.94665 l 0.566937,3.16072 1.12253,1.49671 2.24506,0.88867 1.40317,0.0468 1.21607,-0.60804 1.58791,-1.2515 0.972842,-1.16598 -0.05812,-3.15036 0.101569,-2.56112 -0.0468,-1.80806 z"
       id="path232-5-3" /><path
       style="fill:#ffe949;fill-opacity:1;stroke:#00eaff;stroke-width:0.499999;stroke-opacity:0"
       d="m 81.548392,26.297006 -0.07987,-2.68373 -1.044352,-2.54272 -1.507372,-1.09112 -2.13048,-0.3728 -2.534698,1.28223 -1.229082,1.52175 -0.128973,1.52841 -0.269252,1.76766 0.09355,1.05237 -0.233858,2.15151 v 1.63703 l 0.23151,5.12946 0.467718,0.77947 1.12253,1.49671 2.24506,0.88867 1.40317,0.0468 1.21607,-0.60804 1.58791,-1.2515 0.972842,-1.16598 0.0411,-0.76911 -0.129941,-4.74393 -0.0468,-1.80806 z"
       id="path232-5-3-4" /><path
       style="fill:#ffe949;fill-opacity:1;stroke:#00eaff;stroke-width:0.499999;stroke-opacity:0"
       d="m 72.188756,24.676446 -0.07987,-2.68373 -0.647477,-2.04663 -1.507372,-1.09112 -2.13048,-0.3728 -2.534698,1.28223 -1.229082,1.52175 -0.128973,1.52841 -0.269252,1.76766 0.09355,1.05237 -0.233858,2.15151 v 1.63703 l 0.892968,2.02061 0.467718,0.77947 1.12253,1.49671 2.24506,0.88867 0.774785,0.54289 1.182997,0.25186 1.191035,0.005 0.972842,-1.16598 0.0411,-0.76911 -0.129941,-4.74393 -0.0468,-1.80806 z"
       id="path232-5-3-4-8" /><path
       style="display:inline;fill:#aaaaaa;fill-opacity:1;stroke:#00eaff;stroke-width:0.499999;stroke-opacity:0"
       d="m 105.14155,25.299196 0.67799,3.65456 -0.89296,3.42305 -1.28984,2.29857 -0.84337,2.23242 -1.22369,2.06705 -2.282025,1.70326 -1.78594,0.19844 0.52916,-1.85209 1.05834,-1.71979 0.46302,-1.45521 0.19844,-0.66146 1.074865,-1.15755 0.51263,-2.08359 0.39687,-1.91823 0.39688,-1.65365 1.38906,-1.05833 1.12448,-0.92604 z"
       id="path182" /><path
       style="fill:#aaaaaa;fill-opacity:1;stroke:#00eaff;stroke-width:0.499999;stroke-opacity:0"
       d="m 97.586585,27.567016 1.05238,1.89427 c 0,0 -0.25725,2.64263 -0.25725,2.78295 0,0.14031 -1.07576,3.78854 -1.07576,3.78854 l -1.02899,2.50231 -1.33301,2.54908 -1.61363,1.96444 -1.075765,0.70158 -0.818513,-0.21048 -0.444336,-0.88867 0.42095,-1.66041 0.724969,-1.49671 0.724965,-1.21608 0.5145,-1.14591 0.18709,-1.91766 0.14031,-1.5201 0.16371,-1.91766 0.42094,-1.4967 0.77175,-1.33301 1.30962,-1.0056 z"
       id="path183" /><path
       style="fill:#aaaaaa;fill-opacity:1;stroke:#00eaff;stroke-width:0.499999;stroke-opacity:0"
       d="m 87.216036,28.507266 -1.35599,2.01745 -0.859895,2.77813 -0.496094,3.20807 -0.297656,3.47266 -0.595313,3.77031 -0.297656,3.175 0.529166,0.13229 1.12448,-0.26458 0.330729,-0.39688 1.058333,-1.38906 0.79375,-2.11667 1.124479,-3.37343 0.959115,-3.07579 0.562239,-2.91041 0.03307,-1.91823 -0.661458,-1.88516 -0.926042,-0.85989 z"
       id="path229" /><path
       style="fill:#aaaaaa;fill-opacity:1;stroke:#00eaff;stroke-width:0.499999;stroke-opacity:0"
       d="m 76.566557,28.374976 1.058333,-0.0992 1.058333,-0.0331 0.79375,1.12448 0.496094,1.65365 -0.03307,3.93567 -0.595312,3.175 -0.727604,4.13412 -0.959115,3.27422 -1.256771,2.77812 -1.289843,1.42214 -0.661459,-0.56224 -0.264583,-1.15755 -0.03307,-1.75287 0.23151,-2.48047 0.132292,-3.43958 0.23151,-2.64583 0.264584,-2.67891 -0.09922,-3.63802 0.496094,-1.32292 1.02526,-1.19062 z"
       id="path230" /><path
       style="fill:#aaaaaa;fill-opacity:1;stroke:#00eaff;stroke-width:0.499999;stroke-opacity:0"
       d="m 63.998849,24.340086 1.289843,-0.52917 1.190625,0.26458 1.058334,1.38907 0.727604,1.9513 0.03307,1.75286 -0.675847,2.04984 c 0,0 -0.307343,1.87948 -0.307343,2.01177 0,0.13229 0.269285,1.89983 0.269285,1.89983 l 0.683872,3.37344 0.966855,3.15396 -1.041354,2.10679 -2.096849,-1.10727 -1.740254,-2.72733 -0.496093,-3.93568 -0.378186,-3.06541 -0.409601,-4.15681 0.132292,-2.64584 z"
       id="path231" /><path
       style="fill:#f3ff47;fill-opacity:1;stroke:#957b7b;stroke-width:1;stroke-opacity:0"
       id="path20-9"
       d="m 179.619,33.271441 -2.19832,-4.019474 -4.01947,-2.198323 4.01947,-2.198323 2.19832,-4.019473 2.19833,4.019473 4.01947,2.198323 -4.01947,2.198323 z"
       transform="matrix(1.4247892,0,0,2.0292329,-191.40719,-50.466241)" /><path
       style="fill:#f3ff47;fill-opacity:1;stroke:#957b7b;stroke-width:1;stroke-opacity:0"
       id="path20-3-9"
       d="m 179.619,33.271441 -2.19832,-4.019474 -4.01947,-2.198323 4.01947,-2.198323 2.19832,-4.019473 2.19833,4.019473 4.01947,2.198323 -4.01947,2.198323 z"
       transform="matrix(0.98211829,0,0,1.3987662,-61.02,-2.2049438)" /><path
       style="opacity:1;fill:#fff187;fill-opacity:1;stroke:#00eaff;stroke-width:1.32226;stroke-opacity:0"
       d="m 76.882407,-3.2763717 -0.612237,1.66179 1.705517,5.94744 -2.405216,7.3031097 2.230291,0.48104 2.580141,-0.96208 h 2.317754 l 0.830893,0.26238 h 1.049549 c 0,0 1.005817,-0.43731 1.180742,-0.43731 0.174925,0 1.311936,0.74343 1.311936,0.74343 l 1.399399,0.21866 1.661785,0.0437 4.504313,-0.78716 3.45477,-0.83089 h 1.79298 l 3.148636,-0.0875 1.22448,1.09328 1.53059,2.66761 1.18074,0.83089 0.91836,0.48104 -1.92418,-6.5596797 3.27984,-5.59759 -1.83671,-2.92999004 -3.54222,-3.49849996 -5.466396,5.42267 -7.08446,-0.17492 -5.597594,-2.58015004 -3.892077,-4.11072996 z"
       id="path233" /></g></svg>
