<?xml version="1.0" encoding="UTF-8" standalone="no"?>
<!-- Created with Inkscape (http://www.inkscape.org/) -->

<svg
   width="16.425314mm"
   height="21.377424mm"
   viewBox="0 0 16.425314 21.377424"
   version="1.1"
   id="svg1"
   xml:space="preserve"
   xmlns="http://www.w3.org/2000/svg"
   xmlns:svg="http://www.w3.org/2000/svg"><defs
     id="defs1" /><g
     id="g395-3-2"
     transform="matrix(0.37876474,0,0,0.37876474,-22.899628,-143.13248)"><path
       style="opacity:1;fill:#040086;fill-opacity:1;stroke-width:0.499999;stroke-opacity:0.631373"
       d="m 65.114312,416.78851 -0.790663,6.3931 0.171846,7.1353 18.7241,4.01576 18.021965,-5.39428 0.40627,-8.46956 -2.282666,-3.82729 -16.710849,-4.43637 z"
       id="path398-4" /><path
       style="opacity:0.95;fill:#0f07e9;fill-opacity:1;stroke-width:0.499999;stroke-opacity:0.631373"
       d="m 82.565575,424.95736 -16.668748,-3.24115 0.533872,-3.9026 15.142686,-3.83645 16.073439,3.10885 1.98438,2.71198 z"
       id="path400-1" /><path
       style="opacity:0.95;fill:#0b05b7;fill-opacity:1;stroke-width:0.379517;stroke-opacity:0.631373"
       d="m 81.964515,423.5683 -12.652178,-2.46015 0.40523,-2.96221 11.493838,-2.91201 12.200319,2.35973 1.50622,2.05849 z"
       id="path400-8-3" /><g
       id="g396-4-5"
       transform="translate(-18.697982,191.63957)"><circle
         style="opacity:1;fill:#f7e0ff;fill-opacity:1;stroke:none;stroke-width:0.397817;stroke-dasharray:none;stroke-opacity:0.631373"
         id="path392-0-4"
         cx="100.83943"
         cy="207.93599"
         r="21.682739" /><path
         style="opacity:1;fill:#f9e5ff;fill-opacity:1;stroke:none;stroke-width:0.499999;stroke-dasharray:none;stroke-opacity:0.631373"
         d="m 81.293229,202.14166 0.0187,1.96573 0.444321,2.13531 1.168133,2.44072 2.006867,2.58636 2.791077,2.37979 3.095902,1.85354 2.791088,1.28358 3.095891,0.76694 4.481422,0.39979 4.51441,-0.53208 5.24093,-1.71576 3.35803,-1.85611 2.80791,-3.07844 1.75615,-2.54396 0.92399,-2.07165 0.72966,-2.22783 0.0172,-2.44835 -0.28177,-2.248 -1.28109,-2.29822 -1.43088,-1.93511 -4.49792,-4.0349 -2.42593,-1.38311 -2.6673,-0.99814 -1.63277,-0.73283 -1.82909,-0.46289 -2.69045,-0.46496 -3.241431,0.0137 -3.341878,0.7644 -3.403964,1.41177 -3.266024,1.70878 -2.819393,2.19382 -1.542256,2.03021 -1.36816,2.46771 -0.809896,2.01192 z"
         id="path394-2-4" /><circle
         style="opacity:1;fill:#fcf0ff;fill-opacity:1;stroke:none;stroke-width:0.499999;stroke-dasharray:none;stroke-opacity:0.631373"
         id="path395-6-3"
         cx="88.372772"
         cy="196.89346"
         r="2.8442707" /></g><path
       style="opacity:0.95;fill:#0700f4;fill-opacity:1;stroke-width:0.499999;stroke-opacity:0.631373"
       d="m 65.489577,423.96517 0.677509,5.09645 16.801039,3.96875 16.413569,-5.19244 0.21643,-5.62563 -17.164839,4.69636 z"
       id="path399-3" /><path
       style="opacity:1;fill:#040086;fill-opacity:1;stroke-width:0.499999;stroke-opacity:0.631373"
       d="m 81.426895,426.44399 0.25725,6.59487 1.28624,0.53788 1.28623,-0.60803 -0.53788,-6.7352 -1.1693,0.25725 z"
       id="path402-1" /><path
       style="opacity:0.95;fill:#6365ff;fill-opacity:1;stroke-width:0.499999;stroke-opacity:0.631373"
       d="m 72.633734,426.09318 2.256754,0.42096 0.748355,1.82413 -1.297925,1.74225 -2.432153,-0.67819 -0.596345,-1.90595 z"
       id="path401-4" /><path
       style="fill:#1294ff;fill-opacity:1;stroke:none;stroke-width:0.236455;stroke-dasharray:none;stroke-opacity:0.631373"
       d="m 72.284909,429.15758 0.50047,0.12431 0.406356,-0.92647 0.44238,1.17231 0.497626,0.18782 -0.428165,-2.6969 -0.555119,-0.1591 z"
       id="path377-6-0-9" /><path
       style="fill:#1294ff;fill-opacity:1;stroke:none;stroke-width:0.273321;stroke-dasharray:none;stroke-opacity:0.631373"
       d="m 72.926479,429.29068 0.542545,0.17022 -0.268459,-0.83735 z"
       id="path377-89" /><path
       style="opacity:1;fill:#5e60fe;fill-opacity:1;stroke-width:0.499999;stroke-opacity:0.631373"
       d="m 75.609629,426.62763 0.654808,1.75395 -1.333007,1.77734 1.91766,0.32742 1.309623,-1.8475 -0.771744,-1.82411 z"
       id="path404" /><path
       style="opacity:1;fill:#5e60fe;fill-opacity:1;stroke-width:0.499999;stroke-opacity:0.631373"
       d="m 71.984785,426.03128 -1.251157,1.34471 0.654812,1.90597 -1.403165,-0.40926 -0.678196,-1.78904 1.251157,-1.23945 z"
       id="path405" /><path
       style="opacity:0.95;fill:#6365ff;fill-opacity:1;stroke-width:0.499999;stroke-opacity:0.631373"
       d="m 92.709954,425.37267 -2.22674,0.55834 -0.635254,1.86654 1.402178,1.65951 2.386066,-0.82588 0.47851,-1.93888 z"
       id="path401-4-0" /><path
       style="fill:#1294ff;fill-opacity:1;stroke:none;stroke-width:0.236455;stroke-dasharray:none;stroke-opacity:0.631373"
       d="m 93.245784,428.40994 -0.49193,0.15471 -0.462327,-0.89986 -0.369762,1.1972 -0.485198,0.21786 0.262219,-2.71805 0.544329,-0.19286 z"
       id="path377-6-0-9-4" /><path
       style="fill:#1294ff;fill-opacity:1;stroke:none;stroke-width:0.273321;stroke-dasharray:none;stroke-opacity:0.631373"
       d="m 92.613554,428.58209 -0.531096,0.20313 0.216681,-0.85221 z"
       id="path377-89-5" /><path
       style="fill:#5e60fe;fill-opacity:1;stroke-width:0.499999;stroke-opacity:0.631373"
       d="m 89.772372,426.08832 -0.54618,1.79076 1.439343,1.6924 -1.894014,0.4442 -1.420296,-1.76384 0.658598,-1.86794 z"
       id="path404-8" /><path
       style="fill:#5e60fe;fill-opacity:1;stroke-width:0.499999;stroke-opacity:0.631373"
       d="m 93.353904,425.27112 1.33115,1.26558 -0.53688,1.94248 1.37548,-0.49441 0.56737,-1.82721 -1.32471,-1.16053 z"
       id="path405-8" /></g></svg>
